<svg xmlns="http://www.w3.org/2000/svg" width="576" height="1080" viewBox="0 0 576 1080" version="1.1"><path d="" stroke="none" fill="#080404" fill-rule="evenodd"/><path d="M 152.791 131.988 C 141.462 135.404, 131.628 146.391, 129.511 158 C 126.493 174.547, 124.176 176.331, 106.028 176.080 C 80.875 175.731, 67.499 186.312, 67.570 206.500 C 67.619 220.279, 80.417 239.283, 92.140 242.984 C 94.538 243.741, 97.024 244.752, 97.664 245.231 C 100.116 247.066, 112.580 247.356, 115.985 245.657 C 118.284 244.511, 119.743 244.327, 121.042 245.023 C 122.047 245.560, 124.158 246, 125.735 246 C 130.835 246, 142.593 257.954, 146.730 267.346 C 148.080 270.409, 164.106 298.408, 172.004 311.500 C 174.659 315.900, 178.044 321.750, 179.527 324.500 C 181.010 327.250, 182.796 330.175, 183.495 331 C 184.193 331.825, 189.140 341.050, 194.488 351.500 C 199.835 361.950, 205.224 372.075, 206.463 374 C 207.703 375.925, 210.749 380.650, 213.232 384.500 C 215.715 388.350, 221.012 397.350, 225.004 404.500 C 228.995 411.650, 233.548 419.557, 235.120 422.072 C 240.768 431.101, 240.015 437.788, 233.332 437.968 C 231.160 438.027, 224.237 445.599, 221.603 450.797 C 216.636 460.599, 215.519 469.363, 218.007 479 C 218.505 480.925, 219.169 484.149, 219.485 486.164 C 221.059 496.224, 235.873 504.979, 251.677 505.191 C 264.595 505.364, 271.686 500.698, 284.500 483.592 C 285.600 482.123, 287.562 479.702, 288.861 478.211 C 290.159 476.720, 291.579 474.572, 292.015 473.437 C 292.739 471.554, 293.318 471.437, 298.654 472.102 C 311.421 473.694, 327 471.417, 327 467.960 C 327 467.541, 328.489 466.319, 330.309 465.245 C 348.098 454.750, 337.493 407.253, 317.309 407.025 C 316.104 407.011, 314.809 406.500, 314.431 405.889 C 313.390 404.203, 303.203 405.330, 298 407.706 C 289.919 411.397, 289.668 411.386, 284.243 407.098 C 280.110 403.831, 273 395.194, 273 393.440 C 273 393.187, 270.552 389.670, 267.559 385.624 C 264.567 381.577, 258.665 372.919, 254.445 366.383 C 250.225 359.847, 245.483 352.524, 243.907 350.110 C 242.331 347.695, 238.772 341.395, 235.998 336.110 C 233.224 330.824, 230.556 325.825, 230.068 325 C 229.581 324.175, 227.341 320.437, 225.091 316.692 C 222.841 312.948, 221 309.693, 221 309.460 C 221 309.226, 219.136 305.990, 216.858 302.268 C 214.579 298.545, 211.850 293.475, 210.794 291 C 209.203 287.274, 202.667 275.028, 199.052 269 C 190.602 254.910, 183.748 241.154, 182.860 236.500 C 182.440 234.300, 181.197 228.675, 180.099 224 C 176.783 209.894, 176.981 208.834, 184.278 201.537 C 197.180 188.635, 202.316 174.091, 197.989 162.709 C 189.443 140.228, 181.121 132.775, 164.837 133.021 C 162.273 133.059, 159.883 132.620, 159.528 132.045 C 158.784 130.842, 156.653 130.824, 152.791 131.988 M 346 474.058 C 328.498 477.256, 322.684 479.509, 317.351 485.162 C 312.363 490.451, 306.068 500.034, 305.015 503.943 C 304.051 507.525, 304.051 507.525, 290.948 507.729 C 279.303 507.909, 277.438 508.183, 274.173 510.191 C 268.712 513.549, 262 520.021, 262 521.927 C 262 522.847, 261.568 524.032, 261.041 524.559 C 243.583 542.017, 271.148 579.463, 295.613 571.524 C 298.290 570.655, 319.080 591.032, 325.777 601.088 C 326.724 602.511, 330.499 608.138, 334.164 613.592 C 337.829 619.046, 342.490 626.656, 344.521 630.504 C 346.553 634.352, 348.536 637.950, 348.928 638.500 C 349.319 639.050, 350.211 641.525, 350.910 644 C 351.609 646.475, 353.265 650.795, 354.590 653.600 C 355.916 656.405, 357 659.133, 357 659.662 C 357 660.191, 357.849 662.396, 358.886 664.562 C 368.732 685.114, 371.193 690.001, 371.925 690.454 C 372.392 690.742, 373.051 692.445, 373.391 694.239 C 374.043 697.687, 377.504 706.475, 380.189 711.500 C 381.070 713.150, 382.814 717.867, 384.064 721.982 C 385.313 726.097, 387.610 732.274, 389.168 735.710 C 390.726 739.145, 392 742.687, 392 743.581 C 392 744.474, 393.758 748.958, 395.908 753.544 C 398.057 758.130, 400.126 763.372, 400.506 765.191 C 400.886 767.011, 401.745 769.400, 402.415 770.500 C 410.333 783.493, 410.572 798.182, 402.922 801.615 C 397.685 803.966, 395.380 805.964, 389.150 813.556 C 381.517 822.858, 387.384 849.894, 398.816 858.104 C 400.651 859.422, 403.264 861.471, 404.622 862.657 C 409.997 867.352, 425.917 866.287, 436.775 860.507 C 439.365 859.128, 441.803 858, 442.192 858 C 444.550 858, 459.174 845.695, 461.500 841.755 C 462.199 840.570, 464.305 839.910, 468.500 839.560 C 471.800 839.285, 476.300 838.391, 478.500 837.574 C 480.700 836.757, 483.175 836.060, 484 836.026 C 488.099 835.856, 502.509 823.555, 505.052 818.055 C 505.702 816.650, 506.608 814.755, 507.066 813.844 C 512.581 802.882, 503.025 779, 493.124 779 C 492.021 779, 490.840 778.550, 490.500 778 C 490.160 777.450, 488.868 777, 487.629 777 C 486.390 777, 483.573 776.129, 481.369 775.064 C 478.198 773.532, 476.555 773.311, 473.487 774.003 C 471.355 774.484, 469.278 774.672, 468.871 774.420 C 468.465 774.169, 466.270 774.709, 463.994 775.619 C 457.677 778.147, 447.395 766.650, 441.977 751 C 441.120 748.525, 437.849 741.206, 434.709 734.736 C 431.569 728.265, 429 722.500, 429 721.924 C 429 720.124, 419.328 699.320, 417.413 697 C 416.732 696.175, 414.522 691.361, 412.503 686.303 C 410.484 681.245, 408.195 676.577, 407.416 675.930 C 406.637 675.284, 406 674.058, 406 673.206 C 406 672.354, 405.323 670.910, 404.496 669.996 C 403.669 669.082, 400.362 661.750, 397.147 653.701 C 393.932 645.653, 390.826 638.490, 390.244 637.784 C 389.663 637.078, 388.862 634.250, 388.464 631.500 C 388.066 628.750, 387.124 625.285, 386.370 623.800 C 385.617 622.314, 385.007 620.064, 385.015 618.800 C 385.033 615.950, 379.448 601.765, 373.084 588.500 C 358.575 558.255, 357.005 539.105, 368.454 532.029 C 379.378 525.277, 382.332 516.554, 379.472 499.500 C 379.380 498.950, 379.233 497.600, 379.146 496.500 C 378.701 490.907, 366.393 476, 362.220 476 C 361.125 476, 358.940 475.328, 357.364 474.506 C 354.241 472.877, 352.775 472.819, 346 474.058" stroke="none" fill="#040404" fill-rule="evenodd"/></svg>