<?xml version="1.0" standalone="no"?>
<!DOCTYPE svg PUBLIC "-//W3C//DTD SVG 20010904//EN"
 "http://www.w3.org/TR/2001/REC-SVG-20010904/DTD/svg10.dtd">
<svg version="1.0" xmlns="http://www.w3.org/2000/svg"
 width="576.000000pt" height="720.000000pt" viewBox="0 0 576.000000 720.000000"
 preserveAspectRatio="xMidYMid meet">

<g transform="translate(0.000000,720.000000) scale(0.100000,-0.100000)"
fill="#000000" stroke="none">
<path d="M2670 4594 c-92 -20 -160 -44 -196 -68 -219 -146 -390 -299 -449
-401 -35 -59 -48 -124 -30 -152 52 -79 280 -87 515 -17 66 20 196 110 284 197
75 75 99 107 133 177 89 182 64 241 -114 269 -39 6 -73 11 -75 10 -2 -1 -32
-7 -68 -15z"/>
<path d="M3179 4159 c-70 -76 -73 -82 -59 -138 9 -38 22 -60 52 -87 43 -39
165 -100 220 -111 18 -3 51 -14 73 -23 23 -10 61 -21 85 -25 25 -3 64 -15 87
-26 49 -22 96 -25 110 -6 6 6 13 33 15 59 7 66 -16 110 -98 183 -153 136 -268
201 -373 211 l-71 7 -41 -44z"/>
<path d="M2822 3855 c-78 -38 -83 -48 -58 -107 8 -18 22 -51 32 -73 9 -22 38
-68 65 -101 26 -34 64 -94 83 -133 20 -38 59 -104 88 -146 29 -42 59 -88 67
-103 7 -15 28 -45 45 -67 18 -22 54 -73 80 -113 72 -109 106 -142 147 -141 68
1 102 22 130 78 38 76 43 127 18 203 -37 110 -72 167 -272 438 -100 135 -281
300 -329 300 -13 0 -56 -16 -96 -35z"/>
<path d="M2500 3690 c-21 -13 -20 -125 3 -225 10 -44 21 -91 23 -105 48 -270
130 -602 165 -670 33 -63 77 -77 129 -40 43 31 67 77 79 155 20 133 7 232 -54
395 -7 19 -25 68 -40 107 -14 40 -37 87 -49 105 -33 50 -112 201 -119 229 -4
14 -17 30 -29 36 -35 17 -91 24 -108 13z"/>
<path d="M2144 3618 c-46 -88 -55 -154 -58 -398 -2 -129 1 -273 6 -320 5 -47
10 -98 10 -115 0 -16 4 -44 9 -62 24 -78 136 -31 169 71 7 21 25 59 41 85 42
69 57 226 35 377 -9 60 -20 153 -26 207 -5 54 -15 107 -21 119 -10 19 -106 68
-134 68 -8 0 -22 -14 -31 -32z"/>
</g>
</svg>
