<svg xmlns="http://www.w3.org/2000/svg" width="576" height="1440" viewBox="0 0 576 1440" version="1.1"><path d="" stroke="none" fill="#080404" fill-rule="evenodd"/><path d="M 301.500 169.617 C 300.400 169.884, 298.600 170.510, 297.500 171.007 C 296.400 171.504, 293.925 172.604, 292 173.451 C 285.640 176.251, 279.594 180.259, 275.850 184.156 C 271.968 188.196, 270.009 188.826, 267.821 186.738 C 267.095 186.044, 265.375 184.979, 264 184.371 C 262.625 183.763, 259.517 181.608, 257.093 179.581 C 245.291 169.712, 220.567 170.907, 217.373 181.500 C 217.041 182.600, 215.958 184.400, 214.965 185.500 C 213.972 186.600, 212.415 189.525, 211.505 192 C 210.594 194.475, 209.456 197.246, 208.974 198.157 C 207.943 200.110, 205.940 215.606, 206.345 218.500 C 207.049 223.531, 208.290 228, 208.981 228 C 209.399 228, 210.296 229.985, 210.975 232.411 C 213.845 242.660, 231.128 250.786, 246.799 249.254 C 252.098 248.736, 252.098 248.736, 251.932 253.118 C 251.840 255.528, 252.156 282.475, 252.633 313 C 253.571 373.068, 253.571 372.322, 252.617 435 C 252.261 458.375, 251.555 478.625, 251.047 480 C 250.540 481.375, 249.865 489.475, 249.548 498 C 247.601 550.354, 248.648 545.189, 240.129 544.494 C 232.651 543.885, 221 548.545, 221 552.146 C 221 552.616, 220.335 553, 219.523 553 C 218.711 553, 217.256 554.237, 216.290 555.750 C 215.325 557.263, 213.843 559.016, 212.996 559.646 C 207.408 563.810, 203.967 585.263, 208.365 588.514 C 209.120 589.072, 210.038 590.896, 210.405 592.567 C 211.352 596.881, 216.805 602.572, 221.500 604.147 C 223.700 604.885, 225.725 605.749, 226 606.067 C 229.822 610.484, 252.726 610.436, 256 606.004 C 257.913 603.415, 262.881 603.245, 265.156 605.691 C 269.065 609.895, 275.402 613.798, 279.563 614.564 C 281.729 614.962, 283.796 615.746, 284.158 616.304 C 285.325 618.106, 305.199 618.457, 309.088 616.746 C 310.965 615.920, 314.525 614.502, 317 613.595 C 339.699 605.280, 336.388 558.498, 312.470 549.588 C 309.736 548.570, 307.073 547.346, 306.550 546.869 C 306.028 546.391, 304.450 546, 303.044 546 C 299.039 546, 297.043 539.694, 295.448 522 C 295.076 517.875, 294.423 513.825, 293.997 513 C 293.004 511.075, 292.275 505.519, 290.980 490 C 290.406 483.125, 289.474 476.044, 288.908 474.264 C 287.892 471.063, 287.457 456.911, 286.643 400.500 C 286.236 372.258, 287.118 347.392, 288.870 337.727 C 289.360 335.025, 289.358 332.721, 288.865 332.417 C 288.378 332.115, 288.404 331.113, 288.925 330.139 C 289.790 328.524, 290.363 320.523, 291.512 294 C 293.432 249.725, 294.526 245.619, 305 243.417 C 320.474 240.162, 335.505 230.577, 339.106 221.668 C 339.810 219.925, 340.848 218.187, 341.412 217.805 C 342.642 216.973, 342.423 204.238, 341.152 202.628 C 340.662 202.008, 339.972 199.893, 339.619 197.928 C 339.265 195.964, 337.857 192.839, 336.488 190.984 C 335.120 189.129, 333.999 187.136, 333.999 186.556 C 333.988 178.553, 311.961 167.072, 301.500 169.617 M 260.723 630.611 C 260.387 630.947, 257.326 631.413, 253.921 631.648 C 233.826 633.030, 229.863 659.824, 248.903 665.577 C 256.966 668.013, 282 666.029, 282 662.953 C 282 662.429, 282.520 662, 283.156 662 C 285.265 662, 291 656.928, 291 655.063 C 291 654.054, 291.639 651.996, 292.421 650.490 C 296.869 641.917, 267.706 623.628, 260.723 630.611 M 291 675.941 C 287.877 676.576, 280.389 680.907, 279.022 682.869 C 275.875 687.388, 260.843 691.443, 259.127 688.237 C 258.549 687.158, 256.597 685.676, 254.788 684.944 C 252.980 684.212, 251.179 683.138, 250.786 682.557 C 250.351 681.912, 245.364 681.500, 238 681.500 C 230.636 681.500, 225.649 681.912, 225.214 682.557 C 224.821 683.138, 222.925 684.229, 221 684.981 C 219.075 685.732, 216.695 687.169, 215.711 688.174 C 214.727 689.178, 213.534 690, 213.059 690 C 212.584 690, 211.764 691.238, 211.237 692.751 C 210.709 694.264, 209.090 697.252, 207.639 699.391 C 203.970 704.797, 204.963 724, 208.911 724 C 209.369 724, 210.028 725.773, 210.375 727.941 C 211.230 733.292, 224.915 746, 229.822 746 C 230.415 746, 231.260 746.565, 231.700 747.255 C 232.773 748.940, 239.375 751.177, 241.203 750.475 C 242.339 750.040, 242.954 751.534, 243.963 757.180 C 244.677 761.176, 245.617 765.133, 246.051 765.973 C 246.486 766.813, 247.330 771.325, 247.928 776 C 248.526 780.675, 249.504 787.425, 250.101 791 C 253.785 813.042, 249.719 937.162, 245.202 940.564 C 244.312 941.234, 243.458 944.932, 242.894 950.564 C 242.401 955.479, 241.603 960.648, 241.121 962.051 C 240.638 963.454, 240.344 966.267, 240.467 968.301 C 240.591 970.335, 240.362 972, 239.959 972 C 238.886 972, 238.032 978.969, 237.507 992 C 236.404 1019.428, 235.616 1022.326, 229.904 1019.960 C 224.283 1017.632, 207.585 1019.442, 202.084 1022.976 C 196.142 1026.793, 191.047 1031.215, 191.021 1032.576 C 191.009 1033.167, 189.939 1034.648, 188.642 1035.867 C 186.060 1038.292, 181.425 1047.123, 177.812 1056.500 C 172.978 1069.045, 174.807 1087.413, 182.042 1099 C 182.558 1099.825, 183.846 1102.095, 184.905 1104.045 C 188.230 1110.164, 195.164 1115.752, 200.406 1116.538 C 202.946 1116.919, 205.271 1117.629, 205.571 1118.115 C 206.433 1119.509, 213.549 1119.148, 216.669 1117.552 C 218.226 1116.755, 223.100 1114.479, 227.500 1112.494 C 231.900 1110.509, 236.383 1108.398, 237.462 1107.802 C 238.541 1107.206, 241.466 1105.633, 243.962 1104.306 C 246.458 1102.979, 249.738 1100.708, 251.250 1099.260 C 252.763 1097.811, 254 1097.159, 254 1097.811 C 254 1101.954, 266.227 1114.226, 272.261 1116.138 C 274.042 1116.703, 276.400 1117.561, 277.500 1118.044 C 283.492 1120.679, 297.888 1121.714, 304.192 1119.964 C 308.057 1118.890, 322 1106.114, 322 1103.646 C 322 1103.269, 323.086 1101.241, 324.412 1099.139 C 331.554 1087.827, 332.415 1058.116, 325.807 1051.024 C 324.813 1049.957, 324 1048.684, 324 1048.195 C 324 1043.545, 315.220 1036.064, 307.927 1034.503 C 306.042 1034.099, 303.868 1033.259, 303.097 1032.635 C 302.325 1032.011, 297.375 1031.275, 292.097 1031 C 281.906 1030.469, 279.330 1008.877, 282.970 954.500 C 283.596 945.150, 284.300 934.575, 284.535 931 C 284.770 927.425, 285.183 912.761, 285.453 898.413 C 285.723 884.065, 286.191 869.890, 286.494 866.913 C 286.796 863.936, 287.227 852.950, 287.452 842.500 C 287.677 832.050, 288.141 814.950, 288.483 804.500 C 288.825 794.050, 289.053 784.825, 288.989 784 C 288.442 776.972, 288.106 752.849, 288.520 750.375 C 289.031 747.325, 289.150 747.263, 293.499 747.753 C 303.763 748.910, 321.223 733.529, 323.597 721.239 C 323.943 719.445, 324.626 717.731, 325.113 717.430 C 326.340 716.672, 326.236 698.264, 325 697.500 C 324.450 697.160, 324 695.664, 324 694.176 C 324 690.549, 317.275 681.452, 313.500 679.974 C 300.186 674.757, 298.401 674.437, 291 675.941" stroke="none" fill="#040404" fill-rule="evenodd"/></svg>