<?xml version="1.0" standalone="no"?>
<!DOCTYPE svg PUBLIC "-//W3C//DTD SVG 20010904//EN"
 "http://www.w3.org/TR/2001/REC-SVG-20010904/DTD/svg10.dtd">
<svg version="1.0" xmlns="http://www.w3.org/2000/svg"
 width="576.000000pt" height="360.000000pt" viewBox="0 0 576.000000 360.000000"
 preserveAspectRatio="xMidYMid meet">

<g transform="translate(0.000000,360.000000) scale(0.100000,-0.100000)"
fill="#000000" stroke="none">
<path d="M1825 2188 c-22 -11 -54 -32 -72 -47 -18 -14 -47 -37 -64 -50 -33
-26 -91 -109 -104 -151 -4 -14 -18 -41 -31 -60 -12 -19 -28 -55 -35 -80 -7
-25 -16 -49 -19 -55 -22 -30 -42 -122 -38 -169 5 -66 71 -199 113 -229 65 -47
181 -76 330 -84 61 -3 118 -9 127 -14 9 -5 77 -9 150 -9 73 0 189 -5 258 -10
144 -10 462 1 482 17 7 6 37 16 65 23 29 6 71 25 93 41 22 16 44 29 49 29 16
0 57 64 70 110 7 25 18 57 23 72 10 27 5 61 -28 183 -29 108 -132 200 -241
215 -73 11 -269 55 -306 69 -16 6 -43 11 -61 11 -36 0 -121 26 -151 47 -11 7
-26 13 -35 13 -30 0 -172 50 -196 69 -32 25 -119 54 -158 53 -16 0 -39 6 -50
14 -31 21 -123 17 -171 -8z"/>
<path d="M3375 1826 c-13 -29 -14 -58 -9 -134 6 -89 4 -102 -20 -162 -14 -36
-27 -81 -28 -100 -3 -34 -1 -36 57 -65 l60 -30 280 0 c271 0 282 1 330 23 76
35 95 57 95 111 0 84 -99 234 -183 277 -58 31 -139 54 -225 64 -48 6 -105 18
-127 26 -22 9 -79 18 -127 21 l-88 6 -15 -37z"/>
<path d="M4249 1628 c-12 -28 -13 -50 -4 -136 11 -109 18 -120 65 -123 81 -4
234 4 288 17 103 23 140 58 121 112 -22 64 -78 89 -319 142 -122 27 -133 26
-151 -12z"/>
</g>
</svg>
