<?xml version="1.0" encoding="UTF-8"?>
<svg version="1.1" xmlns="http://www.w3.org/2000/svg" width="900" height="900">
<path d="M0 0 C1.01835937 0.00515625 2.03671875 0.0103125 3.0859375 0.015625 C11.1549469 0.10056194 11.1549469 0.10056194 15.125 1.25 C14.70847923 4.66547029 14.16147286 7.17988093 12.5625 10.25390625 C10.36182343 15.27541998 11.05559928 20.27203904 11.4375 25.625 C11.55867508 27.76156814 11.67714687 29.89829124 11.79296875 32.03515625 C11.88263916 33.60934326 11.88263916 33.60934326 11.97412109 35.21533203 C12.18709999 39.49903372 12.25142346 43.77408933 12.25 48.0625 C12.25427002 48.75456543 12.25854004 49.44663086 12.26293945 50.15966797 C12.25497927 53.14435734 12.07760527 55.3921842 11.125 58.25 C22.43383732 59.66514011 22.43383732 59.66514011 33.74829102 61.03442383 C35.27542955 61.21792534 36.80214061 61.40502481 38.32836914 61.59594727 C52.18006629 63.32459341 65.75758826 63.96667212 79.67578125 62.46875 C82.82870399 62.18714924 85.93721938 62.23893659 89.09960938 62.28198242 C92.69823739 62.24394011 96.27393349 62.00848616 99.86328125 61.76953125 C105.87020169 61.39156744 111.8608184 61.15590957 117.87890625 61.07421875 C118.60374207 61.06230499 119.32857788 61.05039124 120.07537842 61.03811646 C123.016335 60.98985932 125.95687231 60.94193783 128.89819336 60.92407227 C137.16219574 60.86471099 144.97564766 60.36590742 153.02734375 58.39453125 C153.69802383 58.2318425 154.36870392 58.06915375 155.05970764 57.90153503 C158.57521647 56.95479254 160.74244406 56.00478415 163.125 53.25 C163.785 53.25 164.445 53.25 165.125 53.25 C165.2075 52.425 165.29 51.6 165.375 50.75 C166.28647531 46.49644856 167.62605343 42.83401547 170.125 39.25 C172.875 37.75 172.875 37.75 175.125 37.25 C175.125 36.59 175.125 35.93 175.125 35.25 C177.37012262 34.12743869 178.63956649 34.11586238 181.125 34.125 C182.176875 34.12113281 182.176875 34.12113281 183.25 34.1171875 C185.125 34.25 185.125 34.25 187.125 35.25 C187.125 35.91 187.125 36.57 187.125 37.25 C187.99125 37.5903125 187.99125 37.5903125 188.875 37.9375 C193.68642899 40.74416691 195.36010309 44.44021197 196.875 49.625 C198.87062321 57.94195481 198.87062321 57.94195481 198.125 62.25 C196.39910461 64.88073375 194.35229481 67.0391226 192.125 69.25 C191.403125 70.054375 190.68125 70.85875 189.9375 71.6875 C188.125 73.25 188.125 73.25 185.125 73.25 C185.125 73.91 185.125 74.57 185.125 75.25 C184.30257813 75.49234375 183.48015625 75.7346875 182.6328125 75.984375 C177.33376761 77.57531226 172.10831076 79.17854437 167 81.3125 C157.09837316 85.39188137 146.70842921 87.19017056 136.1875 88.9375 C134.26647461 89.27491211 134.26647461 89.27491211 132.30664062 89.61914062 C125.37084823 90.78158367 118.81248961 91.39324498 111.78491211 91.24194336 C107.98364144 91.25345708 104.59555531 91.90045945 100.875 92.6875 C90.49499893 94.84478938 80.77323473 95.41241769 70.1875 95.41796875 C68.73836231 95.42118826 67.28922493 95.42455284 65.84008789 95.42805481 C62.8142827 95.43401592 59.78850595 95.43589771 56.76269531 95.43530273 C52.90290387 95.43520101 49.04329592 95.44887782 45.18354797 95.46607494 C42.194531 95.47723833 39.2055579 95.47922065 36.21652222 95.47869301 C34.79409144 95.47986564 33.37165926 95.48424672 31.94924927 95.49202538 C24.68945575 95.52802836 18.0701464 95.48228949 11.125 93.25 C11.08741577 94.91832886 11.08741577 94.91832886 11.04907227 96.62036133 C10.95312118 100.8456905 10.85340187 105.07092454 10.75268555 109.29614258 C10.71003062 111.10634092 10.66832606 112.91656196 10.62768555 114.72680664 C10.39314793 125.14201404 10.06944386 135.53958988 9.45753479 145.94026184 C9.10316088 152.04717682 9.01510927 158.13274916 9.125 164.25 C21.62438842 165.84616508 34.11931009 166.92919114 46.6875 167.8125 C49.34426978 168.00117934 52.00094236 168.19102455 54.65745544 168.38328552 C56.29016011 168.501276 57.92301542 168.61720897 59.55604553 168.73060608 C63.0881394 168.98428078 66.59356704 169.28951118 70.10473633 169.75268555 C77.19246603 170.67777976 84.34332583 170.95825871 91.4765625 171.34472656 C93.31522818 171.44766594 95.1534825 171.55825804 96.99121094 171.67675781 C107.11013971 172.32713061 116.2593763 172.6473052 126.13720703 170.03027344 C129.37121713 169.18569946 132.56388678 168.69322781 135.875 168.25 C137.59589844 168.01023437 137.59589844 168.01023437 139.3515625 167.765625 C141.33351899 167.49479865 143.31572462 167.2255064 145.29980469 166.97070312 C159.62213973 165.09858244 169.86931318 160.65598161 181.9453125 152.5703125 C184.125 151.25 184.125 151.25 186.125 151.25 C186.228125 150.3425 186.33125 149.435 186.4375 148.5 C187.50320044 143.46214338 187.50320044 143.46214338 190.125 141.25 C194.2300608 139.77660681 197.60651182 139.55044491 201.609375 141.39453125 C205.42449714 143.85690583 208.83542846 146.25404967 211.125 150.25 C211.78935397 154.2804141 211.3157914 155.92784402 209.21875 159.46875 C208.37289292 160.57704563 207.50728736 161.67048047 206.625 162.75 C205.93833252 163.60754883 205.93833252 163.60754883 205.23779297 164.48242188 C198.41925054 172.77582144 191.06779455 176.41917267 181.125 180.25 C173.24627961 183.39521862 165.68307315 186.89784499 158.15625 190.796875 C153.39897486 193.07742442 148.90265123 193.53425792 143.68359375 193.96875 C142.59921776 194.06295227 142.59921776 194.06295227 141.49293518 194.15905762 C139.18303939 194.35906824 136.87279344 194.55464164 134.5625 194.75 C132.28383726 194.94583202 130.00525296 195.14255984 127.72666931 195.33930969 C126.24315271 195.46696582 124.75956083 195.59375024 123.27589417 195.71965027 C119.23037533 196.06343801 115.18926764 196.43621946 111.1484375 196.83203125 C106.19765129 197.28282693 101.28264097 197.44187042 96.3125 197.4375 C95.4150708 197.43741943 94.5176416 197.43733887 93.59301758 197.43725586 C86.19396207 197.37622345 78.90722398 196.77164762 71.54931641 196.03637695 C50.45854363 193.9612397 29.29284774 194.1137173 8.125 194.25 C8.02575821 204.91620184 8.01848678 215.48235448 8.8984375 226.1171875 C9.39048867 232.92106745 9.34007156 239.65453545 8.625 246.4375 C7.83321548 254.0207884 8.04466469 261.63599794 8.125 269.25 C9.07890625 269.29898437 10.0328125 269.34796875 11.015625 269.3984375 C15.23378739 269.61671436 19.45163418 269.84074461 23.66943359 270.06591797 C26.15930283 270.19855619 28.64920787 270.33036791 31.13916016 270.46142578 C35.65547865 270.69969061 40.17156019 270.94216501 44.6875 271.1875 C45.46467377 271.22967651 46.24184753 271.27185303 47.04257202 271.31530762 C58.29060974 271.93064958 69.51880261 272.66538807 80.74243164 273.64038086 C89.16064657 274.34741693 97.52080003 274.63726559 105.9375 273.75 C110.94344584 273.31109006 115.85416401 273.25226324 120.87109375 273.33300781 C129.33246995 273.45916564 137.55372077 273.21683389 145.9375 272 C146.730354 271.89059082 147.52320801 271.78118164 148.34008789 271.66845703 C153.34002077 270.86223838 157.56398153 269.34125077 162.13647461 267.17724609 C165.06254083 265.81282626 168.08605818 264.95120006 171.1796875 264.05859375 C173.21689393 263.36850736 173.21689393 263.36850736 174.59765625 261.67578125 C176.66167107 259.7490155 177.91143765 259.90853172 180.6875 260 C181.47253906 260.01546875 182.25757813 260.0309375 183.06640625 260.046875 C185.125 260.25 185.125 260.25 187.125 261.25 C187.125 261.91 187.125 262.57 187.125 263.25 C187.723125 263.476875 188.32125 263.70375 188.9375 263.9375 C191.84030466 265.6791828 192.63246726 267.20004179 194.125 270.25 C194.44082031 270.89066406 194.75664063 271.53132813 195.08203125 272.19140625 C197.4814953 277.89906755 197.12251266 282.01028178 195.2109375 287.859375 C193.33856883 291.98128013 190.72768065 293.40414077 186.875 295.4375 C181.38804567 297.0586456 176.11786977 297.46648994 170.4375 296.8125 C160.990375 295.72745502 152.0304234 296.002896 142.6875 297.625 C118.67649982 301.61807662 93.8635812 301.64187184 69.60400391 300.70800781 C56.83943679 300.21757255 44.10043115 300.18366021 31.32763672 300.28759766 C23.85935263 300.33623271 16.54878713 300.19083639 9.125 299.25 C9.26131836 300.21873047 9.26131836 300.21873047 9.40039062 301.20703125 C13.1671849 329.44832985 12.42431367 357.82153576 12.125 386.25 C13.78378174 386.24214478 13.78378174 386.24214478 15.47607422 386.23413086 C52.87519018 386.07285958 52.87519018 386.07285958 68.76147461 386.82397461 C75.94818114 387.15368199 83.13187803 387.35550702 90.32421875 387.50390625 C91.32536713 387.52464706 92.3265155 387.54538788 93.35800171 387.5667572 C98.3990543 387.66944671 103.44017398 387.7659128 108.48144531 387.85717773 C125.00407424 388.17455917 125.00407424 388.17455917 133.06811523 389.03613281 C139.41676738 389.69624193 145.87831415 389.60063478 152.125 388.25 C152.125 387.26 152.125 386.27 152.125 385.25 C155.755 384.26 159.385 383.27 163.125 382.25 C163.16625 381.156875 163.2075 380.06375 163.25 378.9375 C164.125 375.25 164.125 375.25 166.625 373.25 C172.40573058 371.59836269 177.45929029 372.32643073 182.875 374.875 C185.97077992 376.54879826 185.97077992 376.54879826 188.8125 375.6875 C189.575625 375.543125 190.33875 375.39875 191.125 375.25 C193.4375 377.0625 193.4375 377.0625 195.125 379.25 C195.125 379.91 195.125 380.57 195.125 381.25 C196.0325 381.353125 196.94 381.45625 197.875 381.5625 C201.20467451 382.26685422 202.82077196 382.76852364 205.125 385.25 C205.609375 387.54296875 205.609375 387.54296875 205.125 390.25 C203.10386081 392.19617112 201.269287 393.71659925 199 395.3125 C198.43023438 395.73337891 197.86046875 396.15425781 197.2734375 396.58789062 C194.51274165 398.6113552 191.70671448 400.52437538 188.84375 402.40234375 C186.02700414 404.1758377 186.02700414 404.1758377 183.75 406.75 C177.68067194 412.53031244 172.30427598 413.46083105 164.10546875 413.84765625 C160.20519229 414.1458241 156.50650473 415.00040189 152.71127319 415.92268372 C130.91916828 421.20248628 109.64244431 422.74857307 87.24121094 422.64111328 C83.89969801 422.62762296 80.55957033 422.63424617 77.21817207 422.65145969 C64.21251102 422.70802827 51.67611754 422.49112065 38.90283203 419.94921875 C33.27891008 418.90831708 27.7066184 418.69202766 22 418.5625 C20.93652344 418.52833984 19.87304688 418.49417969 18.77734375 418.45898438 C16.2266685 418.37855768 13.67624855 418.30879501 11.125 418.25 C11.125 420.56 11.125 422.87 11.125 425.25 C1.76507796 428.36997401 -12.91277798 429.49614639 -21.875 425.25 C-21.875 424.59 -21.875 423.93 -21.875 423.25 C-22.535 423.25 -23.195 423.25 -23.875 423.25 C-24.205 420.94 -24.535 418.63 -24.875 416.25 C-28.15676202 415.52000609 -31.20333034 415.12100324 -34.56323242 415.10473633 C-35.46575241 415.09835648 -36.3682724 415.09197662 -37.29814148 415.08540344 C-38.74964348 415.08373421 -38.74964348 415.08373421 -40.23046875 415.08203125 C-41.24611404 415.07870285 -42.26175934 415.07537445 -43.30818176 415.07194519 C-45.46253 415.06688525 -47.61688606 415.06453658 -49.77124023 415.06469727 C-53.00583601 415.06253783 -56.24007514 415.04444787 -59.47460938 415.02539062 C-70.45753374 414.99595556 -81.18188365 415.365522 -92.07739258 416.7668457 C-96.92477283 417.38355837 -101.74462912 417.7374848 -106.625 417.9375 C-107.57600586 417.9772998 -108.52701172 418.01709961 -109.50683594 418.05810547 C-119.71655801 418.38893212 -129.91673898 418.13854347 -140.125 417.875 C-140.9759021 417.85376068 -141.8268042 417.83252136 -142.70349121 417.81063843 C-145.14109718 417.74717444 -147.57833563 417.67612837 -150.015625 417.6015625 C-150.75002808 417.58165756 -151.48443115 417.56175262 -152.24108887 417.54124451 C-155.60804439 417.42743102 -158.62186628 417.06338885 -161.875 416.25 C-163.87401131 416.23684746 -165.87371353 416.28147987 -167.87109375 416.36328125 C-203.38816996 417.39063469 -203.38816996 417.39063469 -213.55419922 408.8371582 C-214.875 407.25 -214.875 407.25 -215.875 404.25 C-217.85746398 403.21567096 -219.85913316 402.21761608 -221.875 401.25 C-223.8125 400 -223.8125 400 -224.875 398.25 C-224.5625 394.5625 -224.5625 394.5625 -223.875 391.25 C-221.85677083 391.34765625 -219.83854167 391.4453125 -217.8203125 391.54296875 C-217.17835938 391.44628906 -216.53640625 391.34960938 -215.875 391.25 C-215.215 390.26 -214.555 389.27 -213.875 388.25 C-211.7109375 387.30078125 -211.7109375 387.30078125 -209.25 386.5625 C-208.43273437 386.31113281 -207.61546875 386.05976562 -206.7734375 385.80078125 C-205.83371094 385.52814453 -205.83371094 385.52814453 -204.875 385.25 C-204.7925 384.5075 -204.71 383.765 -204.625 383 C-203.72062401 379.68395471 -202.5035474 378.41468609 -199.875 376.25 C-194.92704892 374.60068297 -190.59265863 374.7111267 -185.6875 376.25 C-182.79932308 378.3038147 -182.27121153 379.21872134 -180.75 382.25 C-178.59675806 385.9105113 -176.82734887 387.07209922 -172.75 388.25 C-158.20530964 390.97603024 -143.01964098 389.05403521 -128.3984375 387.96875 C-106.32835565 386.35898716 -106.32835565 386.35898716 -99.32958984 387.75927734 C-94.70833982 388.41572346 -90.19539261 388.34059335 -85.53515625 388.26953125 C-84.53600693 388.25540695 -83.5368576 388.24128265 -82.50743103 388.22673035 C-80.39349163 388.19368573 -78.27960157 388.15734204 -76.16577148 388.11791992 C-72.97962386 388.06322314 -69.79389681 388.03425933 -66.60742188 388.00585938 C-47.55766544 387.80576108 -47.55766544 387.80576108 -29.875 381.25 C-29.545 380.59 -29.215 379.93 -28.875 379.25 C-28.215 379.25 -27.555 379.25 -26.875 379.25 C-27.0503125 378.37730469 -27.225625 377.50460937 -27.40625 376.60546875 C-28.26177368 370.62132159 -27.67578406 364.57498129 -27.375 358.5625 C-27.25506879 356.14218616 -27.14026048 353.72161154 -27.03125 351.30078125 C-26.95100586 349.70230347 -26.95100586 349.70230347 -26.86914062 348.0715332 C-26.75758438 345.37781938 -26.75758438 345.37781938 -27.36827087 343.34873962 C-27.91054883 341.10276605 -27.99531426 339.15684832 -27.98852539 336.84863281 C-27.98844986 335.9880426 -27.98837433 335.12745239 -27.98829651 334.24078369 C-27.98313522 333.32085632 -27.97797394 332.40092896 -27.97265625 331.453125 C-27.97053383 330.02996979 -27.97053383 330.02996979 -27.96836853 328.57806396 C-27.96277742 325.55201038 -27.95022652 322.52603117 -27.9375 319.5 C-27.93248385 317.44661565 -27.92792115 315.39323014 -27.92382812 313.33984375 C-27.91281089 308.30986724 -27.89555233 303.27994622 -27.875 298.25 C-28.90794189 298.31058594 -29.94088379 298.37117188 -31.00512695 298.43359375 C-34.88710688 298.66043362 -38.76931974 298.88305583 -42.65161133 299.10449219 C-44.32257477 299.2003711 -45.99347554 299.29734957 -47.66430664 299.39550781 C-59.66545894 300.09955626 -71.49686288 300.43808103 -83.51513672 299.89453125 C-99.93419157 299.16094027 -116.332762 299.18339897 -132.76513672 299.28710938 C-134.19611694 299.29345398 -134.19611694 299.29345398 -135.65600586 299.29992676 C-137.4538832 299.30807663 -139.25174835 299.32042874 -141.04956055 299.33776855 C-145.45297721 299.3554837 -149.53525235 299.10634371 -153.875 298.25 C-157.86618851 298.02383265 -161.74746244 298.04954888 -165.6875 298.75 C-174.58615997 300.14586823 -186.80384649 300.76250855 -194.875 296.25 C-194.875 295.59 -194.875 294.93 -194.875 294.25 C-195.535 294.25 -196.195 294.25 -196.875 294.25 C-199.75767413 285.24164335 -200.44900733 275.1346802 -196.875 266.25 C-194.875 263.25 -194.875 263.25 -193.02734375 262.59765625 C-186.93602955 261.81341298 -181.98268307 262.65410473 -176.875 266.25 C-176.4874353 267.24894287 -176.4874353 267.24894287 -176.09204102 268.26806641 C-175.0310188 270.48795116 -175.0310188 270.48795116 -172.51513672 270.96362305 C-171.53818848 271.06199463 -170.56124023 271.16036621 -169.5546875 271.26171875 C-168.47034424 271.37926514 -167.38600098 271.49681152 -166.26879883 271.61791992 C-165.10759521 271.72338135 -163.9463916 271.82884277 -162.75 271.9375 C-161.56237061 272.05778564 -160.37474121 272.17807129 -159.15112305 272.30200195 C-155.7273758 272.64034271 -152.30235718 272.95073192 -148.875 273.25 C-148.07562012 273.32347656 -147.27624023 273.39695312 -146.45263672 273.47265625 C-126.57317732 275.25276502 -103.97722549 276.33683266 -84.421875 271.78515625 C-81.11198687 271.08967362 -77.79217879 270.67775523 -74.4375 270.25 C-69.12666728 269.57076963 -63.88285274 268.76311911 -58.6328125 267.71484375 C-47.71713913 265.8749498 -38.2709623 266.25 -26.875 266.25 C-26.875 242.16 -26.875 218.07 -26.875 193.25 C-33.145 194.24 -39.415 195.23 -45.875 196.25 C-49.20718745 196.51479408 -52.42557683 196.74713213 -55.75 196.8125 C-60.87052479 196.93773023 -65.79535883 197.35165517 -70.85546875 198.1796875 C-78.9735232 199.49269354 -87.12191347 200.14270698 -95.3125 200.8125 C-97.58878937 201.00092093 -99.86494428 201.19069038 -102.1408844 201.38328552 C-104.18669119 201.55610834 -106.2328623 201.72460259 -108.27905273 201.89282227 C-111.77760762 202.19184289 -111.77760762 202.19184289 -114.81323242 202.78222656 C-118.70505128 203.37681431 -122.49857666 203.41230152 -126.4296875 203.41796875 C-127.24889679 203.42129715 -128.06810608 203.42462555 -128.91213989 203.42805481 C-130.64519697 203.43310263 -132.3782637 203.4354638 -134.11132812 203.43530273 C-136.70720444 203.43746436 -139.30263764 203.45557351 -141.8984375 203.47460938 C-168.02584183 203.56732173 -168.02584183 203.56732173 -179.875 198.25 C-182.06738798 197.62634911 -182.06738798 197.62634911 -184.06640625 197.28515625 C-195.31663283 194.86905125 -195.31663283 194.86905125 -199.3828125 190.64453125 C-202.78269144 184.53265585 -203.5224416 179.53644939 -201.7109375 172.796875 C-201.43507812 171.95640625 -201.15921875 171.1159375 -200.875 170.25 C-200.66101563 169.47140625 -200.44703125 168.6928125 -200.2265625 167.890625 C-199.21578761 164.63236242 -198.1494935 162.50161904 -195.625 160.1875 C-191.96621422 158.94018667 -189.59280995 159.28612335 -185.875 160.25 C-183.9375 161.6875 -183.9375 161.6875 -182.875 163.25 C-182.875 163.91 -182.875 164.57 -182.875 165.25 C-181.885 165.58 -180.895 165.91 -179.875 166.25 C-178.90433594 167.70986328 -178.90433594 167.70986328 -177.9140625 169.19921875 C-175.43690307 172.30448189 -173.34325421 172.85478279 -169.4609375 173.45703125 C-167.39342099 173.68572713 -165.32269145 173.88678296 -163.25 174.0625 C-161.17428164 174.27542688 -159.09875035 174.49018766 -157.0234375 174.70703125 C-156.10739746 174.78928955 -155.19135742 174.87154785 -154.24755859 174.95629883 C-151.875 175.25 -151.875 175.25 -148.875 176.25 C-124.11987813 178.49573349 -99.37631473 177.00430804 -74.875 173.25 C-73.15643569 172.99105868 -71.43784647 172.7322827 -69.71923828 172.47363281 C-64.84340134 171.73681628 -59.97063226 170.98172499 -55.09927368 170.21588135 C-53.12146186 169.90608281 -51.14308489 169.59987035 -49.16415405 169.29730225 C-46.36253667 168.86675531 -43.5639847 168.41992587 -40.765625 167.96875 C-39.48746666 167.7765538 -39.48746666 167.7765538 -38.18348694 167.58047485 C-37.39622726 167.45014862 -36.60896759 167.31982239 -35.79785156 167.18554688 C-34.76606781 167.02258118 -34.76606781 167.02258118 -33.71343994 166.85632324 C-31.32572678 166.06884798 -30.33830124 165.30350022 -28.875 163.25 C-28.44624137 160.65140464 -28.44624137 160.65140464 -28.55029297 157.68383789 C-28.55374725 156.54157242 -28.55720154 155.39930695 -28.5607605 154.22242737 C-28.58869186 152.36629066 -28.58869186 152.36629066 -28.6171875 150.47265625 C-28.62730115 148.5209149 -28.63740972 146.56917351 -28.64723396 144.61743069 C-28.66479067 141.875942 -28.69611385 139.13467293 -28.72729492 136.39331055 C-28.77921601 131.63499372 -28.81234634 126.87653168 -28.84133911 122.11802673 C-28.85812755 119.58799638 -28.88110798 117.05799678 -28.91134644 114.52809143 C-28.97374018 107.04338509 -28.63934798 99.69640218 -27.875 92.25 C-28.92816406 92.4665625 -29.98132813 92.683125 -31.06640625 92.90625 C-39.58769173 94.57927465 -47.50954767 95.55765048 -56.21484375 95.2578125 C-59.96196886 95.24981437 -63.5545241 95.58490066 -67.2746582 95.98730469 C-89.8583443 98.26878495 -114.5420057 99.11372618 -137.0625 95.9375 C-137.89861816 95.81987305 -138.73473633 95.70224609 -139.59619141 95.58105469 C-144.03538164 94.85099228 -147.06966098 93.74099495 -150.875 91.25 C-153.12559359 90.34384703 -155.39876452 89.49246871 -157.6875 88.6875 C-158.925 88.25050781 -160.1625 87.81351562 -161.4375 87.36328125 C-164.0546235 86.51569012 -166.49610721 85.86878376 -169.1875 85.375 C-174.2582424 83.82799385 -178.10060456 80.95449923 -181.875 77.25 C-181.875 76.59 -181.875 75.93 -181.875 75.25 C-182.535 75.25 -183.195 75.25 -183.875 75.25 C-184.69337442 73.83671871 -185.50446219 72.41921654 -186.3125 71 C-186.76496094 70.21109375 -187.21742188 69.4221875 -187.68359375 68.609375 C-190.38449569 63.26070361 -190.88588966 57.05570223 -189.34375 51.25 C-187.83817092 47.45332232 -186.10318211 44.72265013 -182.875 42.25 C-180.06884848 41.87525632 -177.72738827 41.73366086 -174.9375 41.8125 C-174.23431641 41.80541016 -173.53113281 41.79832031 -172.80664062 41.79101562 C-168.36732732 41.84510285 -165.36746354 42.45466225 -161.875 45.25 C-161.875 45.91 -161.875 46.57 -161.875 47.25 C-161.215 47.25 -160.555 47.25 -159.875 47.25 C-159.875 47.91 -159.875 48.57 -159.875 49.25 C-159.215 49.25 -158.555 49.25 -157.875 49.25 C-157.81505859 50.47976562 -157.81505859 50.47976562 -157.75390625 51.734375 C-157.35374429 57.9390723 -157.35374429 57.9390723 -154.0546875 62.8671875 C-151.64527547 63.95016364 -149.45219005 64.64829318 -146.875 65.25 C-146.24343994 65.4157251 -145.61187988 65.5814502 -144.96118164 65.75219727 C-138.79738671 67.28123812 -132.76972833 67.70761712 -126.4375 67.9375 C-125.46490234 67.98455078 -124.49230469 68.03160156 -123.49023438 68.08007812 C-115.65407458 68.39938724 -108.14794485 68.08755884 -100.50390625 66.25 C-93.98885405 64.70390983 -87.33176061 64.48622135 -80.66992188 64.0390625 C-74.82324848 63.60899648 -69.52354252 62.80610607 -63.875 61.25 C-62.02487684 60.93369672 -60.17065615 60.64006449 -58.3125 60.375 C-50.20171606 59.07479799 -41.77453673 57.27495304 -34.171875 54.1328125 C-31.03285177 52.92631718 -28.20296193 53.11949169 -24.875 53.25 C-24.96458984 52.6415625 -25.05417969 52.033125 -25.14648438 51.40625 C-26.18246588 42.86725092 -25.34410729 34.73414789 -24.375 26.25 C-24.13928803 24.14401715 -23.90679736 22.03784172 -23.68200684 19.93066406 C-23.47973823 18.04019935 -23.26654854 16.15091247 -23.05273438 14.26171875 C-22.68494309 11.20089214 -22.68494309 11.20089214 -23.875 8.25 C-23.5625 5.75 -23.5625 5.75 -21.875 3.25 C-14.8371211 0.00680331 -7.60833194 -0.15768564 0 0 Z " fill="#000000" transform="translate(454.875,147.75)"/>
<path d="M0 0 C1.83297874 1.14172828 3.5676072 1.85618268 5.59375 2.5859375 C9.53992578 4.48313739 10.8120604 6.31948402 12.84375 10.1484375 C13.59375 12.5234375 13.59375 12.5234375 13.84375 14.1484375 C14.50375 14.1484375 15.16375 14.1484375 15.84375 14.1484375 C16.82668267 16.39685841 17.80519466 18.64703297 18.78125 20.8984375 C19.05904297 21.53265625 19.33683594 22.166875 19.62304688 22.8203125 C26.49434511 38.71536385 22.78082489 57.05834211 17.65625 72.9609375 C15.97272078 78.6178537 15.47529445 83.79115919 15.46875 89.6484375 C15.46645386 90.77922729 15.46645386 90.77922729 15.46411133 91.93286133 C15.55367776 96.40968158 16.35550346 99.89630453 17.84375 104.1484375 C20.880203 121.6376181 22.16228191 145.26692378 11.63671875 160.30078125 C3.94108232 169.52342585 -4.06345798 173.42973098 -15.8671875 174.8671875 C-25.92408492 175.72715973 -34.41719614 174.78457238 -44.15625 172.1484375 C-45.67045883 171.75737048 -47.18478874 171.36677211 -48.69921875 170.9765625 C-50.28950265 170.5563497 -51.87935061 170.13448355 -53.46875 169.7109375 C-54.20947754 169.51798096 -54.95020508 169.32502441 -55.71337891 169.1262207 C-60.90406201 167.70101971 -65.4029914 165.67813784 -70.15625 163.1484375 C-70.15625 162.4884375 -70.15625 161.8284375 -70.15625 161.1484375 C-70.836875 161.04144531 -71.5175 160.93445313 -72.21875 160.82421875 C-75.72989436 160.01646878 -78.84143591 158.74687669 -82.15625 157.3359375 C-83.3525 156.83449219 -84.54875 156.33304688 -85.78125 155.81640625 C-91.10141275 153.18711285 -95.14973054 149.49837291 -99.15625 145.1484375 C-99.15625 144.4884375 -99.15625 143.8284375 -99.15625 143.1484375 C-99.94 142.8390625 -100.72375 142.5296875 -101.53125 142.2109375 C-104.15625 141.1484375 -104.15625 141.1484375 -106.15625 140.1484375 C-106.15625 139.4884375 -106.15625 138.8284375 -106.15625 138.1484375 C-107.0225 137.8803125 -107.88875 137.6121875 -108.78125 137.3359375 C-115.06236628 135.1259151 -119.39513415 132.28080471 -124.2265625 127.76953125 C-126.12238932 126.17688321 -127.90391273 125.15448148 -130.15625 124.1484375 C-130.15625 123.4884375 -130.15625 122.8284375 -130.15625 122.1484375 C-131.06375 122.0865625 -131.97125 122.0246875 -132.90625 121.9609375 C-136.95816401 120.947959 -137.82809762 119.5202444 -140.15625 116.1484375 C-142.83188064 112.6326771 -146.58709006 111.78738493 -150.65625 110.5859375 C-151.37095459 110.37050293 -152.08565918 110.15506836 -152.82202148 109.93310547 C-164.88373037 106.15220321 -164.88373037 106.15220321 -177.15625 107.1484375 C-182.81017681 110.4800563 -187.65046738 114.37760884 -192.15625 119.1484375 C-194.2390865 120.84074216 -196.2545861 122.20390915 -198.59375 123.5234375 C-201.33360706 125.13007975 -201.33360706 125.13007975 -203.84375 127.8359375 C-204.606875 128.5990625 -205.37 129.3621875 -206.15625 130.1484375 C-206.81625 130.1484375 -207.47625 130.1484375 -208.15625 130.1484375 C-208.15625 130.8084375 -208.15625 131.4684375 -208.15625 132.1484375 C-211.15625 134.1484375 -211.15625 134.1484375 -214.15625 134.1484375 C-214.15625 134.8084375 -214.15625 135.4684375 -214.15625 136.1484375 C-216.38671875 137.76953125 -216.38671875 137.76953125 -219.34375 139.5859375 C-220.30667969 140.18277344 -221.26960937 140.77960938 -222.26171875 141.39453125 C-223.69451172 142.26271484 -223.69451172 142.26271484 -225.15625 143.1484375 C-226.02378906 143.67824219 -226.89132812 144.20804688 -227.78515625 144.75390625 C-229.7959818 145.93654994 -231.82194691 146.98128595 -233.90625 148.0234375 C-237.3229097 149.77271173 -237.3229097 149.77271173 -237.96875 152.6484375 C-238.030625 153.4734375 -238.0925 154.2984375 -238.15625 155.1484375 C-239.07604639 157.6282345 -239.60446604 158.85108808 -241.96435547 160.12280273 C-242.68510254 160.33622314 -243.40584961 160.54964355 -244.1484375 160.76953125 C-244.95635742 161.00913574 -245.76427734 161.24874023 -246.59667969 161.49560547 C-249.91295747 162.34143977 -253.2446232 163.02907742 -256.60351562 163.68237305 C-268.25071131 165.98144112 -278.56248804 169.96405321 -289.3125 174.94140625 C-301.13849687 180.41559114 -309.69935326 179.71226491 -322.15625 176.1484375 C-330.56536801 172.87822494 -336.01343313 167.31181304 -339.81640625 159.19140625 C-342.85285823 151.00348599 -343.47078584 141.91658703 -344.68408203 133.32080078 C-345.39442749 128.54819017 -346.27864121 123.81796833 -347.21875 119.0859375 C-347.44425537 117.90161133 -347.44425537 117.90161133 -347.67431641 116.69335938 C-349.16219671 109.27153755 -351.15913868 103.00711974 -356.15625 97.1484375 C-356.15625 96.4884375 -356.15625 95.8284375 -356.15625 95.1484375 C-357.14625 94.8184375 -358.13625 94.4884375 -359.15625 94.1484375 C-363.29749144 88.81011845 -365.83202519 82.99983894 -367.41796875 76.47265625 C-368.05639024 74.06142097 -368.05639024 74.06142097 -369.6730957 71.98364258 C-371.52576758 68.44206586 -371.62387504 65.36499466 -371.625 61.4609375 C-371.63261353 60.72198242 -371.64022705 59.98302734 -371.64807129 59.22167969 C-371.65884969 57.65840006 -371.66173456 56.09504856 -371.65722656 54.53173828 C-371.65626401 52.18263264 -371.69769658 49.83690746 -371.7421875 47.48828125 C-371.8308712 36.61358592 -370.51030834 27.18544747 -363.953125 18.09375 C-360.01187103 15.35248676 -355.88708753 13.70043734 -351.40625 12.0234375 C-350.5503125 11.68957031 -349.694375 11.35570312 -348.8125 11.01171875 C-312.86478666 -2.8771705 -271.43952441 -4.29609787 -235.71875 10.8359375 C-227.72087508 14.08084904 -219.1910864 14.79115252 -210.67236328 15.7253418 C-208.15625 16.1484375 -208.15625 16.1484375 -205.03637695 17.16699219 C-200.17628028 18.59846484 -195.28531075 18.48452558 -190.25390625 18.52734375 C-189.21737411 18.54433823 -188.18084198 18.5613327 -187.11289978 18.57884216 C-183.8149111 18.631729 -180.516932 18.67213536 -177.21875 18.7109375 C-173.92420347 18.75506412 -170.62974705 18.80195354 -167.33531189 18.85374451 C-165.29075439 18.88534976 -163.24611862 18.91234411 -161.20143127 18.93397522 C-155.76426948 19.01218655 -150.5420319 19.41263349 -145.15625 20.1484375 C-141.51026583 20.35939126 -137.87035875 20.37844238 -134.21875 20.3984375 C-133.28095703 20.4190625 -132.34316406 20.4396875 -131.37695312 20.4609375 C-125.92573768 20.49124308 -121.48559968 19.90680479 -116.38305664 17.98632812 C-114.05392984 17.10993703 -111.71643258 16.40312475 -109.32421875 15.71875 C-101.00435959 13.30650268 -92.96147902 10.80215211 -85.01953125 7.30859375 C-78.18115282 4.53779103 -70.9433475 2.67758511 -63.71875 1.2109375 C-59.69435984 0.37779203 -55.91085978 -0.93823464 -52.03125 -2.2890625 C-33.81053612 -8.53550874 -16.72205425 -11.30794652 0 0 Z M-34.59375 130.6484375 C-36.75555653 134.10732795 -36.9485821 137.23338478 -36.15625 141.1484375 C-34.36261089 143.9584721 -33.13744065 145.65784218 -30.15625 147.1484375 C-26.14847707 147.52652929 -23.80310719 147.49251047 -20.21875 145.5859375 C-17.88363199 143.23500341 -17.88363199 143.23500341 -17.53125 139.7734375 C-18.34493326 135.05407459 -19.8017756 133.5029119 -23.15625 130.1484375 C-27.05427998 128.19942251 -30.91676508 128.38567755 -34.59375 130.6484375 Z M-310.15625 137.1484375 C-312.04927197 140.17727265 -313.15625 142.12561241 -313.15625 145.7109375 C-311.69210248 149.27979709 -310.31927424 150.88913447 -307.15625 153.1484375 C-302.78288265 154.1400301 -298.91068488 154.18845385 -294.98828125 151.86328125 C-291.28947624 148.75933561 -289.33885718 146.76146757 -288.78125 141.8359375 C-288.82569541 138.00637256 -288.82569541 138.00637256 -291.53125 135.2734375 C-295.4601963 132.09286192 -297.94904521 131.74108174 -302.90234375 131.8046875 C-306.58800158 132.36679823 -307.99990419 134.23102846 -310.15625 137.1484375 Z " fill="#000000" transform="translate(616.15625,688.8515625)"/>
<path d="M0 0 C0.73098907 0.00187317 1.46197815 0.00374634 2.21511841 0.00567627 C3.75657737 0.01237657 5.29801992 0.02625082 6.83935547 0.046875 C9.18082777 0.07793287 11.52162358 0.08784294 13.86328125 0.09375 C15.36719558 0.10292595 16.87110316 0.1133036 18.375 0.125 C19.06689423 0.12924988 19.75878845 0.13349976 20.47164917 0.13787842 C24.83735231 0.20104297 29.0051633 0.70461185 33.3203125 1.328125 C36.27754385 1.5397359 39.23663426 1.64898133 42.19921875 1.7578125 C43.93223558 1.82946901 45.66522634 1.90175807 47.39819336 1.97460938 C48.29472626 2.01158936 49.19125916 2.04856934 50.11495972 2.08666992 C64.90578514 2.70898146 79.4512375 3.61459742 94.07910156 5.98876953 C97.75011917 6.54462078 101.43926148 6.89602295 105.1328125 7.265625 C112.09745151 7.98867862 118.97707072 9.05162022 125.8828125 10.203125 C135.98150703 11.88492726 146.09291522 13.19780762 156.2578125 14.390625 C202.82328201 19.91058582 202.82328201 19.91058582 215.3203125 27.328125 C218.34755285 31.86898552 217.1538265 36.09425782 216.3203125 41.328125 C215.9284375 42.441875 215.5365625 43.555625 215.1328125 44.703125 C214.03886855 47.3684608 214.03886855 47.3684608 215.1953125 50.203125 C215.5665625 50.904375 215.9378125 51.605625 216.3203125 52.328125 C215.5571875 53.029375 214.7940625 53.730625 214.0078125 54.453125 C211.15946246 57.13988662 211.15946246 57.13988662 210.0703125 60.578125 C209.4928125 61.485625 208.9153125 62.393125 208.3203125 63.328125 C200.8885512 64.83722755 194.23834454 63.8608053 186.8203125 62.640625 C185.63687256 62.45709473 184.45343262 62.27356445 183.23413086 62.08447266 C177.47419245 61.18499748 171.72493426 60.23145362 165.98046875 59.23828125 C163.94817954 58.89168427 161.91562887 58.54661666 159.8828125 58.203125 C158.88282227 58.03264648 157.88283203 57.86216797 156.85253906 57.68652344 C147.43023332 56.1694993 137.9782823 55.57913915 128.44360352 55.27490234 C119.11219979 54.82987754 119.11219979 54.82987754 116.0859375 51.88671875 C114.3203125 49.328125 114.3203125 49.328125 113.3203125 47.328125 C104.72794193 44.59605169 95.70460329 43.88121515 86.77368164 43.09985352 C81.72300938 42.63714184 76.8996742 41.89883259 71.9453125 40.765625 C64.08083799 39.07251961 56.32230978 38.84635312 48.30078125 38.56640625 C37.61716547 38.18088774 26.96917573 37.24448313 16.3203125 36.328125 C15.00611328 36.21710449 13.69191406 36.10608398 12.33789062 35.99169922 C8.91474513 35.70000006 5.49331179 35.39236497 2.07250977 35.07440186 C0.11345744 34.89458517 -1.84659143 34.72573263 -3.80664062 34.55712891 C-5.00740234 34.44159668 -6.20816406 34.32606445 -7.4453125 34.20703125 C-8.50524414 34.1097876 -9.56517578 34.01254395 -10.65722656 33.91235352 C-14.2935272 33.20947246 -17.99629565 32.01151685 -20.6796875 29.328125 C-21.77795085 20.57802682 -19.48989642 12.67941623 -14.7421875 5.328125 C-10.13401709 0.85959612 -6.30107647 -0.11178814 0 0 Z M178.3203125 54.328125 C178.3203125 54.658125 178.3203125 54.988125 178.3203125 55.328125 C180.9603125 55.328125 183.6003125 55.328125 186.3203125 55.328125 C186.3203125 54.998125 186.3203125 54.668125 186.3203125 54.328125 C183.6803125 54.328125 181.0403125 54.328125 178.3203125 54.328125 Z M187.3203125 55.328125 C190.97203883 57.59662166 194.3330243 57.7177201 198.5703125 57.953125 C200.46523438 58.06527344 200.46523438 58.06527344 202.3984375 58.1796875 C203.36265625 58.22867188 204.326875 58.27765625 205.3203125 58.328125 C205.3203125 57.668125 205.3203125 57.008125 205.3203125 56.328125 C201.32235358 55.37192767 197.61227328 55.2241658 193.5078125 55.265625 C192.34636719 55.27464844 191.18492187 55.28367188 189.98828125 55.29296875 C189.10785156 55.30457031 188.22742188 55.31617188 187.3203125 55.328125 Z " fill="#000000" transform="translate(522.6796875,85.671875)"/>
<path d="M0 0 C0.92941406 -0.020625 1.85882813 -0.04125 2.81640625 -0.0625 C8.62036928 -0.09533713 12.5977638 0.55540078 17.75 3.25 C18.513125 3.62125 19.27625 3.9925 20.0625 4.375 C23.60235443 8.30817159 23.66662134 13.97847542 24 19.0625 C23.76308454 22.08317213 23.45968028 23.78046182 21.75 26.25 C19.26154317 27.49422842 17.40874675 27.42976003 14.625 27.5625 C7.38473424 28.10942655 0.64682284 29.86366939 -6.33544922 31.74462891 C-10.03850358 32.72209926 -13.77468991 33.56999285 -17.50390625 34.44140625 C-20.37434315 35.22140645 -20.37434315 35.22140645 -23.45361328 36.67236328 C-27.13446115 38.26689819 -30.84631228 39.31295061 -34.73828125 40.30078125 C-36.17263231 40.67039498 -37.60695754 41.04010892 -39.04125977 41.40991211 C-39.78030548 41.5982663 -40.5193512 41.78662048 -41.28079224 41.98068237 C-56.44369577 45.84047316 -56.44369577 45.84047316 -71.3125 50.6875 C-77.62960358 52.96586118 -83.61869223 53.97330238 -90.296875 54.56860352 C-94.41236636 54.95514932 -97.95241048 55.65985653 -101.8125 57.125 C-107.70583759 59.31071586 -113.62916993 60.27236603 -119.8125 61.25 C-127.49138394 62.46509256 -135.13715184 63.73021277 -142.75 65.3125 C-143.86870483 65.53776367 -143.86870483 65.53776367 -145.01000977 65.76757812 C-148.57524479 66.52353286 -151.89931187 67.44743773 -155.2890625 68.79296875 C-163.89347675 72.15756956 -176.32921483 74.00601493 -185.25 71.25 C-189.36072349 67.85865312 -190.57535759 63.4025814 -191.25 58.25 C-191.99954143 46.0855672 -191.99954143 46.0855672 -189.25 42.25 C-187.33203125 41.30859375 -187.33203125 41.30859375 -185.0625 40.6875 C-182.25399827 39.89561072 -179.73813499 39.01950373 -177.06640625 37.81640625 C-172.64233517 35.88381392 -168.06774046 34.82995899 -163.375 33.75 C-162.44155762 33.52989258 -161.50811523 33.30978516 -160.54638672 33.08300781 C-155.17078156 31.83987043 -149.82834921 30.8269423 -144.375 30 C-135.34744493 28.5973255 -126.69321576 25.81949236 -117.96237183 23.20150757 C-107.24480447 19.99820285 -96.56383731 17.47010663 -85.52416992 15.63769531 C-79.54889853 14.61904464 -73.71895863 13.60805545 -68.0625 11.375 C-58.43917639 8.06084519 -48.26948468 6.83950617 -38.25 5.25 C-37.1141748 5.06904785 -35.97834961 4.8880957 -34.80810547 4.70166016 C-33.6532666 4.51780762 -32.49842773 4.33395508 -31.30859375 4.14453125 C-30.17188232 3.96341797 -29.0351709 3.78230469 -27.86401367 3.59570312 C-25.65513338 3.24559103 -23.44567243 2.89911905 -21.2355957 2.55664062 C-20.23488037 2.40001953 -19.23416504 2.24339844 -18.203125 2.08203125 C-17.31786133 1.94514893 -16.43259766 1.8082666 -15.52050781 1.66723633 C-10.11456558 0.67382178 -5.57051624 0.03039845 0 0 Z " fill="#000000" transform="translate(374.25,83.75)"/>
<path d="M0 0 C1.33332645 0.01007142 2.66666045 0.01918977 4 0.02734375 C7.20853441 0.050594 10.41666204 0.08326657 13.625 0.125 C14.27334654 1.394553 14.91857815 2.66569706 15.5625 3.9375 C16.10197266 4.99904297 16.10197266 4.99904297 16.65234375 6.08203125 C18.97522258 10.96100967 18.8085492 15.272378 18.8125 20.5625 C18.82474609 21.42166016 18.83699219 22.28082031 18.84960938 23.16601562 C18.85154297 23.99681641 18.85347656 24.82761719 18.85546875 25.68359375 C18.85957764 26.43954834 18.86368652 27.19550293 18.86791992 27.97436523 C18.47135963 31.48521912 17.30948656 33.54746447 14.625 35.8125 C7.7075821 38.83887033 0.61708784 38.13035455 -6.71875 37.31640625 C-9.94926124 37.08361941 -12.90536214 37.41904402 -16.1015625 37.86328125 C-26.50349162 39.06075419 -26.50349162 39.06075419 -30.375 37.125 C-30.96923828 35.37841797 -30.96923828 35.37841797 -31.4453125 33.1171875 C-31.61933594 32.29476562 -31.79335938 31.47234375 -31.97265625 30.625 C-32.14667969 29.75875 -32.32070313 28.8925 -32.5 28 C-32.68175781 27.15695313 -32.86351562 26.31390625 -33.05078125 25.4453125 C-34.61200192 17.88571766 -35.6967511 10.97845357 -31.38916016 4.15771484 C-24.83337898 -2.45845899 -8.68564315 -0.11498306 0 0 Z " fill="#000000" transform="translate(456.375,31.875)"/>
<path d="M0 0 C2.50644241 0.92691078 4.08291645 1.96886945 6.0703125 3.765625 C7.31565331 7.27723799 7.64653952 10.95443861 8.1328125 14.640625 C8.29974609 15.63449219 8.46667969 16.62835937 8.63867188 17.65234375 C9.65238173 24.96868446 9.65238173 24.96868446 6.81640625 28.8515625 C-0.528674 33.97117747 -7.14350505 34.52761208 -15.9296875 34.765625 C-16.90583008 34.79285645 -17.88197266 34.82008789 -18.88769531 34.84814453 C-22.23506969 34.92765342 -25.58160916 34.97648164 -28.9296875 35.015625 C-30.02845215 35.03713623 -31.1272168 35.05864746 -32.25927734 35.08081055 C-33.3055127 35.08508057 -34.35174805 35.08935059 -35.4296875 35.09375 C-36.368125 35.1030957 -37.3065625 35.11244141 -38.2734375 35.12207031 C-41.74761337 34.65586657 -44.43611844 33.25919406 -46.9296875 30.765625 C-47.86167891 25.64623557 -48.0836787 20.69538631 -48.0546875 15.515625 C-48.05855469 14.80921875 -48.06242187 14.1028125 -48.06640625 13.375 C-48.06046067 10.23573196 -47.92960234 7.76536951 -46.9296875 4.765625 C-39.40283513 0.8704789 -30.18210452 1.06107782 -21.9296875 0.640625 C-19.32512363 0.49814339 -16.721219 0.34754819 -14.1171875 0.1953125 C-12.97636719 0.13585449 -11.83554687 0.07639648 -10.66015625 0.01513672 C-2.93161019 -0.69110202 -2.93161019 -0.69110202 0 0 Z " fill="#000000" transform="translate(464.9296875,651.234375)"/>
<path d="M0 0 C0.74636719 0.07605469 1.49273437 0.15210937 2.26171875 0.23046875 C4.91859513 0.98451557 5.71940674 1.5275491 7.3125 3.8125 C8.17321775 6.56161522 8.88089157 9.19835367 9.5 12 C9.67724609 12.73025391 9.85449219 13.46050781 10.03710938 14.21289062 C11.17762002 19.18446019 11.47991338 23.71505117 11.3125 28.8125 C8.4057737 30.4123035 5.82822406 31.2367906 2.56640625 31.8125 C1.65270264 31.9765332 0.73899902 32.14056641 -0.20239258 32.30957031 C-1.16685303 32.47553711 -2.13131348 32.64150391 -3.125 32.8125 C-4.11330811 32.98620117 -5.10161621 33.15990234 -6.11987305 33.33886719 C-8.97457323 33.83720673 -11.83080225 34.32576466 -14.6875 34.8125 C-15.39874023 34.93689453 -16.10998047 35.06128906 -16.84277344 35.18945312 C-34.49823944 38.27200704 -34.49823944 38.27200704 -39.125 35.1875 C-43.77024418 28.12672884 -43.77313387 19.35092904 -42.1875 11.26171875 C-41.1611487 8.07186556 -40.25434449 6.16486279 -37.375 4.375 C-30.6630292 2.9701689 -24.15380262 2.52608779 -17.3203125 2.29492188 C-11.36638737 2.02930064 -5.85096982 -0.70456705 0 0 Z " fill="#000000" transform="translate(463.6875,85.1875)"/>
<path d="M0 0 C0.721875 0.13921875 1.44375 0.2784375 2.1875 0.421875 C4.66924791 1.55577706 4.98165306 2.75210618 6 5.25 C6.48080325 8.57191336 6.46167696 11.89673371 6.5 15.25 C6.54125 16.15234375 6.5825 17.0546875 6.625 17.984375 C6.67639234 22.32702811 6.66864852 24.48134491 3.75390625 27.83203125 C-1.22408947 30.34381002 -7.12556866 29.88936853 -12.5625 29.9375 C-14.89718064 29.987515 -17.23181843 30.03957525 -19.56640625 30.09375 C-20.67902832 30.11566406 -21.79165039 30.13757813 -22.93798828 30.16015625 C-27.61240462 30.29731023 -32.2283211 30.73770469 -36.875 31.26171875 C-39 31.25 -39 31.25 -41 29.25 C-42.38038051 21.77193864 -43.72805517 10.76540167 -39.640625 4 C-36.11547589 0.23984095 -30.29243745 0.6655573 -25.4375 0.1875 C-24.58091797 0.09662109 -23.72433594 0.00574219 -22.84179688 -0.08789062 C-15.3246543 -0.84017051 -7.45229882 -1.58909313 0 0 Z " fill="#000000" transform="translate(461,598.75)"/>
</svg>
