<svg xmlns="http://www.w3.org/2000/svg" width="576" height="1080" viewBox="0 0 576 1080" version="1.1"><path d="" stroke="none" fill="#080404" fill-rule="evenodd"/><path d="M 407.314 95.099 C 373.089 100.812, 356.088 156.710, 383.076 174.795 C 394.217 182.261, 389.113 209.680, 371.393 237.553 C 368.615 241.924, 364.612 248.425, 362.498 252 C 360.384 255.575, 356.955 261.200, 354.877 264.500 C 352.800 267.800, 350.122 272.750, 348.927 275.500 C 347.732 278.250, 346.189 281.175, 345.498 282 C 344.808 282.825, 342.320 287.100, 339.970 291.500 C 337.620 295.900, 334.720 301.075, 333.526 303 C 332.331 304.925, 331.070 307.271, 330.722 308.214 C 330.375 309.157, 326.470 316.252, 322.045 323.982 C 317.620 331.712, 314 338.211, 314 338.424 C 314 338.637, 311.826 343.466, 309.169 349.156 C 306.512 354.845, 303.506 361.525, 302.490 364 C 301.473 366.475, 299.199 370.075, 297.437 372 C 295.675 373.925, 293.033 377.439, 291.567 379.808 C 287.342 386.636, 283.273 389.675, 276.502 391.058 C 273.201 391.732, 270.072 392.670, 269.550 393.142 C 269.027 393.614, 267.902 394.003, 267.050 394.006 C 266.197 394.010, 264.350 394.612, 262.945 395.346 C 261.540 396.079, 257.891 396.972, 254.836 397.332 C 221.107 401.296, 206.600 438.045, 228.913 463 C 234.494 469.242, 252.820 471.121, 264.212 466.619 C 269.663 464.465, 272 464.967, 272 468.290 C 272 469.585, 272.624 472.636, 273.386 475.072 C 274.149 477.507, 275.284 481.388, 275.910 483.695 C 276.982 487.650, 283.829 496, 286 496 C 286.507 496, 289.386 498.007, 292.398 500.460 C 310.957 515.576, 346 505.799, 346 485.505 C 346 484.638, 346.632 482.933, 347.405 481.715 C 349.343 478.660, 350.352 468.246, 349.544 459.627 C 348.842 452.132, 347.552 449.466, 339.566 439 C 337.678 436.525, 336.103 434.079, 336.066 433.564 C 336.030 433.050, 335.093 431.664, 333.985 430.484 C 332.128 428.508, 332.078 428.029, 333.342 424.419 C 334.098 422.264, 335.039 418.250, 335.434 415.500 C 336.703 406.660, 339.698 396.115, 343.172 388.250 C 344.205 385.912, 345.341 382.537, 345.697 380.750 C 346.053 378.962, 347.888 375.302, 349.774 372.615 C 351.660 369.929, 354.542 364.529, 356.177 360.615 C 357.812 356.702, 362.098 347.425, 365.702 340 C 374.674 321.514, 376.106 318.731, 377.538 317 C 378.685 315.614, 392 292.124, 392 291.488 C 392 290.921, 400.438 277.322, 405.024 270.500 C 407.611 266.650, 411.909 260.125, 414.575 256 C 420.071 247.495, 428.482 236.079, 436.202 226.647 C 440.069 221.922, 444.762 220.821, 458.235 221.479 C 482.273 222.653, 494.704 216.686, 506.824 198.156 C 513.121 188.528, 515.757 173.820, 512.680 165.477 C 511.873 163.290, 510.642 159.925, 509.945 158 C 506.723 149.101, 506.689 149.067, 495.387 143.347 C 479.039 135.072, 464.877 130.753, 459.072 132.271 C 457.098 132.787, 456.407 131.782, 453.656 124.387 C 445.952 103.678, 427.141 91.790, 407.314 95.099 M 199.500 493.741 C 194.030 495.147, 181 505.496, 181 508.435 C 181 508.782, 179.468 510.599, 177.595 512.472 C 166.731 523.335, 165.974 554.438, 176.452 559.410 C 178.145 560.214, 180.614 562.025, 181.939 563.435 C 183.264 564.846, 185.058 566.022, 185.924 566.048 C 198.334 566.426, 198.843 605.020, 186.735 627.500 C 186.142 628.600, 185.088 631.975, 184.392 635 C 181.962 645.563, 181.069 648.529, 179.097 652.587 C 178.005 654.835, 176.562 658.885, 175.891 661.587 C 175.220 664.289, 174.114 667.400, 173.432 668.500 C 172.750 669.600, 171.888 672.391, 171.516 674.702 C 171.145 677.013, 169.724 681.963, 168.358 685.702 C 166.993 689.441, 165.508 693.850, 165.057 695.500 C 164.606 697.150, 162.781 702.100, 161.001 706.500 C 159.221 710.900, 156.787 717.266, 155.591 720.646 C 154.396 724.026, 152.940 727.401, 152.355 728.146 C 151.771 728.891, 150.809 731.300, 150.218 733.500 C 147.496 743.629, 140.975 756.464, 135.203 763.054 C 133.062 765.499, 130.807 768.450, 130.194 769.611 C 128.408 772.990, 118.497 777.569, 115.745 776.286 C 102.629 770.172, 91.051 769.483, 84.422 774.423 C 79.768 777.891, 77 780.612, 77 781.718 C 77 782.158, 76.205 783.016, 75.233 783.623 C 74.261 784.230, 72.208 787.150, 70.670 790.113 C 69.132 793.076, 67.507 796.175, 67.058 797 C 56.755 815.946, 63.621 843.693, 80.143 849.880 C 85.594 851.921, 111.046 852.419, 117.280 850.607 C 125.120 848.328, 131.456 852.170, 140.893 864.927 C 142.264 866.780, 145.683 869.246, 148.893 870.698 C 151.977 872.093, 157.335 874.577, 160.799 876.218 C 185.271 887.807, 222.963 846.851, 209.884 822.880 C 206.501 816.680, 194.496 806, 190.909 806 C 184.618 806, 182.699 799.857, 184.035 784 C 184.614 777.125, 185.326 767.450, 185.616 762.500 C 186.099 754.263, 189.877 739.730, 193.094 733.728 C 193.617 732.754, 194.320 729.946, 194.657 727.489 C 194.993 725.032, 195.883 722.512, 196.634 721.888 C 197.385 721.265, 198 720.291, 198 719.724 C 198 719.158, 199.293 715.950, 200.873 712.597 C 202.452 709.244, 204.083 704.925, 204.497 703 C 204.910 701.075, 206.542 696.925, 208.124 693.779 C 209.706 690.632, 211 687.581, 211 686.999 C 211 686.418, 213.475 680.852, 216.500 674.631 C 219.525 668.410, 222 662.966, 222 662.533 C 222 661.528, 238.621 631.374, 241.120 627.846 C 242.154 626.386, 243 624.986, 243 624.734 C 243 618.232, 259.686 602.353, 265.960 602.885 C 275.640 603.705, 283.984 603.416, 285.181 602.219 C 285.852 601.548, 287.153 601, 288.073 601 C 292.423 601, 303.146 594.154, 310.299 586.810 C 312.879 584.161, 315.776 578.393, 316.464 574.535 C 316.853 572.354, 317.879 569.204, 318.745 567.535 C 324.115 557.177, 314.894 536.048, 302.615 530.578 C 293.245 526.404, 269.436 526.276, 260.644 530.354 C 253.519 533.658, 253.007 533.352, 250 524 C 248.771 520.178, 247.115 516.511, 246.321 515.851 C 245.526 515.192, 243.312 512.296, 241.401 509.417 C 238.025 504.331, 234.271 501, 231.916 501 C 231.281 501, 228.228 499.475, 225.131 497.612 C 216.154 492.210, 209.414 491.192, 199.500 493.741" stroke="none" fill="#040404" fill-rule="evenodd"/></svg>