<?xml version="1.0" standalone="no"?>
<!DOCTYPE svg PUBLIC "-//W3C//DTD SVG 20010904//EN"
 "http://www.w3.org/TR/2001/REC-SVG-20010904/DTD/svg10.dtd">
<svg version="1.0" xmlns="http://www.w3.org/2000/svg"
 width="576.000000pt" height="720.000000pt" viewBox="0 0 576.000000 720.000000"
 preserveAspectRatio="xMidYMid meet">

<g transform="translate(0.000000,720.000000) scale(0.100000,-0.100000)"
fill="#000000" stroke="none">
<path d="M2875 4204 c-75 -17 -122 -32 -210 -67 -107 -41 -152 -66 -193 -103
-14 -13 -28 -24 -32 -24 -12 0 -30 -52 -34 -100 -9 -94 56 -176 191 -240 45
-22 86 -40 90 -40 5 0 24 -8 43 -19 19 -10 51 -22 70 -26 19 -4 40 -11 45 -16
20 -16 162 -40 316 -54 185 -17 510 -21 556 -7 17 6 34 8 37 5 3 -3 20 -3 39
1 60 11 108 109 93 191 -4 19 -25 57 -46 84 -22 28 -40 55 -40 60 0 11 -143
161 -154 161 -4 0 -19 14 -33 31 -39 45 -130 87 -318 145 -47 15 -97 19 -230
21 -93 1 -179 -1 -190 -3z"/>
<path d="M2245 3666 c-57 -14 -206 -78 -244 -105 -39 -27 -221 -135 -267 -159
-53 -27 -114 -90 -114 -118 0 -37 45 -64 104 -64 61 0 176 18 191 29 5 5 28
14 50 20 22 7 49 16 60 21 11 5 42 18 68 29 71 30 216 129 264 181 39 41 43
50 43 97 0 80 -39 98 -155 69z"/>
<path d="M3554 3270 c-12 -4 -30 -20 -41 -33 -25 -32 -29 -140 -9 -212 8 -27
20 -81 27 -119 6 -38 26 -99 44 -135 18 -36 35 -90 38 -120 4 -30 15 -93 26
-140 11 -47 25 -122 32 -166 20 -145 44 -171 122 -137 49 22 56 30 67 76 5 17
18 63 30 101 27 90 42 252 31 336 -11 80 -117 388 -161 465 -45 80 -64 93
-130 93 -30 0 -65 -4 -76 -9z"/>
<path d="M2478 3187 c-26 -23 -59 -67 -74 -97 -15 -30 -37 -68 -49 -85 -26
-35 -184 -356 -215 -435 -36 -95 -80 -281 -80 -341 0 -83 14 -109 59 -109 63
0 140 65 276 235 73 90 182 296 223 420 36 107 44 294 17 363 -18 45 -66 92
-93 92 -9 0 -38 -19 -64 -43z"/>
<path d="M2940 3120 c-6 -11 -17 -20 -25 -20 -10 0 -15 -11 -15 -32 0 -18 -14
-103 -30 -188 -17 -85 -42 -216 -56 -290 -15 -74 -33 -166 -40 -205 -20 -99
-29 -303 -15 -337 20 -53 77 -29 164 68 20 23 37 45 37 48 0 4 16 28 35 53 19
25 35 50 35 55 0 6 8 22 19 36 24 35 115 272 132 342 7 30 13 100 12 156 0 87
-3 108 -26 158 -48 105 -121 176 -167 161 -10 -3 -21 -1 -25 5 -10 16 -23 12
-35 -10z"/>
</g>
</svg>
