<?xml version="1.0" encoding="UTF-8"?>
<!DOCTYPE svg PUBLIC "-//W3C//DTD SVG 1.1//EN" "http://www.w3.org/Graphics/SVG/1.1/DTD/svg11.dtd">
<svg xmlns="http://www.w3.org/2000/svg" version="1.1" width="576px" height="360px" style="shape-rendering:geometricPrecision; text-rendering:geometricPrecision; image-rendering:optimizeQuality; fill-rule:evenodd; clip-rule:evenodd" xmlns:xlink="http://www.w3.org/1999/xlink">
<g><path style="opacity:0.954" fill="#000000" d="M 380.5,159.5 C 391.521,158.608 402.188,160.108 412.5,164C 421.543,164.192 430.543,164.859 439.5,166C 443.468,171.928 448.134,177.261 453.5,182C 451.533,191.963 446.366,199.796 438,205.5C 437.667,208.833 437.333,212.167 437,215.5C 433.255,222.84 429.755,230.34 426.5,238C 420.957,240.135 415.291,241.802 409.5,243C 394.035,245.227 378.535,247.061 363,248.5C 350.456,248.076 337.956,247.409 325.5,246.5C 324.707,246.931 323.873,247.265 323,247.5C 319.197,246.539 315.364,245.706 311.5,245C 303.921,244.816 296.421,244.316 289,243.5C 280.737,244.966 273.07,242.966 266,237.5C 263.694,226.217 265.028,214.884 270,203.5C 274.572,196.456 281.072,192.289 289.5,191C 306.332,191.48 322.999,189.48 339.5,185C 341.275,183.561 343.275,182.561 345.5,182C 352.206,175.626 359.206,169.626 366.5,164C 371.251,162.392 375.917,160.892 380.5,159.5 Z M 437.5,193.5 C 436.341,187.138 434.341,181.138 431.5,175.5C 447.562,176.275 449.562,182.275 437.5,193.5 Z"/></g>
<g><path style="opacity:0.973" fill="#000000" d="M 242.5,188.5 C 247.267,188.191 251.934,188.691 256.5,190C 259,191.167 260.833,193 262,195.5C 262.315,199.442 261.815,203.276 260.5,207C 261.059,207.725 261.392,208.558 261.5,209.5C 258.76,218.163 256.76,226.663 255.5,235C 249.028,239.295 242.028,240.628 234.5,239C 230.969,240.606 227.302,241.772 223.5,242.5C 216.51,241.762 209.51,240.928 202.5,240C 200.453,238.927 198.453,237.761 196.5,236.5C 191.04,236.565 186.206,234.565 182,230.5C 181.593,227.318 181.093,224.151 180.5,221C 181.093,217.849 181.593,214.682 182,211.5C 184.265,209.278 186.432,206.945 188.5,204.5C 191.946,202.693 195.446,201.027 199,199.5C 214.038,198.551 228.538,194.884 242.5,188.5 Z"/></g>
<g><path style="opacity:0.924" fill="#000000" d="M 166.5,206.5 C 167.15,206.804 167.817,207.137 168.5,207.5C 169.478,213.55 171.145,219.383 173.5,225C 172.97,231.197 169.637,234.864 163.5,236C 157.358,235.559 151.524,235.726 146,236.5C 144.267,234.398 142.267,234.065 140,235.5C 133.964,234.654 128.298,232.654 123,229.5C 122.435,224.596 123.935,220.429 127.5,217C 132.191,215.94 136.858,214.774 141.5,213.5C 142.442,213.608 143.275,213.941 144,214.5C 151.559,211.704 159.059,209.038 166.5,206.5 Z"/></g>
</svg>
