<?xml version="1.0" encoding="UTF-8"?>
<!DOCTYPE svg PUBLIC "-//W3C//DTD SVG 1.1//EN" "http://www.w3.org/Graphics/SVG/1.1/DTD/svg11.dtd">
<svg xmlns="http://www.w3.org/2000/svg" version="1.1" width="1800px" height="600px" style="shape-rendering:geometricPrecision; text-rendering:geometricPrecision; image-rendering:optimizeQuality; fill-rule:evenodd; clip-rule:evenodd" xmlns:xlink="http://www.w3.org/1999/xlink">
<g><path style="opacity:0.886" fill="#000000" d="M 366.5,18.5 C 410.52,18.2259 454.52,18.8926 498.5,20.5C 498.5,21.5 498.5,22.5 498.5,23.5C 507.5,23.5 516.5,23.5 525.5,23.5C 525.5,24.5 525.5,25.5 525.5,26.5C 539.493,27.2872 553.493,27.9538 567.5,28.5C 567.5,29.5 567.5,30.5 567.5,31.5C 574.833,31.5 582.167,31.5 589.5,31.5C 589.5,32.5 589.5,33.5 589.5,34.5C 601.181,34.9578 612.848,35.6245 624.5,36.5C 624.5,37.5 624.5,38.5 624.5,39.5C 630.167,39.5 635.833,39.5 641.5,39.5C 641.5,40.5 641.5,41.5 641.5,42.5C 651.514,43.0018 661.514,43.6685 671.5,44.5C 671.5,45.5 671.5,46.5 671.5,47.5C 676.167,47.5 680.833,47.5 685.5,47.5C 685.5,48.5 685.5,49.5 685.5,50.5C 693.479,51.3683 701.479,52.035 709.5,52.5C 709.5,53.5 709.5,54.5 709.5,55.5C 713.167,55.5 716.833,55.5 720.5,55.5C 720.5,56.5 720.5,57.5 720.5,58.5C 728.861,58.8852 737.194,59.5519 745.5,60.5C 745.5,61.5 745.5,62.5 745.5,63.5C 750.167,63.5 754.833,63.5 759.5,63.5C 759.5,64.5 759.5,65.5 759.5,66.5C 769.486,67.3315 779.486,67.9982 789.5,68.5C 789.5,69.5 789.5,70.5 789.5,71.5C 795.167,71.5 800.833,71.5 806.5,71.5C 806.5,72.5 806.5,73.5 806.5,74.5C 821.135,75.7357 835.801,76.4023 850.5,76.5C 850.5,77.5 850.5,78.5 850.5,79.5C 885.167,79.5 919.833,79.5 954.5,79.5C 954.5,78.5 954.5,77.5 954.5,76.5C 970.846,76.0793 987.179,75.4126 1003.5,74.5C 1003.5,73.5 1003.5,72.5 1003.5,71.5C 1010.17,71.5 1016.83,71.5 1023.5,71.5C 1023.5,70.5 1023.5,69.5 1023.5,68.5C 1034.53,68.1813 1045.53,67.5146 1056.5,66.5C 1056.5,65.5 1056.5,64.5 1056.5,63.5C 1061.83,63.5 1067.17,63.5 1072.5,63.5C 1072.5,62.5 1072.5,61.5 1072.5,60.5C 1081.83,59.8333 1091.17,59.1667 1100.5,58.5C 1100.5,57.5 1100.5,56.5 1100.5,55.5C 1104.83,55.5 1109.17,55.5 1113.5,55.5C 1113.5,54.5 1113.5,53.5 1113.5,52.5C 1122.83,51.8333 1132.17,51.1667 1141.5,50.5C 1141.5,49.5 1141.5,48.5 1141.5,47.5C 1145.83,47.5 1150.17,47.5 1154.5,47.5C 1154.5,46.5 1154.5,45.5 1154.5,44.5C 1164.85,44.0663 1175.19,43.3996 1185.5,42.5C 1185.5,41.5 1185.5,40.5 1185.5,39.5C 1189.83,39.5 1194.17,39.5 1198.5,39.5C 1198.5,38.5 1198.5,37.5 1198.5,36.5C 1208.81,35.6004 1219.15,34.9337 1229.5,34.5C 1229.5,33.5 1229.5,32.5 1229.5,31.5C 1234.83,31.5 1240.17,31.5 1245.5,31.5C 1245.5,30.5 1245.5,29.5 1245.5,28.5C 1257.49,27.6941 1269.49,27.0274 1281.5,26.5C 1281.5,25.5 1281.5,24.5 1281.5,23.5C 1288.83,23.5 1296.17,23.5 1303.5,23.5C 1303.5,22.5 1303.5,21.5 1303.5,20.5C 1356.5,17.8582 1409.5,17.8582 1462.5,20.5C 1462.5,21.5 1462.5,22.5 1462.5,23.5C 1468.83,23.5 1475.17,23.5 1481.5,23.5C 1481.5,24.5 1481.5,25.5 1481.5,26.5C 1494.5,27.1005 1507.5,27.7671 1520.5,28.5C 1520.5,29.5 1520.5,30.5 1520.5,31.5C 1525.83,31.5 1531.17,31.5 1536.5,31.5C 1536.5,32.5 1536.5,33.5 1536.5,34.5C 1546.53,34.8562 1556.53,35.5228 1566.5,36.5C 1566.5,37.5 1566.5,38.5 1566.5,39.5C 1571.17,39.5 1575.83,39.5 1580.5,39.5C 1580.5,40.5 1580.5,41.5 1580.5,42.5C 1586.88,42.812 1593.21,43.4786 1599.5,44.5C 1599.5,45.5 1599.5,46.5 1599.5,47.5C 1603.17,47.5 1606.83,47.5 1610.5,47.5C 1610.5,48.5 1610.5,49.5 1610.5,50.5C 1617.2,50.93 1623.86,51.5966 1630.5,52.5C 1630.5,53.5 1630.5,54.5 1630.5,55.5C 1634.17,55.5 1637.83,55.5 1641.5,55.5C 1641.5,56.5 1641.5,57.5 1641.5,58.5C 1648.83,59.1667 1656.17,59.8333 1663.5,60.5C 1663.5,61.5 1663.5,62.5 1663.5,63.5C 1667.83,63.5 1672.17,63.5 1676.5,63.5C 1676.5,64.5 1676.5,65.5 1676.5,66.5C 1685.83,67.1667 1695.17,67.8333 1704.5,68.5C 1704.5,69.5 1704.5,70.5 1704.5,71.5C 1707.17,71.5 1709.83,71.5 1712.5,71.5C 1712.5,72.5 1712.5,73.5 1712.5,74.5C 1714.5,75.1667 1716.5,75.8333 1718.5,76.5C 1719.17,78.5 1719.83,80.5 1720.5,82.5C 1721.5,82.5 1722.5,82.5 1723.5,82.5C 1723.5,110.833 1723.5,139.167 1723.5,167.5C 1722.5,167.5 1721.5,167.5 1720.5,167.5C 1720.31,170.308 1719.64,172.975 1718.5,175.5C 1717.5,175.5 1716.5,175.5 1715.5,175.5C 1715.5,176.5 1715.5,177.5 1715.5,178.5C 1712.98,179.64 1710.31,180.307 1707.5,180.5C 1707.5,181.5 1707.5,182.5 1707.5,183.5C 1706.5,183.5 1705.5,183.5 1704.5,183.5C 1704.5,184.5 1704.5,185.5 1704.5,186.5C 1702.5,187.167 1700.5,187.833 1698.5,188.5C 1697.83,190.5 1697.17,192.5 1696.5,194.5C 1694.5,195.167 1692.5,195.833 1690.5,196.5C 1690.5,197.5 1690.5,198.5 1690.5,199.5C 1689.5,199.5 1688.5,199.5 1687.5,199.5C 1687.31,202.308 1686.64,204.975 1685.5,207.5C 1684.5,207.5 1683.5,207.5 1682.5,207.5C 1682.5,209.167 1682.5,210.833 1682.5,212.5C 1681.5,212.5 1680.5,212.5 1679.5,212.5C 1679.5,214.5 1679.5,216.5 1679.5,218.5C 1678.5,218.5 1677.5,218.5 1676.5,218.5C 1675.36,222.744 1674.69,227.077 1674.5,231.5C 1673.5,231.5 1672.5,231.5 1671.5,231.5C 1671.5,234.167 1671.5,236.833 1671.5,239.5C 1670.5,239.5 1669.5,239.5 1668.5,239.5C 1668.5,241.167 1668.5,242.833 1668.5,244.5C 1667.5,244.5 1666.5,244.5 1665.5,244.5C 1665.19,250.879 1664.52,257.212 1663.5,263.5C 1662.5,263.5 1661.5,263.5 1660.5,263.5C 1660.5,266.833 1660.5,270.167 1660.5,273.5C 1659.5,273.5 1658.5,273.5 1657.5,273.5C 1657.5,276.167 1657.5,278.833 1657.5,281.5C 1656.5,281.5 1655.5,281.5 1654.5,281.5C 1653.83,288.833 1653.17,296.167 1652.5,303.5C 1651.5,303.5 1650.5,303.5 1649.5,303.5C 1649.5,306.833 1649.5,310.167 1649.5,313.5C 1648.5,313.5 1647.5,313.5 1646.5,313.5C 1646.5,317.167 1646.5,320.833 1646.5,324.5C 1645.5,324.5 1644.5,324.5 1643.5,324.5C 1642.95,331.514 1642.29,338.514 1641.5,345.5C 1640.5,345.5 1639.5,345.5 1638.5,345.5C 1638.5,348.167 1638.5,350.833 1638.5,353.5C 1637.5,353.5 1636.5,353.5 1635.5,353.5C 1635.5,357.167 1635.5,360.833 1635.5,364.5C 1634.5,364.5 1633.5,364.5 1632.5,364.5C 1632.19,370.879 1631.52,377.212 1630.5,383.5C 1629.5,383.5 1628.5,383.5 1627.5,383.5C 1627.5,386.167 1627.5,388.833 1627.5,391.5C 1626.5,391.5 1625.5,391.5 1624.5,391.5C 1624.5,394.167 1624.5,396.833 1624.5,399.5C 1623.5,399.5 1622.5,399.5 1621.5,399.5C 1620.36,403.744 1619.69,408.077 1619.5,412.5C 1618.5,412.5 1617.5,412.5 1616.5,412.5C 1616.5,414.167 1616.5,415.833 1616.5,417.5C 1615.5,417.5 1614.5,417.5 1613.5,417.5C 1613.5,419.5 1613.5,421.5 1613.5,423.5C 1612.5,423.5 1611.5,423.5 1610.5,423.5C 1610.31,427.923 1609.64,432.256 1608.5,436.5C 1607.5,436.5 1606.5,436.5 1605.5,436.5C 1605.5,437.5 1605.5,438.5 1605.5,439.5C 1604.5,439.5 1603.5,439.5 1602.5,439.5C 1602.5,441.167 1602.5,442.833 1602.5,444.5C 1601.5,444.5 1600.5,444.5 1599.5,444.5C 1598.83,447.833 1598.17,451.167 1597.5,454.5C 1596.5,454.5 1595.5,454.5 1594.5,454.5C 1594.5,455.5 1594.5,456.5 1594.5,457.5C 1593.5,457.5 1592.5,457.5 1591.5,457.5C 1591.5,458.5 1591.5,459.5 1591.5,460.5C 1590.5,460.5 1589.5,460.5 1588.5,460.5C 1588.31,463.308 1587.64,465.975 1586.5,468.5C 1584.5,469.167 1582.5,469.833 1580.5,470.5C 1580.5,472.5 1580.5,474.5 1580.5,476.5C 1577.5,476.833 1575.83,478.5 1575.5,481.5C 1574.5,481.5 1573.5,481.5 1572.5,481.5C 1572.5,482.5 1572.5,483.5 1572.5,484.5C 1570.5,485.167 1568.5,485.833 1566.5,486.5C 1565.83,488.5 1565.17,490.5 1564.5,492.5C 1562.5,493.167 1560.5,493.833 1558.5,494.5C 1558.5,495.5 1558.5,496.5 1558.5,497.5C 1557.5,497.5 1556.5,497.5 1555.5,497.5C 1555.17,500.5 1553.5,502.167 1550.5,502.5C 1550.5,503.5 1550.5,504.5 1550.5,505.5C 1549.5,505.5 1548.5,505.5 1547.5,505.5C 1547.5,506.5 1547.5,507.5 1547.5,508.5C 1544.98,509.64 1542.31,510.307 1539.5,510.5C 1539.5,511.5 1539.5,512.5 1539.5,513.5C 1538.5,513.5 1537.5,513.5 1536.5,513.5C 1536.5,514.5 1536.5,515.5 1536.5,516.5C 1533.98,517.64 1531.31,518.307 1528.5,518.5C 1528.5,519.5 1528.5,520.5 1528.5,521.5C 1527.5,521.5 1526.5,521.5 1525.5,521.5C 1525.5,522.5 1525.5,523.5 1525.5,524.5C 1522.69,524.693 1520.02,525.36 1517.5,526.5C 1517.5,527.5 1517.5,528.5 1517.5,529.5C 1515.83,529.5 1514.17,529.5 1512.5,529.5C 1512.5,530.5 1512.5,531.5 1512.5,532.5C 1509.66,533.776 1506.66,534.442 1503.5,534.5C 1503.5,535.5 1503.5,536.5 1503.5,537.5C 1501.83,537.5 1500.17,537.5 1498.5,537.5C 1498.5,538.5 1498.5,539.5 1498.5,540.5C 1494.79,540.961 1491.12,541.627 1487.5,542.5C 1487.5,543.5 1487.5,544.5 1487.5,545.5C 1485.5,545.5 1483.5,545.5 1481.5,545.5C 1481.5,546.5 1481.5,547.5 1481.5,548.5C 1476.17,549.167 1470.83,549.833 1465.5,550.5C 1465.5,551.5 1465.5,552.5 1465.5,553.5C 1463.5,553.5 1461.5,553.5 1459.5,553.5C 1459.5,554.5 1459.5,555.5 1459.5,556.5C 1453.21,557.521 1446.88,558.188 1440.5,558.5C 1440.5,559.5 1440.5,560.5 1440.5,561.5C 1437.83,561.5 1435.17,561.5 1432.5,561.5C 1432.5,562.5 1432.5,563.5 1432.5,564.5C 1424.19,565.448 1415.86,566.115 1407.5,566.5C 1407.5,567.5 1407.5,568.5 1407.5,569.5C 1402.17,569.5 1396.83,569.5 1391.5,569.5C 1391.5,570.5 1391.5,571.5 1391.5,572.5C 1373.5,573.071 1355.5,573.738 1337.5,574.5C 1318.83,573.656 1300.17,572.989 1281.5,572.5C 1281.5,571.5 1281.5,570.5 1281.5,569.5C 1275.17,569.5 1268.83,569.5 1262.5,569.5C 1262.5,568.5 1262.5,567.5 1262.5,566.5C 1254.19,565.552 1245.86,564.885 1237.5,564.5C 1237.5,563.5 1237.5,562.5 1237.5,561.5C 1233.83,561.5 1230.17,561.5 1226.5,561.5C 1226.5,560.5 1226.5,559.5 1226.5,558.5C 1220.85,557.69 1215.19,557.024 1209.5,556.5C 1209.5,555.5 1209.5,554.5 1209.5,553.5C 1206.83,553.5 1204.17,553.5 1201.5,553.5C 1201.5,552.5 1201.5,551.5 1201.5,550.5C 1196.78,550.152 1192.11,549.485 1187.5,548.5C 1187.5,547.5 1187.5,546.5 1187.5,545.5C 1184.83,545.5 1182.17,545.5 1179.5,545.5C 1179.5,544.5 1179.5,543.5 1179.5,542.5C 1175.88,541.627 1172.21,540.961 1168.5,540.5C 1168.5,539.5 1168.5,538.5 1168.5,537.5C 1166.83,537.5 1165.17,537.5 1163.5,537.5C 1163.5,536.5 1163.5,535.5 1163.5,534.5C 1159.79,534.039 1156.12,533.373 1152.5,532.5C 1152.5,531.5 1152.5,530.5 1152.5,529.5C 1150.5,529.5 1148.5,529.5 1146.5,529.5C 1146.5,528.5 1146.5,527.5 1146.5,526.5C 1143.69,526.307 1141.02,525.64 1138.5,524.5C 1138.5,523.5 1138.5,522.5 1138.5,521.5C 1136.5,521.5 1134.5,521.5 1132.5,521.5C 1131.49,517.47 1128.83,515.803 1124.5,516.5C 1124.5,515.5 1124.5,514.5 1124.5,513.5C 1123.5,513.5 1122.5,513.5 1121.5,513.5C 1120.49,509.47 1117.83,507.803 1113.5,508.5C 1113.5,507.5 1113.5,506.5 1113.5,505.5C 1112.5,505.5 1111.5,505.5 1110.5,505.5C 1110.17,502.5 1108.5,500.833 1105.5,500.5C 1105.5,499.5 1105.5,498.5 1105.5,497.5C 1104.5,497.5 1103.5,497.5 1102.5,497.5C 1102.17,494.5 1100.5,492.833 1097.5,492.5C 1097.5,491.5 1097.5,490.5 1097.5,489.5C 1096.5,489.5 1095.5,489.5 1094.5,489.5C 1094.5,488.5 1094.5,487.5 1094.5,486.5C 1091.5,486.167 1089.83,484.5 1089.5,481.5C 1088.5,481.5 1087.5,481.5 1086.5,481.5C 1086.5,480.5 1086.5,479.5 1086.5,478.5C 1084.5,477.833 1082.5,477.167 1080.5,476.5C 1079.83,474.5 1079.17,472.5 1078.5,470.5C 1076.5,469.833 1074.5,469.167 1072.5,468.5C 1072.5,466.5 1072.5,464.5 1072.5,462.5C 1069.5,462.167 1067.83,460.5 1067.5,457.5C 1066.5,457.5 1065.5,457.5 1064.5,457.5C 1064.5,456.5 1064.5,455.5 1064.5,454.5C 1063.5,454.5 1062.5,454.5 1061.5,454.5C 1061.5,452.833 1061.5,451.167 1061.5,449.5C 1060.5,449.5 1059.5,449.5 1058.5,449.5C 1057.36,446.975 1056.69,444.308 1056.5,441.5C 1054.5,440.833 1052.5,440.167 1050.5,439.5C 1050.5,437.5 1050.5,435.5 1050.5,433.5C 1046.47,432.494 1044.8,429.827 1045.5,425.5C 1043.5,424.833 1041.5,424.167 1039.5,423.5C 1039.5,421.5 1039.5,419.5 1039.5,417.5C 1038.5,417.5 1037.5,417.5 1036.5,417.5C 1035.83,414.167 1035.17,410.833 1034.5,407.5C 1033.5,407.5 1032.5,407.5 1031.5,407.5C 1031.5,405.5 1031.5,403.5 1031.5,401.5C 1030.5,401.5 1029.5,401.5 1028.5,401.5C 1028.5,399.833 1028.5,398.167 1028.5,396.5C 1027.5,396.5 1026.5,396.5 1025.5,396.5C 1024.36,393.975 1023.69,391.308 1023.5,388.5C 1022.5,388.5 1021.5,388.5 1020.5,388.5C 1020.5,385.833 1020.5,383.167 1020.5,380.5C 1019.5,380.5 1018.5,380.5 1017.5,380.5C 1017.5,378.833 1017.5,377.167 1017.5,375.5C 1016.5,375.5 1015.5,375.5 1014.5,375.5C 1013.51,370.889 1012.85,366.222 1012.5,361.5C 1011.5,361.5 1010.5,361.5 1009.5,361.5C 1009.5,359.833 1009.5,358.167 1009.5,356.5C 1008.5,356.5 1007.5,356.5 1006.5,356.5C 1006.5,354.833 1006.5,353.167 1006.5,351.5C 1005.5,351.5 1004.5,351.5 1003.5,351.5C 1002.83,346.167 1002.17,340.833 1001.5,335.5C 1000.5,335.5 999.5,335.5 998.5,335.5C 998.5,332.833 998.5,330.167 998.5,327.5C 997.5,327.5 996.5,327.5 995.5,327.5C 995.5,325.5 995.5,323.5 995.5,321.5C 994.5,321.5 993.5,321.5 992.5,321.5C 991.574,315.535 990.908,309.535 990.5,303.5C 989.5,303.5 988.5,303.5 987.5,303.5C 987.5,300.833 987.5,298.167 987.5,295.5C 986.5,295.5 985.5,295.5 984.5,295.5C 984.5,292.833 984.5,290.167 984.5,287.5C 983.5,287.5 982.5,287.5 981.5,287.5C 981.188,281.121 980.521,274.788 979.5,268.5C 978.5,268.5 977.5,268.5 976.5,268.5C 976.5,264.833 976.5,261.167 976.5,257.5C 975.5,257.5 974.5,257.5 973.5,257.5C 973.5,255.833 973.5,254.167 973.5,252.5C 972.5,252.5 971.5,252.5 970.5,252.5C 970.31,248.077 969.643,243.744 968.5,239.5C 967.5,239.5 966.5,239.5 965.5,239.5C 965.5,237.5 965.5,235.5 965.5,233.5C 963.5,232.833 961.5,232.167 959.5,231.5C 960.197,227.173 958.53,224.506 954.5,223.5C 954.5,222.5 954.5,221.5 954.5,220.5C 950.788,220.039 947.121,219.373 943.5,218.5C 943.5,217.5 943.5,216.5 943.5,215.5C 938.833,215.5 934.167,215.5 929.5,215.5C 929.5,214.5 929.5,213.5 929.5,212.5C 911.167,212.5 892.833,212.5 874.5,212.5C 874.5,213.5 874.5,214.5 874.5,215.5C 872.833,215.5 871.167,215.5 869.5,215.5C 869.5,216.5 869.5,217.5 869.5,218.5C 865.173,217.803 862.506,219.47 861.5,223.5C 859.5,224.167 857.5,224.833 855.5,225.5C 855.5,227.5 855.5,229.5 855.5,231.5C 854.5,231.5 853.5,231.5 852.5,231.5C 851.833,234.833 851.167,238.167 850.5,241.5C 849.5,241.5 848.5,241.5 847.5,241.5C 847.5,243.5 847.5,245.5 847.5,247.5C 846.5,247.5 845.5,247.5 844.5,247.5C 844.5,250.167 844.5,252.833 844.5,255.5C 843.5,255.5 842.5,255.5 841.5,255.5C 840.833,260.833 840.167,266.167 839.5,271.5C 838.5,271.5 837.5,271.5 836.5,271.5C 836.5,274.167 836.5,276.833 836.5,279.5C 835.5,279.5 834.5,279.5 833.5,279.5C 833.5,282.167 833.5,284.833 833.5,287.5C 832.5,287.5 831.5,287.5 830.5,287.5C 829.715,294.486 829.048,301.486 828.5,308.5C 827.5,308.5 826.5,308.5 825.5,308.5C 825.5,312.167 825.5,315.833 825.5,319.5C 824.5,319.5 823.5,319.5 822.5,319.5C 822.5,322.167 822.5,324.833 822.5,327.5C 821.5,327.5 820.5,327.5 819.5,327.5C 818.833,332.833 818.167,338.167 817.5,343.5C 816.5,343.5 815.5,343.5 814.5,343.5C 814.5,346.167 814.5,348.833 814.5,351.5C 813.5,351.5 812.5,351.5 811.5,351.5C 811.5,353.167 811.5,354.833 811.5,356.5C 810.5,356.5 809.5,356.5 808.5,356.5C 807.627,360.121 806.961,363.788 806.5,367.5C 805.5,367.5 804.5,367.5 803.5,367.5C 803.5,369.167 803.5,370.833 803.5,372.5C 802.5,372.5 801.5,372.5 800.5,372.5C 800.5,374.167 800.5,375.833 800.5,377.5C 799.5,377.5 798.5,377.5 797.5,377.5C 797.039,381.212 796.373,384.879 795.5,388.5C 794.5,388.5 793.5,388.5 792.5,388.5C 792.5,390.167 792.5,391.833 792.5,393.5C 791.5,393.5 790.5,393.5 789.5,393.5C 789.5,394.5 789.5,395.5 789.5,396.5C 788.5,396.5 787.5,396.5 786.5,396.5C 785.627,400.121 784.961,403.788 784.5,407.5C 782.5,408.167 780.5,408.833 778.5,409.5C 778.5,411.5 778.5,413.5 778.5,415.5C 777.5,415.5 776.5,415.5 775.5,415.5C 774.833,418.833 774.167,422.167 773.5,425.5C 772.5,425.5 771.5,425.5 770.5,425.5C 770.5,426.5 770.5,427.5 770.5,428.5C 769.5,428.5 768.5,428.5 767.5,428.5C 767.5,430.167 767.5,431.833 767.5,433.5C 766.5,433.5 765.5,433.5 764.5,433.5C 763.36,436.025 762.693,438.692 762.5,441.5C 761.5,441.5 760.5,441.5 759.5,441.5C 759.5,442.5 759.5,443.5 759.5,444.5C 757.5,445.167 755.5,445.833 753.5,446.5C 754.197,450.827 752.53,453.494 748.5,454.5C 748.5,456.5 748.5,458.5 748.5,460.5C 746.5,461.167 744.5,461.833 742.5,462.5C 741.833,464.5 741.167,466.5 740.5,468.5C 739.5,468.5 738.5,468.5 737.5,468.5C 737.5,470.167 737.5,471.833 737.5,473.5C 736.5,473.5 735.5,473.5 734.5,473.5C 734.5,474.5 734.5,475.5 734.5,476.5C 731.5,476.833 729.833,478.5 729.5,481.5C 728.5,481.5 727.5,481.5 726.5,481.5C 726.5,482.5 726.5,483.5 726.5,484.5C 724.5,485.167 722.5,485.833 720.5,486.5C 719.833,488.5 719.167,490.5 718.5,492.5C 717.5,492.5 716.5,492.5 715.5,492.5C 715.5,494.167 715.5,495.833 715.5,497.5C 713.5,497.5 711.5,497.5 709.5,497.5C 709.167,500.5 707.5,502.167 704.5,502.5C 704.5,503.5 704.5,504.5 704.5,505.5C 703.5,505.5 702.5,505.5 701.5,505.5C 701.5,506.5 701.5,507.5 701.5,508.5C 698.5,508.833 696.833,510.5 696.5,513.5C 695.5,513.5 694.5,513.5 693.5,513.5C 693.5,514.5 693.5,515.5 693.5,516.5C 690.692,516.693 688.025,517.36 685.5,518.5C 685.5,519.5 685.5,520.5 685.5,521.5C 684.5,521.5 683.5,521.5 682.5,521.5C 682.5,522.5 682.5,523.5 682.5,524.5C 679.975,525.64 677.308,526.307 674.5,526.5C 674.5,527.5 674.5,528.5 674.5,529.5C 673.5,529.5 672.5,529.5 671.5,529.5C 671.5,530.5 671.5,531.5 671.5,532.5C 667.879,533.373 664.212,534.039 660.5,534.5C 660.5,535.5 660.5,536.5 660.5,537.5C 659.5,537.5 658.5,537.5 657.5,537.5C 657.5,538.5 657.5,539.5 657.5,540.5C 653.879,541.373 650.212,542.039 646.5,542.5C 646.5,543.5 646.5,544.5 646.5,545.5C 644.833,545.5 643.167,545.5 641.5,545.5C 641.5,546.5 641.5,547.5 641.5,548.5C 637.788,548.961 634.121,549.627 630.5,550.5C 630.5,551.5 630.5,552.5 630.5,553.5C 627.833,553.5 625.167,553.5 622.5,553.5C 622.5,554.5 622.5,555.5 622.5,556.5C 617.889,557.485 613.222,558.152 608.5,558.5C 608.5,559.5 608.5,560.5 608.5,561.5C 604.833,561.5 601.167,561.5 597.5,561.5C 597.5,562.5 597.5,563.5 597.5,564.5C 590.23,565.729 582.896,566.395 575.5,566.5C 575.5,567.5 575.5,568.5 575.5,569.5C 569.833,569.5 564.167,569.5 558.5,569.5C 558.5,570.5 558.5,571.5 558.5,572.5C 508.165,575.141 457.832,575.141 407.5,572.5C 407.5,571.5 407.5,570.5 407.5,569.5C 402.167,569.5 396.833,569.5 391.5,569.5C 391.5,568.5 391.5,567.5 391.5,566.5C 383.194,565.552 374.861,564.885 366.5,564.5C 366.5,563.5 366.5,562.5 366.5,561.5C 362.833,561.5 359.167,561.5 355.5,561.5C 355.5,560.5 355.5,559.5 355.5,558.5C 350.167,557.833 344.833,557.167 339.5,556.5C 339.5,555.5 339.5,554.5 339.5,553.5C 336.5,553.5 333.5,553.5 330.5,553.5C 330.5,552.5 330.5,551.5 330.5,550.5C 326.256,549.357 321.923,548.69 317.5,548.5C 317.5,547.5 317.5,546.5 317.5,545.5C 315.5,545.5 313.5,545.5 311.5,545.5C 311.5,544.5 311.5,543.5 311.5,542.5C 306.933,541.264 302.266,540.598 297.5,540.5C 297.5,539.5 297.5,538.5 297.5,537.5C 295.833,537.5 294.167,537.5 292.5,537.5C 292.5,536.5 292.5,535.5 292.5,534.5C 289.975,533.36 287.308,532.693 284.5,532.5C 284.5,531.5 284.5,530.5 284.5,529.5C 282.5,529.5 280.5,529.5 278.5,529.5C 277.494,525.47 274.827,523.803 270.5,524.5C 270.5,523.5 270.5,522.5 270.5,521.5C 269.5,521.5 268.5,521.5 267.5,521.5C 267.5,520.5 267.5,519.5 267.5,518.5C 264.692,518.307 262.025,517.64 259.5,516.5C 259.5,515.5 259.5,514.5 259.5,513.5C 258.5,513.5 257.5,513.5 256.5,513.5C 255.494,509.47 252.827,507.803 248.5,508.5C 248.5,507.5 248.5,506.5 248.5,505.5C 247.5,505.5 246.5,505.5 245.5,505.5C 244.36,502.975 243.693,500.308 243.5,497.5C 242.5,497.5 241.5,497.5 240.5,497.5C 240.5,496.5 240.5,495.5 240.5,494.5C 238.5,493.833 236.5,493.167 234.5,492.5C 233.833,490.5 233.167,488.5 232.5,486.5C 230.5,485.833 228.5,485.167 226.5,484.5C 226.5,482.5 226.5,480.5 226.5,478.5C 222.47,477.494 220.803,474.827 221.5,470.5C 220.5,470.5 219.5,470.5 218.5,470.5C 218.5,468.833 218.5,467.167 218.5,465.5C 217.5,465.5 216.5,465.5 215.5,465.5C 215.5,463.833 215.5,462.167 215.5,460.5C 214.5,460.5 213.5,460.5 212.5,460.5C 212.152,455.778 211.485,451.111 210.5,446.5C 209.5,446.5 208.5,446.5 207.5,446.5C 207.5,444.167 207.5,441.833 207.5,439.5C 206.5,439.5 205.5,439.5 204.5,439.5C 204.5,437.5 204.5,435.5 204.5,433.5C 203.5,433.5 202.5,433.5 201.5,433.5C 200.357,429.256 199.69,424.923 199.5,420.5C 198.5,420.5 197.5,420.5 196.5,420.5C 196.5,418.833 196.5,417.167 196.5,415.5C 195.5,415.5 194.5,415.5 193.5,415.5C 193.5,413.5 193.5,411.5 193.5,409.5C 192.5,409.5 191.5,409.5 190.5,409.5C 189.833,404.167 189.167,398.833 188.5,393.5C 187.5,393.5 186.5,393.5 185.5,393.5C 185.5,390.833 185.5,388.167 185.5,385.5C 184.5,385.5 183.5,385.5 182.5,385.5C 182.5,383.833 182.5,382.167 182.5,380.5C 181.5,380.5 180.5,380.5 179.5,380.5C 178.833,375.167 178.167,369.833 177.5,364.5C 176.5,364.5 175.5,364.5 174.5,364.5C 174.5,362.833 174.5,361.167 174.5,359.5C 173.5,359.5 172.5,359.5 171.5,359.5C 171.5,356.833 171.5,354.167 171.5,351.5C 170.5,351.5 169.5,351.5 168.5,351.5C 168.188,345.121 167.521,338.788 166.5,332.5C 165.5,332.5 164.5,332.5 163.5,332.5C 163.5,329.833 163.5,327.167 163.5,324.5C 162.5,324.5 161.5,324.5 160.5,324.5C 160.5,321.833 160.5,319.167 160.5,316.5C 159.5,316.5 158.5,316.5 157.5,316.5C 156.479,310.212 155.812,303.879 155.5,297.5C 154.5,297.5 153.5,297.5 152.5,297.5C 152.5,294.167 152.5,290.833 152.5,287.5C 151.5,287.5 150.5,287.5 149.5,287.5C 149.5,283.833 149.5,280.167 149.5,276.5C 148.5,276.5 147.5,276.5 146.5,276.5C 145.479,270.212 144.812,263.879 144.5,257.5C 143.5,257.5 142.5,257.5 141.5,257.5C 141.5,254.167 141.5,250.833 141.5,247.5C 140.5,247.5 139.5,247.5 138.5,247.5C 138.5,244.833 138.5,242.167 138.5,239.5C 137.5,239.5 136.5,239.5 135.5,239.5C 135.152,234.778 134.485,230.111 133.5,225.5C 131.5,224.833 129.5,224.167 127.5,223.5C 127.5,221.833 127.5,220.167 127.5,218.5C 126.5,218.5 125.5,218.5 124.5,218.5C 123.833,216.5 123.167,214.5 122.5,212.5C 121.5,212.5 120.5,212.5 119.5,212.5C 119.5,210.833 119.5,209.167 119.5,207.5C 118.5,207.5 117.5,207.5 116.5,207.5C 116.5,206.5 116.5,205.5 116.5,204.5C 113.5,204.167 111.833,202.5 111.5,199.5C 110.5,199.5 109.5,199.5 108.5,199.5C 108.5,198.5 108.5,197.5 108.5,196.5C 107.5,196.5 106.5,196.5 105.5,196.5C 105.5,194.833 105.5,193.167 105.5,191.5C 104.5,191.5 103.5,191.5 102.5,191.5C 102.167,188.5 100.5,186.833 97.5,186.5C 97.5,185.5 97.5,184.5 97.5,183.5C 96.5,183.5 95.5,183.5 94.5,183.5C 94.5,182.5 94.5,181.5 94.5,180.5C 93.5,180.5 92.5,180.5 91.5,180.5C 91.3067,177.692 90.64,175.025 89.5,172.5C 87.5,171.833 85.5,171.167 83.5,170.5C 83.5,168.5 83.5,166.5 83.5,164.5C 82.5,164.5 81.5,164.5 80.5,164.5C 79.1273,159.277 78.4607,153.944 78.5,148.5C 77.5,148.5 76.5,148.5 75.5,148.5C 75.5,122.833 75.5,97.1667 75.5,71.5C 76.5,71.5 77.5,71.5 78.5,71.5C 78.5,70.5 78.5,69.5 78.5,68.5C 87.4914,67.7394 96.4914,67.0728 105.5,66.5C 105.5,65.5 105.5,64.5 105.5,63.5C 110.167,63.5 114.833,63.5 119.5,63.5C 119.5,62.5 119.5,61.5 119.5,60.5C 128.509,59.9272 137.509,59.2606 146.5,58.5C 146.5,57.5 146.5,56.5 146.5,55.5C 151.167,55.5 155.833,55.5 160.5,55.5C 160.5,54.5 160.5,53.5 160.5,52.5C 169.833,51.8333 179.167,51.1667 188.5,50.5C 188.5,49.5 188.5,48.5 188.5,47.5C 192.167,47.5 195.833,47.5 199.5,47.5C 199.5,46.5 199.5,45.5 199.5,44.5C 208.491,43.7394 217.491,43.0728 226.5,42.5C 226.5,41.5 226.5,40.5 226.5,39.5C 230.167,39.5 233.833,39.5 237.5,39.5C 237.5,38.5 237.5,37.5 237.5,36.5C 247.486,35.6685 257.486,35.0018 267.5,34.5C 267.5,33.5 267.5,32.5 267.5,31.5C 272.167,31.5 276.833,31.5 281.5,31.5C 281.5,30.5 281.5,29.5 281.5,28.5C 293.482,27.5686 305.482,26.902 317.5,26.5C 317.5,25.5 317.5,24.5 317.5,23.5C 323.833,23.5 330.167,23.5 336.5,23.5C 336.5,22.5 336.5,21.5 336.5,20.5C 346.889,21.141 356.889,20.4743 366.5,18.5 Z"/></g>
</svg>
