<?xml version="1.0" encoding="UTF-8"?>
<!DOCTYPE svg PUBLIC "-//W3C//DTD SVG 1.1//EN" "http://www.w3.org/Graphics/SVG/1.1/DTD/svg11.dtd">
<svg xmlns="http://www.w3.org/2000/svg" version="1.1" width="1800px" height="1275px" style="shape-rendering:geometricPrecision; text-rendering:geometricPrecision; image-rendering:optimizeQuality; fill-rule:evenodd; clip-rule:evenodd" xmlns:xlink="http://www.w3.org/1999/xlink">
<g><path style="opacity:0.988" fill="#000000" d="M 877.5,14.5 C 936.271,11.381 993.604,18.881 1049.5,37C 1113.23,49.8 1174.57,69.8 1233.5,97C 1251.8,110.295 1266.96,126.462 1279,145.5C 1287.39,159.609 1294.72,174.276 1301,189.5C 1319.92,249.602 1339.26,309.602 1359,369.5C 1369.47,399.243 1380.14,428.909 1391,458.5C 1423.88,460.28 1455.72,467.447 1486.5,480C 1532,499.17 1577,519.503 1621.5,541C 1654.51,557.6 1683.68,579.433 1709,606.5C 1722.35,622.185 1732.35,639.851 1739,659.5C 1746.17,678.674 1751.5,698.341 1755,718.5C 1757.25,735.229 1756.91,751.895 1754,768.5C 1749.6,783.214 1742.27,796.214 1732,807.5C 1690.71,845.461 1646.55,879.627 1599.5,910C 1542.24,942.134 1483.9,972.467 1424.5,1001C 1403.74,1010.25 1382.74,1018.92 1361.5,1027C 1330.52,1042.49 1299.85,1058.49 1269.5,1075C 1181.46,1116.68 1091.13,1152.68 998.5,1183C 967.677,1190.76 936.677,1197.76 905.5,1204C 842.253,1222.38 777.92,1235.38 712.5,1243C 661.163,1248.33 609.829,1253.67 558.5,1259C 546.167,1259.67 533.833,1259.67 521.5,1259C 501.373,1257.15 481.206,1255.99 461,1255.5C 419.847,1257.25 378.681,1257.75 337.5,1257C 304.684,1255.6 272.351,1250.93 240.5,1243C 196.835,1231.43 159.669,1209.26 129,1176.5C 103.931,1145.75 81.598,1113.09 62,1078.5C 55.1209,1065.41 48.7876,1052.08 43,1038.5C 43.641,1018.78 43.4743,998.777 42.5,978.5C 41.9739,963.421 44.1405,948.755 49,934.5C 56.5422,912.208 66.2089,890.875 78,870.5C 105.603,822.943 135.936,777.277 169,733.5C 195.929,698.705 226.262,667.038 260,638.5C 272.167,621 287,606.167 304.5,594C 310.636,588.044 316.302,581.71 321.5,575C 327.59,571.54 333.423,567.706 339,563.5C 338.271,487.039 340.938,410.706 347,334.5C 349.117,328.264 351.784,322.264 355,316.5C 363.916,303.002 372.583,289.336 381,275.5C 392,262.5 403,249.5 414,236.5C 418.057,231.442 421.724,226.108 425,220.5C 458.43,182.728 495.263,148.894 535.5,119C 559.665,103.417 583.998,88.0833 608.5,73C 622.481,65.8425 636.814,59.5091 651.5,54C 684.852,44.4362 717.852,34.1029 750.5,23C 771.581,21.8989 792.581,19.8989 813.5,17C 835.021,16.8837 856.355,16.0504 877.5,14.5 Z"/></g>
<g><path style="opacity:1" fill="#534c4c" d="M 752.5,32.5 C 763.505,33.4338 774.505,34.4338 785.5,35.5C 847.539,31.1278 909.539,31.6278 971.5,37C 989.26,40.0304 1006.59,44.6971 1023.5,51C 1054.6,58.6202 1085.6,66.6202 1116.5,75C 1145.06,84.4086 1173.39,94.4086 1201.5,105C 1211.15,109.491 1220.48,114.491 1229.5,120C 1250.13,139.083 1265.96,161.583 1277,187.5C 1280.86,196.754 1284.53,206.088 1288,215.5C 1324.15,330.295 1362.99,444.128 1404.5,557C 1395.3,565.281 1385.3,572.614 1374.5,579C 1356.46,594.047 1338.12,608.713 1319.5,623C 1309.16,629.837 1298.5,636.17 1287.5,642C 1261.17,659.667 1234.83,677.333 1208.5,695C 1187.91,705.13 1166.58,713.296 1144.5,719.5C 1142.99,708.793 1141.16,698.126 1139,687.5C 1138.7,618.927 1146.36,551.261 1162,484.5C 1164.56,470.581 1166.56,456.581 1168,442.5C 1169.13,435.236 1172.13,428.903 1177,423.5C 1179.95,413.228 1176.12,408.395 1165.5,409C 1157.5,413.444 1149.17,417.111 1140.5,420C 1103.99,433.058 1067.33,445.724 1030.5,458C 1014.88,465.976 998.55,471.976 981.5,476C 947.486,480.675 913.819,479.009 880.5,471C 860.234,465.373 842.567,455.373 827.5,441C 819.856,440.02 817.689,443.187 821,450.5C 839.618,473.501 853.618,499.168 863,527.5C 864.491,533.453 865.657,539.453 866.5,545.5C 831.201,548.463 796.868,543.963 763.5,532C 757.747,531.149 752.08,531.483 746.5,533C 738.437,540.853 739.104,548.187 748.5,555C 756.172,560.171 764.172,564.838 772.5,569C 776.916,571.412 780.749,574.578 784,578.5C 806.033,612.565 824.366,648.565 839,686.5C 852.068,723.762 858.568,761.595 858.5,800C 822.573,804.174 786.739,809.007 751,814.5C 722.832,812.379 694.665,810.212 666.5,808C 641.5,807.667 616.5,807.333 591.5,807C 562.829,803.499 534.162,799.833 505.5,796C 496.833,795.667 488.167,795.333 479.5,795C 456.415,790.562 433.748,784.562 411.5,777C 391.688,769.508 372.188,761.342 353,752.5C 353.866,715.174 354.866,677.841 356,640.5C 356.368,560.832 356.368,481.165 356,401.5C 358.93,381.535 361.596,361.535 364,341.5C 405.614,265.853 460.447,201.02 528.5,147C 558.817,124.366 590.483,103.699 623.5,85C 633.267,80.1163 643.267,75.783 653.5,72C 673.049,65.5569 692.383,58.5569 711.5,51C 719.779,47.5272 727.779,43.5272 735.5,39C 741.305,36.9032 746.971,34.7365 752.5,32.5 Z"/></g>
<g><path style="opacity:0.999" fill="#010101" d="M 730.5,78.5 C 741.505,78.3335 752.505,78.5002 763.5,79C 809.776,85.7428 856.109,92.0762 902.5,98C 909.143,98.2951 913.476,101.462 915.5,107.5C 915.592,111.658 913.592,113.991 909.5,114.5C 897.241,111.901 884.908,109.735 872.5,108C 834.039,103.506 795.706,98.1722 757.5,92C 747.167,91.3333 736.833,91.3333 726.5,92C 705.229,94.9932 683.896,96.9932 662.5,98C 659.831,94.6515 660.497,91.9848 664.5,90C 686.49,85.2985 708.49,81.4652 730.5,78.5 Z"/></g>
<g><path style="opacity:0.998" fill="#020202" d="M 597.5,116.5 C 603.456,117.087 605.289,120.087 603,125.5C 576.775,146.721 552.109,169.721 529,194.5C 517.333,209.5 505.667,224.5 494,239.5C 490.894,245.379 488.06,251.379 485.5,257.5C 488.752,262.426 487.419,264.259 481.5,263C 480.374,259.256 480.207,255.423 481,251.5C 483.727,245.046 486.727,238.712 490,232.5C 519.025,187.637 554.858,148.97 597.5,116.5 Z"/></g>
<g><path style="opacity:0.999" fill="#010101" d="M 880.5,139.5 C 902.127,138.192 923.46,140.025 944.5,145C 951.33,145.488 953.83,148.988 952,155.5C 951.5,156.667 950.667,157.5 949.5,158C 946.167,158.667 942.833,158.667 939.5,158C 918.024,153.288 896.357,152.288 874.5,155C 859.04,157.359 843.707,160.359 828.5,164C 784.875,174.49 741.208,184.823 697.5,195C 681.494,199.335 665.827,204.669 650.5,211C 609.849,229.493 568.849,247.159 527.5,264C 515.508,269.658 504.175,276.325 493.5,284C 489.889,285.254 488.389,284.088 489,280.5C 497.65,272.18 507.15,265.014 517.5,259C 568.831,234.115 620.831,210.781 673.5,189C 701.525,179.16 730.192,171.827 759.5,167C 787.129,159.843 814.796,152.843 842.5,146C 855.288,143.703 867.955,141.536 880.5,139.5 Z"/></g>
<g><path style="opacity:1" fill="#615f5d" d="M 740.5,248.5 C 756.17,248.333 771.837,248.5 787.5,249C 806.982,252.836 820.816,263.669 829,281.5C 831.17,292.309 828.837,301.976 822,310.5C 818.466,314.369 814.633,317.869 810.5,321C 796.5,330.333 782.5,339.667 768.5,349C 734.547,366.658 698.547,377.658 660.5,382C 644.217,384.128 627.884,385.795 611.5,387C 600.526,391.123 589.192,392.457 577.5,391C 564.763,390.217 552.096,388.883 539.5,387C 520.827,382.344 512.327,370.511 514,351.5C 517.527,340.934 524.027,332.767 533.5,327C 596.28,284.352 665.28,258.186 740.5,248.5 Z"/></g>
<g><path style="opacity:1" fill="#b0a68c" d="M 1147.5,436.5 C 1148.5,436.5 1149.5,436.5 1150.5,436.5C 1149.31,453.285 1147.15,469.952 1144,486.5C 1138.43,510.661 1133.77,534.994 1130,559.5C 1128.32,587.252 1125.65,614.918 1122,642.5C 1121.33,657.167 1121.33,671.833 1122,686.5C 1124.05,700.463 1125.55,714.463 1126.5,728.5C 1115.81,734.683 1104.64,740.016 1093,744.5C 1075.7,688.891 1071.04,632.224 1079,574.5C 1083.64,548.581 1092.97,524.581 1107,502.5C 1108.71,496.894 1106.71,493.894 1101,493.5C 1084.06,496.258 1067.89,501.425 1052.5,509C 1037.83,516.333 1023.17,523.667 1008.5,531C 965.081,546.902 920.414,551.902 874.5,546C 872.19,520.926 864.857,497.426 852.5,475.5C 852.833,475.167 853.167,474.833 853.5,474.5C 883.625,488.325 915.292,494.992 948.5,494.5C 967.855,494.499 986.855,491.999 1005.5,487C 1014.83,483 1024.17,479 1033.5,475C 1071.71,462.431 1109.71,449.598 1147.5,436.5 Z"/></g>
<g><path style="opacity:1" fill="#534c4c" d="M 1396.5,474.5 C 1416.9,478.594 1437.23,483.094 1457.5,488C 1514.5,509.999 1570.17,534.999 1624.5,563C 1650.22,577.042 1673.38,594.542 1694,615.5C 1699,621.833 1704,628.167 1709,634.5C 1724.61,663.334 1734.61,694.001 1739,726.5C 1739.67,739.167 1739.67,751.833 1739,764.5C 1737.95,772.937 1734.95,780.604 1730,787.5C 1726,792.833 1722,798.167 1718,803.5C 1716.56,802.282 1714.9,801.615 1713,801.5C 1709.51,802.327 1706.35,803.827 1703.5,806C 1662.82,843.684 1618.49,876.351 1570.5,904C 1518.29,932.942 1465.29,960.608 1411.5,987C 1361.52,1005.99 1313.52,1028.99 1267.5,1056C 1179.91,1098.53 1089.91,1135.2 997.5,1166C 944.463,1178.51 891.463,1191.18 838.5,1204C 805.99,1211.44 773.323,1218.1 740.5,1224C 679.449,1230.21 618.449,1236.87 557.5,1244C 518,1243.49 478.5,1242.65 439,1241.5C 399.52,1243.2 360.02,1243.7 320.5,1243C 271.589,1240.19 225.256,1227.86 181.5,1206C 166.184,1195.69 152.351,1183.53 140,1169.5C 104.497,1129.32 74.4971,1085.32 50,1037.5C 48.0036,1029.96 48.1703,1022.46 50.5,1015C 48.2763,985.232 52.443,956.399 63,928.5C 68.1206,916.258 73.7872,904.258 80,892.5C 117.512,825.793 161.179,763.46 211,705.5C 228.066,686.433 246.399,668.766 266,652.5C 282.371,631.796 301.037,613.462 322,597.5C 325.468,592.066 329.301,586.899 333.5,582C 335.167,581.167 336.833,580.333 338.5,579.5C 338.833,584.333 339.167,589.167 339.5,594C 336.741,661.666 334.075,729.333 331.5,797C 331.212,822.713 333.379,848.213 338,873.5C 338.346,875.848 339.513,877.681 341.5,879C 385.67,900.393 431.003,919.059 477.5,935C 578.392,965.35 680.725,971.35 784.5,953C 823.044,945.558 861.711,938.891 900.5,933C 940.051,923.816 979.384,913.816 1018.5,903C 1050.72,892.053 1082.39,879.72 1113.5,866C 1140.09,858.249 1166.09,848.916 1191.5,838C 1227.53,820.651 1263.53,803.317 1299.5,786C 1322.55,773.891 1343.38,758.724 1362,740.5C 1373,724.82 1385.5,710.32 1399.5,697C 1412.88,685.952 1426.55,675.285 1440.5,665C 1444.56,661.96 1447.39,658.126 1449,653.5C 1450.03,642.718 1449.36,632.051 1447,621.5C 1441.5,604.833 1435.17,588.5 1428,572.5C 1418.39,539.515 1407.89,506.848 1396.5,474.5 Z"/></g>
<g><path style="opacity:1" fill="#d1c3a9" d="M 1081.5,513.5 C 1082.1,513.735 1082.43,514.235 1082.5,515C 1060.32,573.355 1055.15,633.188 1067,694.5C 1070.25,712.821 1074.75,730.821 1080.5,748.5C 1046.15,758.337 1011.81,768.504 977.5,779C 940.408,787.237 903.075,794.071 865.5,799.5C 867.149,744.875 856.982,692.542 835,642.5C 823.811,617.118 810.811,592.785 796,569.5C 793.5,567 791,564.5 788.5,562C 779.833,556.667 771.167,551.333 762.5,546C 781.462,551.571 800.795,555.905 820.5,559C 860.839,559.853 901.173,560.519 941.5,561C 962.644,558.911 983.311,554.577 1003.5,548C 1029.47,536.175 1055.47,524.675 1081.5,513.5 Z"/></g>
<g><path style="opacity:0.999" fill="#010101" d="M 1326.5,934.5 C 1336.39,936.386 1337.06,940.219 1328.5,946C 1289.66,968.062 1248.66,985.062 1205.5,997C 1175.29,1005.47 1144.96,1013.47 1114.5,1021C 1068.56,1037.53 1022.56,1053.87 976.5,1070C 886.5,1090.33 796.5,1110.67 706.5,1131C 622.049,1146.63 537.382,1160.96 452.5,1174C 407.243,1178.54 361.91,1179.54 316.5,1177C 277.442,1175.57 240.108,1166.9 204.5,1151C 164.877,1130.05 132.877,1100.71 108.5,1063C 109.447,1059.93 111.447,1058.93 114.5,1060C 137.859,1092.7 166.859,1119.03 201.5,1139C 239.382,1157.31 279.382,1167.65 321.5,1170C 368.65,1174.09 415.65,1172.76 462.5,1166C 531.981,1151.97 601.648,1138.97 671.5,1127C 771.274,1104.81 870.94,1082.14 970.5,1059C 1016.26,1043.29 1061.93,1027.29 1107.5,1011C 1125.2,1006.82 1142.87,1002.49 1160.5,998C 1190.72,988.593 1221.05,979.593 1251.5,971C 1277.36,960.404 1302.36,948.237 1326.5,934.5 Z"/></g>
</svg>
