<?xml version="1.0" encoding="UTF-8"?>
<svg version="1.1" xmlns="http://www.w3.org/2000/svg" width="600" height="600">
<path d="M0 0 C3.58193018 2.07751951 6.22202023 3.84040167 9.125 6.8125 C9.7890625 9.98046875 9.7890625 9.98046875 10.125 12.8125 C11.66027344 12.90724609 11.66027344 12.90724609 13.2265625 13.00390625 C28.88983629 14.20531994 43.94375787 17.95282487 59.125 21.8125 C60.02653809 22.0384082 60.92807617 22.26431641 61.85693359 22.49707031 C78.09550473 26.63271135 92.09911465 33.21416601 105.125 43.8125 C106.55740234 44.88186244 107.99435401 45.94518146 109.4375 47 C115.19067274 51.338653 120.26101923 55.79741033 124.92578125 61.30078125 C127.23647279 63.93981261 129.63380574 66.475596 132.05200195 69.015625 C141.40853882 78.87964779 150.36054357 88.67860395 156.5625 100.875 C156.86849121 101.47497803 157.17448242 102.07495605 157.48974609 102.69311523 C164.07775912 116.46224496 165.56145387 130.83850548 167.3125 145.8125 C167.57384901 147.95585388 167.83621214 150.09908436 168.09960938 152.2421875 C169.99885296 167.8452946 171.31210182 183.21399592 171.25 198.9375 C171.24811676 199.65972748 171.24623352 200.38195496 171.24429321 201.12606812 C171.12958545 238.69052387 171.12958545 238.69052387 167.125 246.8125 C163.02477509 249.9355776 158.94350863 250.51953291 153.9453125 250.98046875 C153.15472443 251.05984177 152.36413635 251.13921478 151.54959106 251.22099304 C143.03584756 252.01380084 134.54518243 252.16342597 126 252.125 C125.19016663 252.12384186 124.38033325 252.12268372 123.54595947 252.12149048 C100.2141839 252.05633382 77.12891046 249.71099925 54.125 245.8125 C51.68156416 249.6574846 49.26531189 253.50371246 47.0546875 257.48828125 C40.40810008 269.36017324 32.6601643 278.10546948 20.7890625 285.14453125 C18.12264003 286.81397758 15.83091316 288.65029716 13.4375 290.6875 C3.05108664 299.18696622 -9.64299426 304.89274599 -21.66015625 310.72509766 C-24.05648033 311.9015998 -26.43386436 313.11238293 -28.8125 314.32421875 C-47.70503308 323.81489234 -67.02391287 328.68313965 -87.875 331.8125 C-88.88095215 331.97045044 -88.88095215 331.97045044 -89.90722656 332.1315918 C-97.92102488 333.21570953 -106.05389576 333.01114879 -114.125 333 C-114.92834778 332.99939575 -115.73169556 332.9987915 -116.55938721 332.99816895 C-129.09226541 332.97257572 -141.4556727 332.63946296 -153.875 330.8125 C-154.73061523 330.68891113 -155.58623047 330.56532227 -156.46777344 330.43798828 C-182.78881831 326.48264001 -207.38150535 318.10786873 -231.625 307.375 C-232.24129272 307.10395447 -232.85758545 306.83290894 -233.49255371 306.5536499 C-244.35570807 301.75878091 -255.04834445 296.63792909 -264.125 288.875 C-265.03765625 288.10285156 -265.9503125 287.33070313 -266.890625 286.53515625 C-267.54546875 285.96667969 -268.2003125 285.39820313 -268.875 284.8125 C-269.205 285.8025 -269.535 286.7925 -269.875 287.8125 C-272.2780232 289.26806256 -274.60483713 290.53172905 -277.125 291.75 C-277.84719727 292.10263916 -278.56939453 292.45527832 -279.31347656 292.81860352 C-289.5222727 297.68137993 -299.51050365 300.65975139 -310.875 300.8125 C-311.8134375 300.82539063 -312.751875 300.83828125 -313.71875 300.8515625 C-322.26762635 300.53938443 -328.76290639 296.94574871 -334.9375 291.125 C-338.23168362 287.19323246 -338.19333551 283.79627729 -337.875 278.8125 C-328.24135921 250.83219858 -296.73819682 235.08568448 -271.875 222.8125 C-267.28302346 220.58176106 -262.67528237 218.38464331 -258.06054688 216.20141602 C-249.04154128 211.92725009 -240.12183035 207.46602239 -231.21508789 202.96386719 C-230.16957764 202.43696289 -229.12406738 201.91005859 -228.046875 201.3671875 C-227.1197168 200.89780762 -226.19255859 200.42842773 -225.23730469 199.94482422 C-222.875 198.8125 -222.875 198.8125 -219.875 197.8125 C-219.76542969 197.0596875 -219.65585938 196.306875 -219.54296875 195.53125 C-216.0952369 172.43424965 -212.08668125 148.73824754 -203.875 126.8125 C-203.53726563 125.87277344 -203.19953125 124.93304688 -202.8515625 123.96484375 C-202.21118048 122.18458173 -201.56300154 120.40710093 -200.90625 118.6328125 C-200.13743569 116.53022185 -199.39099196 114.41942558 -198.65625 112.3046875 C-196.67443365 106.61300762 -194.68051116 101.16407633 -191.828125 95.85546875 C-190.63650258 93.30129447 -189.87757866 90.69735777 -189.0625 88 C-186.94591718 81.49617079 -183.7805631 76.39087597 -179.875 70.8125 C-178.93993315 69.45194044 -178.00505042 68.09125432 -177.0703125 66.73046875 C-154.36426093 33.90760569 -132.05293364 18.17329116 -92.875 9.8125 C-91.61453857 9.53913818 -91.61453857 9.53913818 -90.32861328 9.26025391 C-69.0578474 4.77020566 -48.25840301 7.06748138 -26.875 9.8125 C-26.42338501 8.62285645 -26.42338501 8.62285645 -25.96264648 7.40917969 C-24.35673244 3.57517254 -22.20546088 2.25936922 -18.875 -0.1875 C-13.10075685 -2.11224772 -5.72421028 -2.27171574 0 0 Z " fill="#333691" transform="translate(386.875,131.1875)"/>
<path d="M0 0 C3.52432249 0.33590738 7.05039502 0.64538833 10.57714844 0.95458984 C12.824698 1.16781937 15.07210047 1.38260639 17.31933594 1.59912109 C18.8958342 1.73220673 18.8958342 1.73220673 20.50418091 1.86798096 C27.77060643 2.61134354 27.77060643 2.61134354 30.95532227 5.10327148 C31.42349365 5.75674561 31.89166504 6.41021973 32.37402344 7.08349609 C34.11000045 8.27079526 34.11000045 8.27079526 35.93652344 9.27099609 C52.45720056 19.32439516 72.49839023 37.8715205 78.54589844 56.73974609 C79.67783814 61.77183445 79.71587218 66.75698903 79.68652344 71.89599609 C79.68160889 72.93643066 79.67669434 73.97686523 79.67163086 75.04882812 C79.4088103 93.16053386 76.79413501 110.8980253 73.20898438 128.62109375 C71.67872591 136.24141384 70.53747157 143.8318971 69.6105957 151.54614258 C68.22725638 162.7971115 66.36513456 173.97408573 64.53051758 185.15869141 C62.80581872 195.77206333 61.46386879 206.386453 60.37402344 217.08349609 C56.70940288 218.01965373 54.26029818 218.07210022 50.62011719 217.07958984 C49.23832275 216.71534912 49.23832275 216.71534912 47.82861328 216.34375 C46.83297363 216.07224121 45.83733398 215.80073242 44.81152344 215.52099609 C35.99339292 213.21962353 27.16555518 211.09403844 18.24902344 209.20849609 C17.10401367 208.96599121 15.95900391 208.72348633 14.77929688 208.47363281 C10.97842294 207.67266465 7.17640561 206.87726356 3.37402344 206.08349609 C-64.42304591 191.91702913 -64.42304591 191.91702913 -80.82666016 186.47973633 C-101.21992787 180.03398646 -122.46523285 180.69300778 -143.59014893 180.87750244 C-147.5532134 180.90871254 -151.51633911 180.92200226 -155.47949219 180.93701172 C-163.19514901 180.96876776 -170.91051109 181.01966812 -178.62597656 181.08349609 C-171.90722458 143.32215876 -163.30613237 104.57536413 -143.76757812 71.1015625 C-142.02758089 68.02568202 -140.5664635 64.84421248 -139.06347656 61.64599609 C-132.46398603 48.44701502 -123.35707599 38.08227049 -112.62597656 28.08349609 C-111.89378906 27.39513672 -111.16160156 26.70677734 -110.40722656 25.99755859 C-90.94679297 8.37151014 -68.81745793 3.39660845 -43.62597656 -0.91650391 C-42.55734375 -1.11759766 -41.48871094 -1.31869141 -40.38769531 -1.52587891 C-26.91755171 -2.92464771 -13.41895691 -1.29647186 0 0 Z " fill="#343791" transform="translate(350.6259765625,144.91650390625)"/>
<path d="M0 0 C0.66563461 -0.0049649 1.33126923 -0.00992981 2.01707458 -0.01504517 C4.22412151 -0.02966757 6.43109612 -0.03647546 8.63818359 -0.04199219 C9.77719683 -0.04623325 9.77719683 -0.04623325 10.93922043 -0.05056 C14.9723419 -0.06556741 19.00542758 -0.07478191 23.03857422 -0.07910156 C27.15888869 -0.08453136 31.27886341 -0.10843619 35.39907265 -0.13707352 C38.60292417 -0.15594543 41.8066987 -0.16091873 45.01060104 -0.16243744 C46.52608434 -0.16541904 48.04156781 -0.17329033 49.55699539 -0.18662262 C64.65367126 -0.30975299 78.73813314 2.25145475 93.31835938 6.1171875 C122.48987534 13.78581553 152.06374104 19.93194043 181.70849609 25.46850586 C193.35845252 27.66855231 204.8842036 30.39902308 216.41162109 33.16113281 C217.21341797 33.350625 218.01521484 33.54011719 218.84130859 33.73535156 C230.90780266 36.59094535 242.66081526 40.22009332 254.41162109 44.16113281 C248.61605244 63.61560447 233.1520222 75.80903829 216.62255859 86.11035156 C214.09743877 87.72311057 211.61390433 89.36954738 209.13818359 91.05566406 C207.98588257 91.83731934 207.98588257 91.83731934 206.81030273 92.63476562 C205.30549041 93.65820785 203.80436146 94.68709772 202.30786133 95.72265625 C191.43407994 103.09479423 179.64061773 107.82413933 167.34912109 112.22363281 C166.62040802 112.4860376 165.89169495 112.74844238 165.14089966 113.01879883 C154.03018612 117.00910889 142.98507947 120.74666577 131.41162109 123.16113281 C130.55004395 123.35143066 129.6884668 123.54172852 128.80078125 123.73779297 C103.19900197 129.26345404 77.15686819 128.26410195 51.41162109 124.16113281 C50.51330566 124.02191406 49.61499023 123.88269531 48.68945312 123.73925781 C26.94790958 120.27664148 6.82546841 113.61442837 -13.40087891 105.09863281 C-14.22216278 104.75360718 -15.04344666 104.40858154 -15.88961792 104.05310059 C-39.72439108 93.98984121 -39.72439108 93.98984121 -47.65087891 87.28613281 C-48.88257813 86.27099609 -48.88257813 86.27099609 -50.13916016 85.23535156 C-51.74866457 83.87227845 -53.35051658 82.50010793 -54.94384766 81.11816406 C-67.15998676 70.81515604 -82.12261947 63.86303543 -98.33447266 64.54003906 C-107.65326362 65.47429155 -116.59303348 71.22244568 -123.58837891 77.16113281 C-118.90653101 62.17921955 -102.68512287 53.17980434 -89.90087891 45.97363281 C-87.97517808 44.87218677 -86.05170926 43.76691661 -84.128479 42.66116333 C-82.83018352 41.91482525 -81.5311528 41.16976466 -80.23138428 40.42599487 C-76.14222176 38.08005913 -72.1042597 35.66516495 -68.09228516 33.18847656 C-56.30508038 25.91332102 -44.42717718 19.47200708 -31.8828125 13.60839844 C-24.8669161 10.31727134 -18.23840632 6.82420649 -11.77587891 2.55175781 C-7.82376259 0.03934101 -4.58534059 0.02601753 0 0 Z " fill="#333691" transform="translate(178.58837890625,330.8388671875)"/>
<path d="M0 0 C3.58193018 2.07751951 6.22202023 3.84040167 9.125 6.8125 C9.7890625 9.98046875 9.7890625 9.98046875 10.125 12.8125 C11.66027344 12.90724609 11.66027344 12.90724609 13.2265625 13.00390625 C28.88983629 14.20531994 43.94375787 17.95282487 59.125 21.8125 C60.02653809 22.0384082 60.92807617 22.26431641 61.85693359 22.49707031 C78.09550473 26.63271135 92.09911465 33.21416601 105.125 43.8125 C106.55740234 44.88186244 107.99435401 45.94518146 109.4375 47 C115.19067274 51.338653 120.26101923 55.79741033 124.92578125 61.30078125 C127.23647279 63.93981261 129.63380574 66.475596 132.05200195 69.015625 C141.40853882 78.87964779 150.36054357 88.67860395 156.5625 100.875 C156.86849121 101.47497803 157.17448242 102.07495605 157.48974609 102.69311523 C164.07775912 116.46224496 165.56145387 130.83850548 167.3125 145.8125 C167.57384901 147.95585388 167.83621214 150.09908436 168.09960938 152.2421875 C169.99885296 167.8452946 171.31210182 183.21399592 171.25 198.9375 C171.24811676 199.65972748 171.24623352 200.38195496 171.24429321 201.12606812 C171.12958545 238.69052387 171.12958545 238.69052387 167.125 246.8125 C163.02477509 249.9355776 158.94350863 250.51953291 153.9453125 250.98046875 C153.15472443 251.05984177 152.36413635 251.13921478 151.54959106 251.22099304 C143.03584756 252.01380084 134.54518243 252.16342597 126 252.125 C125.19016663 252.12384186 124.38033325 252.12268372 123.54595947 252.12149048 C100.2141839 252.05633382 77.12891046 249.71099925 54.125 245.8125 C51.68156416 249.6574846 49.26531189 253.50371246 47.0546875 257.48828125 C40.40810008 269.36017324 32.6601643 278.10546948 20.7890625 285.14453125 C18.12264003 286.81397758 15.83091316 288.65029716 13.4375 290.6875 C3.05108664 299.18696622 -9.64299426 304.89274599 -21.66015625 310.72509766 C-24.05648033 311.9015998 -26.43386436 313.11238293 -28.8125 314.32421875 C-47.70503308 323.81489234 -67.02391287 328.68313965 -87.875 331.8125 C-88.88095215 331.97045044 -88.88095215 331.97045044 -89.90722656 332.1315918 C-97.92102488 333.21570953 -106.05389576 333.01114879 -114.125 333 C-114.92834778 332.99939575 -115.73169556 332.9987915 -116.55938721 332.99816895 C-129.09226541 332.97257572 -141.4556727 332.63946296 -153.875 330.8125 C-154.73061523 330.68891113 -155.58623047 330.56532227 -156.46777344 330.43798828 C-182.78881831 326.48264001 -207.38150535 318.10786873 -231.625 307.375 C-232.24129272 307.10395447 -232.85758545 306.83290894 -233.49255371 306.5536499 C-244.35570807 301.75878091 -255.04834445 296.63792909 -264.125 288.875 C-265.03765625 288.10285156 -265.9503125 287.33070313 -266.890625 286.53515625 C-267.54546875 285.96667969 -268.2003125 285.39820313 -268.875 284.8125 C-269.205 285.8025 -269.535 286.7925 -269.875 287.8125 C-272.2780232 289.26806256 -274.60483713 290.53172905 -277.125 291.75 C-277.84719727 292.10263916 -278.56939453 292.45527832 -279.31347656 292.81860352 C-289.5222727 297.68137993 -299.51050365 300.65975139 -310.875 300.8125 C-311.8134375 300.82539063 -312.751875 300.83828125 -313.71875 300.8515625 C-322.26762635 300.53938443 -328.76290639 296.94574871 -334.9375 291.125 C-338.23168362 287.19323246 -338.19333551 283.79627729 -337.875 278.8125 C-328.24135921 250.83219858 -296.73819682 235.08568448 -271.875 222.8125 C-267.28302346 220.58176106 -262.67528237 218.38464331 -258.06054688 216.20141602 C-249.04154128 211.92725009 -240.12183035 207.46602239 -231.21508789 202.96386719 C-230.16957764 202.43696289 -229.12406738 201.91005859 -228.046875 201.3671875 C-227.1197168 200.89780762 -226.19255859 200.42842773 -225.23730469 199.94482422 C-222.875 198.8125 -222.875 198.8125 -219.875 197.8125 C-219.76542969 197.0596875 -219.65585938 196.306875 -219.54296875 195.53125 C-216.0952369 172.43424965 -212.08668125 148.73824754 -203.875 126.8125 C-203.53726563 125.87277344 -203.19953125 124.93304688 -202.8515625 123.96484375 C-202.21118048 122.18458173 -201.56300154 120.40710093 -200.90625 118.6328125 C-200.13743569 116.53022185 -199.39099196 114.41942558 -198.65625 112.3046875 C-196.67443365 106.61300762 -194.68051116 101.16407633 -191.828125 95.85546875 C-190.63650258 93.30129447 -189.87757866 90.69735777 -189.0625 88 C-186.94591718 81.49617079 -183.7805631 76.39087597 -179.875 70.8125 C-178.93993315 69.45194044 -178.00505042 68.09125432 -177.0703125 66.73046875 C-154.36426093 33.90760569 -132.05293364 18.17329116 -92.875 9.8125 C-91.61453857 9.53913818 -91.61453857 9.53913818 -90.32861328 9.26025391 C-69.0578474 4.77020566 -48.25840301 7.06748138 -26.875 9.8125 C-26.42338501 8.62285645 -26.42338501 8.62285645 -25.96264648 7.40917969 C-24.35673244 3.57517254 -22.20546088 2.25936922 -18.875 -0.1875 C-13.10075685 -2.11224772 -5.72421028 -2.27171574 0 0 Z M-145.2421875 39.10546875 C-146.98710846 40.9297043 -148.82971969 42.54961385 -150.75 44.1875 C-152.12742049 45.3930734 -153.50235427 46.60149292 -154.875 47.8125 C-155.57496094 48.4209375 -156.27492187 49.029375 -156.99609375 49.65625 C-168.21244492 60.05286784 -175.44913986 74.08135116 -181.89355469 87.77001953 C-182.87160563 89.805436 -183.90082185 91.80657237 -184.9453125 93.80859375 C-196.04982423 115.52749051 -203.80533671 139.99181446 -208.875 163.8125 C-209.24314921 165.47924189 -209.61164828 167.14590653 -209.98046875 168.8125 C-211.44830519 175.55521156 -212.8052253 182.2921561 -213.9309082 189.1015625 C-214.19723808 190.7095874 -214.19723808 190.7095874 -214.46894836 192.35009766 C-214.6029454 193.16269043 -214.73694244 193.9752832 -214.875 194.8125 C-213.66708549 194.80250725 -213.66708549 194.80250725 -212.43476868 194.79231262 C-204.74478495 194.73152344 -197.05492208 194.68618806 -189.36475849 194.65706348 C-185.41372009 194.64158566 -181.46288457 194.62068705 -177.51196289 194.58618164 C-154.87246456 194.3940961 -133.61406454 194.95468061 -111.8125 201.8125 C-91.92100816 207.80577404 -71.540791 211.71205236 -51.20825195 215.88322449 C-35.06822423 219.19976852 -18.97635026 222.72463525 -2.9375 226.5 C-1.04741211 226.94182617 -1.04741211 226.94182617 0.88085938 227.39257812 C2.10482422 227.67939453 3.32878906 227.96621094 4.58984375 228.26171875 C5.72921387 228.52774902 6.86858398 228.7937793 8.04248047 229.06787109 C10.61087961 229.68830649 13.14721762 230.37151351 15.69140625 231.08203125 C19.09854407 231.80687172 20.81928185 231.60176184 24.125 230.8125 C24.21998779 229.99499268 24.31497559 229.17748535 24.4128418 228.33520508 C26.32461504 212.05506607 28.50529532 195.91270198 31.40893555 179.77539062 C32.5449491 173.39857377 33.52391064 167.07379804 34.125 160.625 C34.7955948 153.43234356 36.12725385 146.45195999 37.5625 139.375 C41.10130681 121.63677958 43.33454222 103.85419285 43.5 85.75 C43.51393799 84.79335449 43.52787598 83.83670898 43.54223633 82.85107422 C43.40772331 63.09338342 29.58877126 49.48232211 16.625 36 C10.44967833 29.98186834 3.48838855 24.56132425 -4.0625 20.375 C-6.875 18.8125 -6.875 18.8125 -7.875 16.8125 C-9.93105705 16.32114808 -9.93105705 16.32114808 -12.44799805 16.12646484 C-13.42379318 16.02651215 -14.39958832 15.92655945 -15.404953 15.82357788 C-16.4714357 15.72453156 -17.5379184 15.62548523 -18.63671875 15.5234375 C-19.73409866 15.41528717 -20.83147858 15.30713684 -21.96211243 15.19570923 C-24.29795248 14.9677341 -26.63425334 14.74444067 -28.97094727 14.52539062 C-32.50340402 14.19305971 -36.03387803 13.84388281 -39.56445312 13.4921875 C-74.08815464 10.12470202 -119.76806202 11.84692385 -145.2421875 39.10546875 Z M3.125 17.8125 C6.61040829 21.34879016 10.19157862 24.72988065 13.875 28.0625 C46.21730709 57.64974002 46.21730709 57.64974002 47.28613281 74.32666016 C47.6434149 100.0634338 44.30008821 124.38350479 39.89331055 149.65039062 C37.73003049 162.07819562 35.73073677 174.52257295 33.875 187 C33.75012207 187.83957245 33.62524414 188.6791449 33.49658203 189.54415894 C31.70947429 201.59847657 29.98262287 213.6610363 28.41870117 225.74658203 C28.03529029 228.44352539 27.58008023 231.12683531 27.125 233.8125 C39.20954802 237.72647242 51.11541272 240.25172032 63.6875 242 C64.57019562 242.12634827 65.45289124 242.25269653 66.36233521 242.38287354 C83.26012679 244.7897696 100.06729989 246.21384781 117.125 246.8125 C118.44516113 246.87026611 118.44516113 246.87026611 119.79199219 246.92919922 C134.00733631 247.52125976 148.04195612 245.58111206 162.125 243.8125 C162.20016846 242.98226318 162.20016846 242.98226318 162.27685547 242.13525391 C162.68303726 237.70962239 163.10307404 233.2853015 163.546875 228.86328125 C163.6303418 228.02192627 163.71380859 227.18057129 163.79980469 226.3137207 C164.13891713 223.7054572 164.65953549 221.18712954 165.25 218.625 C167.52341785 208.32244766 166.34212333 197.16977655 165.0456543 186.80395508 C164.1051909 179.16139373 163.49954938 171.49676544 162.87796021 163.82345581 C159.8627817 127.04079028 154.21818045 98.9090814 126.6875 72.37109375 C124.96527899 70.65317829 123.39365727 68.84834357 121.8125 67 C114.68507253 58.79073086 107.34643812 51.61013684 98.125 45.8125 C97.39925781 45.35552734 96.67351562 44.89855469 95.92578125 44.42773438 C79.742938 34.30380938 65.91721322 28.53126495 47.125 25.0078125 C42.54463129 24.13165421 38.19053506 23.03884961 33.75 21.625 C24.05948214 18.65163613 13.26337631 17.56771023 3.125 17.8125 Z M-226.875 205.8125 C-227.76486099 206.34853851 -228.65472198 206.88457703 -229.57154846 207.43685913 C-231.17326072 208.40684453 -232.77200669 209.38174053 -234.36816406 210.36083984 C-238.83515047 212.94758519 -243.55821685 214.98378099 -248.25 217.125 C-261.03312154 223.10811906 -272.88843259 230.24782107 -284.83790588 237.70805359 C-289.49792174 240.60713488 -294.23700052 243.34983323 -299.00097656 246.07324219 C-312.23107028 253.66940229 -323.87743983 261.40568094 -331.875 274.8125 C-331.545 275.4725 -331.215 276.1325 -330.875 276.8125 C-329.988125 275.94625 -329.10125 275.08 -328.1875 274.1875 C-319.27882566 266.70421356 -310.0144012 263.7529151 -298.58203125 264.43359375 C-293.59041843 264.94380075 -289.478629 265.82228484 -284.875 267.8125 C-284.28219238 268.06531738 -283.68938477 268.31813477 -283.07861328 268.57861328 C-274.32458168 272.39137489 -267.51988175 276.61295902 -260.61328125 283.3046875 C-250.09795966 292.93498202 -236.85650331 298.35882572 -223.875 303.8125 C-222.90594727 304.22677246 -221.93689453 304.64104492 -220.93847656 305.06787109 C-198.21653607 314.74138693 -175.32400143 321.31522583 -150.875 324.8125 C-150.10124023 324.92964355 -149.32748047 325.04678711 -148.53027344 325.16748047 C-123.1165234 328.91988367 -97.83398273 327.62212157 -72.875 321.8125 C-71.97233398 321.60383301 -71.06966797 321.39516602 -70.13964844 321.18017578 C-48.04485272 315.86982048 -23.5618826 307.97526896 -4.875 294.8125 C-3.31677233 293.75534946 -1.75674125 292.70085424 -0.1953125 291.6484375 C3.10346799 289.41673854 6.3857096 287.16348675 9.65625 284.890625 C12.31806582 283.04488953 14.9910329 281.23123492 17.71875 279.484375 C28.20415603 272.75888729 34.84865671 265.56759311 41.125 254.8125 C41.63546875 253.94367188 42.1459375 253.07484375 42.671875 252.1796875 C45.19084727 248.23273636 45.19084727 248.23273636 46.125 243.8125 C45.58721924 243.65168945 45.04943848 243.49087891 44.49536133 243.32519531 C41.97591768 242.57148572 39.4567091 241.81699315 36.9375 241.0625 C36.09251953 240.80984375 35.24753906 240.5571875 34.37695312 240.296875 C33.51650391 240.0390625 32.65605469 239.78125 31.76953125 239.515625 C30.86235352 239.24435791 29.95517578 238.97309082 29.02050781 238.69360352 C27.01542888 238.08345766 25.01500418 237.45788408 23.01855469 236.82006836 C15.33233618 234.37851586 7.64748864 232.49462508 -0.25 230.875 C-2.74096777 230.35325762 -5.23185225 229.83111742 -7.72265625 229.30859375 C-9.55207764 228.92743408 -9.55207764 228.92743408 -11.41845703 228.53857422 C-16.18220937 227.53791032 -20.93434655 226.48708667 -25.6875 225.4375 C-32.7060947 223.89521545 -39.73748238 222.42599612 -46.78125 221.00390625 C-66.93498766 216.93122696 -86.97395351 212.55212153 -106.96582031 207.74853516 C-113.15819229 206.26277437 -119.3594763 204.81554824 -125.5625 203.375 C-126.61348877 203.1279834 -127.66447754 202.8809668 -128.74731445 202.62646484 C-129.72144287 202.40039551 -130.69557129 202.17432617 -131.69921875 201.94140625 C-132.53541748 201.74619385 -133.37161621 201.55098145 -134.2331543 201.34985352 C-139.83065159 200.21131812 -145.28814055 199.67869112 -150.99682617 199.60375977 C-152.00820145 199.58908409 -152.00820145 199.58908409 -153.04000854 199.57411194 C-155.24930934 199.54444445 -157.45855093 199.5228526 -159.66796875 199.50390625 C-160.81084067 199.49404851 -160.81084067 199.49404851 -161.97680092 199.48399162 C-166.01063813 199.45152253 -170.04445033 199.42704241 -174.07836914 199.4074707 C-177.39256681 199.38968475 -180.70590931 199.35489148 -184.01977539 199.30493164 C-188.0480088 199.24430612 -192.07545248 199.21393932 -196.10412025 199.20429802 C-197.62660258 199.1958154 -199.1490679 199.17717831 -200.67128563 199.1475544 C-210.72815977 198.96237698 -218.15452231 200.35790974 -226.875 205.8125 Z " fill="#010104" transform="translate(386.875,131.1875)"/>
<path d="M0 0 C2.046875 1.46484375 2.046875 1.46484375 3.046875 4.46484375 C-28.26953514 21.2474412 -28.26953514 21.2474412 -45.01953125 16.6171875 C-47.85453871 15.50356939 -50.22471646 14.26069673 -52.765625 12.58984375 C-53.53519531 12.09742188 -54.30476563 11.605 -55.09765625 11.09765625 C-57.19495938 9.2520295 -57.59323075 8.19060019 -57.953125 5.46484375 C-39.1080775 -11.02016976 -22.11752313 -12.04957546 0 0 Z " fill="#232550" transform="translate(111.953125,408.53515625)"/>
<path d="M0 0 C0 3 0 3 -2.30859375 5.34765625 C-3.34640924 6.25850945 -4.38976614 7.16307335 -5.4375 8.0625 C-16.08899409 17.58436149 -23.53656035 27.29983157 -30 40 C-30.5873291 41.15016602 -31.1746582 42.30033203 -31.77978516 43.48535156 C-44.77693185 69.07246074 -55.96643894 95.08555452 -63 123 C-63.29390625 124.16160645 -63.5878125 125.32321289 -63.890625 126.52001953 C-67.01217153 138.9534336 -70.07964995 151.31611694 -72 164 C-74.31 164 -76.62 164 -79 164 C-72.75707331 126.34856014 -63.55495353 87.27736925 -44.14160156 54.01806641 C-42.40160433 50.94218593 -40.94048693 47.76071638 -39.4375 44.5625 C-30.34621086 26.37992173 -15.87269458 12.40054264 0 0 Z " fill="#F5F5F7" transform="translate(251,162)"/>
<path d="M0 0 C-3.23369612 3.69915238 -6.87438518 5.63379082 -11.25 7.6875 C-23.13959358 13.46081227 -34.49121393 19.97469806 -45.64624023 27.0559082 C-51.1947658 30.55419819 -56.85774015 33.82646065 -62.5625 37.0625 C-66.04192853 39.04120657 -69.52132886 41.01996216 -73 43 C-73.69512695 43.39541992 -74.39025391 43.79083984 -75.10644531 44.19824219 C-83.80591535 49.17878769 -91.93882003 54.67816516 -99.92456055 60.74780273 C-100.64297119 61.28477783 -101.36138184 61.82175293 -102.1015625 62.375 C-102.73400879 62.85710937 -103.36645508 63.33921875 -104.01806641 63.8359375 C-106.32507018 65.19092567 -108.36883456 65.60825756 -111 66 C-110.73669343 62.84032118 -109.88423493 61.88647555 -107.578125 59.625 C-106.4808624 58.73485806 -105.37027189 57.86100452 -104.25 57 C-103.6307666 56.51998535 -103.0115332 56.0399707 -102.37353516 55.54541016 C-96.4610053 51.10633627 -90.17006103 47.47556419 -83.70996094 43.89990234 C-77.95197161 40.70944637 -72.32205827 37.37260588 -66.7374115 33.88722229 C-54.16279088 26.04377452 -41.50888 19.00221726 -28.03125 12.81689453 C-20.89507767 9.5222524 -14.38004592 5.87544085 -7.85522461 1.52368164 C-4.88904987 -0.05920819 -3.29861662 -0.34867737 0 0 Z " fill="#EEEEF5" transform="translate(174,332)"/>
<path d="M0 0 C2.99261117 0.59631517 4.96481747 1.47154169 7.3984375 3.30078125 C8.03571777 3.77700928 8.67299805 4.2532373 9.32958984 4.74389648 C10.0045752 5.26153564 10.67956055 5.7791748 11.375 6.3125 C12.07963379 6.85011963 12.78426758 7.38773926 13.51025391 7.94165039 C15.68414482 9.61460547 17.84464186 11.30324977 20 13 C20.96679688 13.75845215 20.96679688 13.75845215 21.953125 14.53222656 C32.80356933 23.14305712 41.47668258 32.65542623 48 45 C48.25 47.9375 48.25 47.9375 48 50 C45.525 50.495 45.525 50.495 43 51 C41.9790625 49.3603125 41.9790625 49.3603125 40.9375 47.6875 C40.46828125 46.94886719 39.9990625 46.21023437 39.515625 45.44921875 C38.52685763 43.85139106 37.57649036 42.22896334 36.671875 40.58203125 C28.92874818 27.11306592 16.19076257 16.39321739 4 7 C2.33151866 5.66893818 0.66435687 4.33621546 -1 3 C-0.67 2.01 -0.34 1.02 0 0 Z " fill="#F3F3F8" transform="translate(372,165)"/>
<path d="M0 0 C4.533043 2.1855743 6.75964609 4.51929217 9 9 C0.20294908 9.38064163 -8.31163005 8.20731692 -17 7 C-13.73933478 -0.87994096 -7.67555521 -1.00115938 0 0 Z " fill="#22244F" transform="translate(383,135)"/>
<path d="M0 0 C-1.16063965 0.67820801 -1.16063965 0.67820801 -2.34472656 1.37011719 C-11.23673578 6.56831991 -20.12199873 11.7779076 -29 17 C-30.05848145 17.62245605 -31.11696289 18.24491211 -32.20751953 18.88623047 C-34.9126949 20.48081686 -37.61354924 22.08240637 -40.3125 23.6875 C-41.08561523 24.14286133 -41.85873047 24.59822266 -42.65527344 25.06738281 C-47.68804773 28.07458231 -52.37618064 31.39674986 -57 35 C-54.21444372 28.90495836 -48.34461232 25.75547505 -43 22 C-42.13785889 21.39164307 -42.13785889 21.39164307 -41.25830078 20.77099609 C-7.84730764 -2.61576921 -7.84730764 -2.61576921 0 0 Z " fill="#393C8E" transform="translate(124,357)"/>
<path d="M0 0 C-3.23340735 3.69882205 -6.87396517 5.63491113 -11.25 7.6875 C-19.70735493 11.77443408 -27.85774935 16.32253686 -36 21 C-36.33 19.68 -36.66 18.36 -37 17 C-36.49251221 16.76925781 -35.98502441 16.53851563 -35.4621582 16.30078125 C-25.7907472 11.87856599 -16.48316007 7.40219145 -7.6640625 1.43359375 C-4.8067965 -0.10396728 -3.19000677 -0.31900068 0 0 Z " fill="#DDDDE4" transform="translate(174,332)"/>
<path d="M0 0 C0.33 0.66 0.66 1.32 1 2 C3.64 1.67 6.28 1.34 9 1 C6.2100757 3.12898551 3.36416766 5.12624441 0.4375 7.0625 C-0.32691406 7.56910156 -1.09132813 8.07570313 -1.87890625 8.59765625 C-2.57886719 9.06042969 -3.27882812 9.52320313 -4 10 C-4.99 10.66 -5.98 11.32 -7 12 C-5.44298069 7.32894208 -2.91552627 3.91294315 0 0 Z " fill="#2F3283" transform="translate(62,396)"/>
<path d="M0 0 C0 3 0 3 -2.44921875 5.5234375 C-3.52125942 6.48228133 -4.60106903 7.43249248 -5.6875 8.375 C-6.75490084 9.31918932 -7.82131616 10.26449398 -8.88671875 11.2109375 C-9.40669434 11.67081055 -9.92666992 12.13068359 -10.46240234 12.60449219 C-12.72495138 14.65795841 -14.86164498 16.81800509 -17 19 C-17.99 18.67 -18.98 18.34 -20 18 C-13.71416778 11.53737875 -7.10715766 5.55246692 0 0 Z " fill="#C6C6D0" transform="translate(251,162)"/>
<path d="M0 0 C-2.76922851 3.07692057 -5.02850024 4.77800007 -9 6 C-9.99 6 -10.98 6 -12 6 C-12 5.34 -12 4.68 -12 4 C-4.71428571 -0.57142857 -4.71428571 -0.57142857 0 0 Z " fill="#E6E7EF" transform="translate(174,332)"/>
<path d="M0 0 C-3.63 1.98 -7.26 3.96 -11 6 C-11 4.68 -11 3.36 -11 2 C-4.5 -1.125 -4.5 -1.125 0 0 Z " fill="#E6E6EB" transform="translate(148,347)"/>
<path d="M0 0 C0 3 0 3 -1.96875 5.04296875 C-2.8040625 5.75066406 -3.639375 6.45835937 -4.5 7.1875 C-5.3353125 7.90292969 -6.170625 8.61835938 -7.03125 9.35546875 C-7.6809375 9.89816406 -8.330625 10.44085938 -9 11 C-9.66 10.67 -10.32 10.34 -11 10 C-9.73232923 8.70522938 -8.46073776 7.41429661 -7.1875 6.125 C-6.47980469 5.40570313 -5.77210938 4.68640625 -5.04296875 3.9453125 C-3 2 -3 2 0 0 Z " fill="#DDDDE7" transform="translate(251,162)"/>
<path d="M0 0 C0.99 0.33 1.98 0.66 3 1 C0.92141021 3.18092036 -1.21856618 4.96390469 -3.6875 6.6875 C-4.62142578 7.34298828 -4.62142578 7.34298828 -5.57421875 8.01171875 C-6.04472656 8.33785156 -6.51523438 8.66398438 -7 9 C-5.44499019 5.18315774 -2.96404505 2.80804268 0 0 Z " fill="#E4E4E7" transform="translate(230,181)"/>
</svg>
