<?xml version="1.0" encoding="UTF-8"?>
<!DOCTYPE svg PUBLIC "-//W3C//DTD SVG 1.1//EN" "http://www.w3.org/Graphics/SVG/1.1/DTD/svg11.dtd">
<svg xmlns="http://www.w3.org/2000/svg" version="1.1" width="600px" height="600px" style="shape-rendering:geometricPrecision; text-rendering:geometricPrecision; image-rendering:optimizeQuality; fill-rule:evenodd; clip-rule:evenodd" xmlns:xlink="http://www.w3.org/1999/xlink">
<g><path style="opacity:0.975" fill="#020202" d="M 333.5,34.5 C 367.997,33.9764 401.331,39.8097 433.5,52C 438.322,55.911 443.322,59.5776 448.5,63C 452.036,66.2012 455.203,69.7012 458,73.5C 460.158,81.7967 462.158,90.1301 464,98.5C 464,108.5 464,118.5 464,128.5C 467.469,126.997 471.136,126.33 475,126.5C 487.804,126.425 500.304,128.258 512.5,132C 528.345,143.423 544.012,155.09 559.5,167C 571.629,173.48 582.796,181.313 593,190.5C 594.923,200.841 594.923,211.175 593,221.5C 586.009,244.689 575.509,266.023 561.5,285.5C 570.773,298.991 575.607,313.991 576,330.5C 576.755,338.651 577.255,346.818 577.5,355C 575.37,375.773 572.703,396.439 569.5,417C 571.796,432.113 569.963,446.946 564,461.5C 560.703,464.567 556.869,466.733 552.5,468C 531.996,471.543 511.663,475.876 491.5,481C 420.971,488.755 350.971,499.755 281.5,514C 237.728,519.358 193.894,519.858 150,515.5C 121.421,517.737 93.2539,515.237 65.5,508C 45.4762,503.161 25.4762,498.327 5.5,493.5C 5.0448,464.442 6.5448,435.442 10,406.5C 13.293,395.995 15.9596,385.328 18,374.5C 21.6218,365.544 27.4552,358.377 35.5,353C 42.8333,348.667 50.1667,344.333 57.5,340C 85.6115,328.741 113.945,318.074 142.5,308C 176.566,292.802 209.566,275.802 241.5,257C 242.888,256.111 242.722,255.611 241,255.5C 224.242,261.897 207.409,268.064 190.5,274C 182.553,275.033 174.887,274.033 167.5,271C 163.24,266.144 160.573,260.477 159.5,254C 159.12,241.515 162.62,230.348 170,220.5C 175.616,214.762 181.116,208.929 186.5,203C 210.133,186.234 236.466,177.901 265.5,178C 275.534,179.567 285.034,182.734 294,187.5C 294.5,187.167 295,186.833 295.5,186.5C 296.706,182.263 297.373,177.93 297.5,173.5C 294.987,142.06 291.487,110.726 287,79.5C 286.483,70.1555 286.65,60.8222 287.5,51.5C 296.25,47.2716 304.917,42.7716 313.5,38C 320.303,36.823 326.969,35.6563 333.5,34.5 Z M 251.5,211.5 C 253.199,211.34 254.866,211.506 256.5,212C 255.167,213.333 253.833,214.667 252.5,216C 238.062,225.887 222.729,234.22 206.5,241C 203.947,241.851 201.614,241.518 199.5,240C 202.13,236.368 205.13,233.035 208.5,230C 221.426,220.418 235.76,214.252 251.5,211.5 Z M 271.5,234.5 C 267.307,241.694 261.307,246.694 253.5,249.5C 258.91,243.753 264.91,238.753 271.5,234.5 Z"/></g>
<g><path style="opacity:1" fill="#fcfcfc" d="M 325.5,40.5 C 360.428,39.5612 394.428,44.7278 427.5,56C 435.286,61.4513 442.786,67.2846 450,73.5C 453.101,80.8967 455.434,88.5633 457,96.5C 456.367,117.5 456.534,138.5 457.5,159.5C 457.789,173.826 455.956,187.826 452,201.5C 447.932,207.913 444.265,214.579 441,221.5C 438.242,229.449 434.909,237.115 431,244.5C 428.413,237.667 425.579,231 422.5,224.5C 424.319,217.239 425.819,209.906 427,202.5C 427.995,178.29 429.495,154.123 431.5,130C 431.687,115.376 426.02,103.709 414.5,95C 406.955,91.0606 399.288,87.394 391.5,84C 375.956,79.5307 360.29,75.5307 344.5,72C 332.5,71.3333 320.5,71.3333 308.5,72C 302.315,72.8356 296.482,74.669 291,77.5C 289.661,70.5736 289.161,63.5736 289.5,56.5C 296.723,53.2188 303.723,49.3854 310.5,45C 315.577,43.32 320.577,41.82 325.5,40.5 Z"/></g>
<g><path style="opacity:1" fill="#323232" d="M 310.5,77.5 C 321.877,77.1744 333.21,77.6744 344.5,79C 357.538,82.1761 370.538,85.5095 383.5,89C 397.153,92.9027 408.987,99.7361 419,109.5C 422.223,115.94 424.056,122.773 424.5,130C 422.562,150.098 421.396,170.264 421,190.5C 420.103,199.611 418.603,208.611 416.5,217.5C 410.732,210.476 404.398,203.976 397.5,198C 389.336,192.417 381.003,187.084 372.5,182C 369.326,180.275 365.993,178.942 362.5,178C 347.3,177.183 332.3,178.517 317.5,182C 312.713,183.893 308.047,186.06 303.5,188.5C 303.592,153.55 299.592,118.883 291.5,84.5C 297.552,81.152 303.886,78.8187 310.5,77.5 Z"/></g>
<g><path style="opacity:1" fill="#fbfbfb" d="M 466.5,131.5 C 481.526,131.394 496.193,133.56 510.5,138C 535.271,157.439 560.604,176.105 586.5,194C 590.075,207.882 588.242,221.049 581,233.5C 572.339,220.164 562.173,207.997 550.5,197C 537.344,185.509 523.344,175.176 508.5,166C 494.79,158.406 480.123,154.24 464.5,153.5C 463.835,146.52 463.502,139.52 463.5,132.5C 464.791,132.737 465.791,132.404 466.5,131.5 Z"/></g>
<g><path style="opacity:1" fill="#323232" d="M 464.5,156.5 C 480.592,159.547 495.592,165.38 509.5,174C 534.481,190.416 555.981,210.582 574,234.5C 576.156,238.262 576.823,242.262 576,246.5C 573.884,252.186 571.384,257.686 568.5,263C 560.863,262.453 553.197,261.786 545.5,261C 512.145,251.905 480.312,239.071 450,222.5C 450.889,217.232 453.222,212.565 457,208.5C 462.793,191.673 465.293,174.34 464.5,156.5 Z"/></g>
<g><path style="opacity:1" fill="#fbfbfb" d="M 343.5,184.5 C 352.129,183.795 360.462,184.962 368.5,188C 378.167,194.333 387.833,200.667 397.5,207C 406.151,215.98 413.651,225.814 420,236.5C 425.824,246.403 426.824,256.736 423,267.5C 420.199,274.646 415.032,277.813 407.5,277C 402.38,274.94 397.38,272.607 392.5,270C 381.002,262.417 369.335,255.083 357.5,248C 348.732,237.898 338.732,229.231 327.5,222C 319.653,216.163 314.153,208.663 311,199.5C 309.859,197.391 308.359,195.558 306.5,194C 310.545,191.427 314.878,189.427 319.5,188C 327.644,186.871 335.644,185.704 343.5,184.5 Z"/></g>
<g><path style="opacity:0.999" fill="#fcfcfc" d="M 253.5,184.5 C 266.011,184.616 278.011,187.116 289.5,192C 292.087,193.525 292.92,195.692 292,198.5C 289.688,206.799 285.521,213.966 279.5,220C 267.702,226.461 257.035,234.461 247.5,244C 232.822,251.448 217.489,257.115 201.5,261C 173.359,274.524 162.526,266.024 169,235.5C 177.761,220.126 189.927,208.293 205.5,200C 220.739,192.086 236.739,186.919 253.5,184.5 Z M 251.5,211.5 C 235.76,214.252 221.426,220.418 208.5,230C 205.13,233.035 202.13,236.368 199.5,240C 201.614,241.518 203.947,241.851 206.5,241C 222.729,234.22 238.062,225.887 252.5,216C 253.833,214.667 255.167,213.333 256.5,212C 254.866,211.506 253.199,211.34 251.5,211.5 Z"/></g>
<g><path style="opacity:1" fill="#323232" d="M 299.5,198.5 C 301.017,198.511 302.184,199.177 303,200.5C 305.812,206.79 309.145,212.79 313,218.5C 321.925,226.762 331.425,234.262 341.5,241C 345.535,244.7 349.202,248.7 352.5,253C 366.752,262.042 380.918,271.209 395,280.5C 410.425,301.014 426.091,321.347 442,341.5C 458.093,362.932 468.259,386.932 472.5,413.5C 472.167,415.5 471.833,417.5 471.5,419.5C 458.531,422.659 445.531,425.659 432.5,428.5C 433.676,412.199 429.843,397.199 421,383.5C 412.478,370.652 402.645,358.818 391.5,348C 371.903,331.204 351.236,315.871 329.5,302C 336.744,297.757 342.244,291.924 346,284.5C 346.667,283.167 346.667,281.833 346,280.5C 343.545,275.681 341.545,270.681 340,265.5C 332.58,254.744 323.746,245.244 313.5,237C 305.759,230.919 297.759,225.252 289.5,220C 295.114,213.936 298.448,206.769 299.5,198.5 Z"/></g>
<g><path style="opacity:0.918" fill="#050505" d="M 262.5,203.5 C 266.851,203.205 268.684,205.205 268,209.5C 264.167,216 259,221.167 252.5,225C 240.265,233.286 227.265,240.286 213.5,246C 206.828,249.418 200.328,249.251 194,245.5C 192.15,242.537 192.15,239.537 194,236.5C 197.5,231.667 201.667,227.5 206.5,224C 215.864,219.318 225.198,214.651 234.5,210C 243.176,206.581 252.176,204.914 261.5,205C 262.056,204.617 262.389,204.117 262.5,203.5 Z M 251.5,211.5 C 235.76,214.252 221.426,220.418 208.5,230C 205.13,233.035 202.13,236.368 199.5,240C 201.614,241.518 203.947,241.851 206.5,241C 222.729,234.22 238.062,225.887 252.5,216C 253.833,214.667 255.167,213.333 256.5,212C 254.866,211.506 253.199,211.34 251.5,211.5 Z"/></g>
<g><path style="opacity:0.998" fill="#040404" d="M 343.5,208.5 C 351.475,209.199 359.475,209.699 367.5,210C 375.5,213.333 383.5,216.667 391.5,220C 396.774,224.274 400.941,229.441 404,235.5C 405.457,243.429 402.29,248.263 394.5,250C 391.5,250.667 388.5,250.667 385.5,250C 381.334,247.083 377.001,244.416 372.5,242C 364.463,234.239 355.963,227.073 347,220.5C 344.391,217.617 342.558,214.283 341.5,210.5C 342.243,209.818 342.909,209.151 343.5,208.5 Z"/></g>
<g><path style="opacity:0.998" fill="#323232" d="M 350.5,215.5 C 363.998,215.735 376.665,219.235 388.5,226C 392.092,228.921 394.925,232.421 397,236.5C 397.667,238.167 397.667,239.833 397,241.5C 393.399,244.366 389.566,244.866 385.5,243C 374.554,235.721 363.888,228.054 353.5,220C 351.859,218.871 350.859,217.371 350.5,215.5 Z"/></g>
<g><path style="opacity:0.999" fill="#fdfdfd" d="M 447.5,223.5 C 478.292,242.556 511.292,256.723 546.5,266C 552.96,266.079 559.293,266.912 565.5,268.5C 563.305,272.862 559.972,276.028 555.5,278C 540.609,283.777 525.276,287.777 509.5,290C 482.509,292.121 459.676,283.621 441,264.5C 439.318,260.107 437.484,255.773 435.5,251.5C 440.09,242.389 444.09,233.055 447.5,223.5 Z"/></g>
<g><path style="opacity:1" fill="#fcfcfc" d="M 284.5,224.5 C 304.308,235.805 320.808,250.805 334,269.5C 336.184,274.7 337.517,280.034 338,285.5C 334.225,290.113 329.725,293.78 324.5,296.5C 308.723,286.092 294.723,273.592 282.5,259C 277.732,254.231 272.399,250.231 266.5,247C 273.117,239.895 279.117,232.395 284.5,224.5 Z"/></g>
<g><path style="opacity:1" fill="#fbfbfb" d="M 259.5,251.5 C 264.183,253.341 268.517,255.841 272.5,259C 283.5,270 294.5,281 305.5,292C 308.58,294.29 311.747,296.457 315,298.5C 315.706,300.971 315.373,303.305 314,305.5C 306.999,313.246 298.832,319.413 289.5,324C 288.167,324.667 286.833,324.667 285.5,324C 275.722,312.954 267.556,300.788 261,287.5C 253.511,279.01 244.678,272.344 234.5,267.5C 242.728,261.893 251.062,256.559 259.5,251.5 Z"/></g>
<g><path style="opacity:1" fill="#323232" d="M 431.5,263.5 C 447.513,284.344 468.847,295.511 495.5,297C 516.139,298.105 535.806,294.272 554.5,285.5C 560.139,295.233 564.139,305.733 566.5,317C 554.647,323.518 543.313,330.852 532.5,339C 529.628,341.537 527.128,344.37 525,347.5C 518.966,358.853 512.966,370.186 507,381.5C 506.189,392.547 506.356,403.547 507.5,414.5C 498.206,416.096 488.873,417.429 479.5,418.5C 480.033,409.925 478.866,401.592 476,393.5C 468.151,369.129 456.151,347.129 440,327.5C 428.209,312.707 416.043,298.207 403.5,284C 419.09,285.93 428.423,279.097 431.5,263.5 Z"/></g>
<g><path style="opacity:1" fill="#fcfcfc" d="M 224.5,272.5 C 237.321,275.495 247.821,282.161 256,292.5C 261.268,304.044 268.268,314.378 277,323.5C 276.985,327.559 275.152,330.726 271.5,333C 264.225,339.304 255.892,343.471 246.5,345.5C 238.162,336.656 230.328,327.322 223,317.5C 213.538,306.698 202.372,298.198 189.5,292C 201.842,286.501 213.509,280.001 224.5,272.5 Z"/></g>
<g><path style="opacity:1" fill="#323232" d="M 178.5,296.5 C 193.962,301.494 207.129,310.161 218,322.5C 226.167,332.667 234.333,342.833 242.5,353C 249.729,352.109 256.729,350.442 263.5,348C 267,352.833 270.5,357.667 274,362.5C 295.498,385.348 319.331,405.182 345.5,422C 358.383,427.942 371.383,433.608 384.5,439C 347.034,443.66 309.7,449.16 272.5,455.5C 264.972,436.114 254.139,418.781 240,403.5C 234.597,393.43 227.097,385.263 217.5,379C 199.337,357.755 177.67,341.088 152.5,329C 142.303,327.925 132.303,325.925 122.5,323C 141.775,315.2 160.442,306.366 178.5,296.5 Z"/></g>
<g><path style="opacity:0.999" fill="#fcfcfc" d="M 320.5,302.5 C 322.564,302.687 324.564,303.187 326.5,304C 351.193,321.611 374.693,340.778 397,361.5C 405.741,372.646 413.741,384.312 421,396.5C 425.223,407.524 426.39,418.858 424.5,430.5C 415.568,432.753 406.568,434.753 397.5,436.5C 392.668,435.5 388.001,434 383.5,432C 372.432,426.468 361.099,421.468 349.5,417C 318.369,397.879 290.869,374.379 267,346.5C 266.333,345.5 266.333,344.5 267,343.5C 271.833,340 276,335.833 279.5,331C 281.258,331.344 283.091,331.844 285,332.5C 297.794,328.768 308.46,321.768 317,311.5C 318.741,308.691 319.908,305.691 320.5,302.5 Z"/></g>
<g><path style="opacity:1" fill="#fcfcfc" d="M 564.5,323.5 C 566.776,323.756 567.943,325.09 568,327.5C 569.164,336.135 569.997,344.802 570.5,353.5C 567.617,373.466 564.95,393.466 562.5,413.5C 546.44,413.617 530.44,413.617 514.5,413.5C 513.857,408.383 513.524,403.216 513.5,398C 513.404,392.087 513.904,386.254 515,380.5C 520.842,370.817 526.176,360.817 531,350.5C 541.413,340.401 552.58,331.401 564.5,323.5 Z"/></g>
<g><path style="opacity:1" fill="#323232" d="M 115.5,324.5 C 119.217,325.527 122.55,327.361 125.5,330C 132.288,332.447 139.288,333.78 146.5,334C 149.618,335.059 152.618,336.392 155.5,338C 161.835,342.503 168.502,346.503 175.5,350C 180.268,354.769 185.601,358.769 191.5,362C 194.464,365.966 197.797,369.633 201.5,373C 180.37,372.711 162.87,380.544 149,396.5C 133.849,415.145 125.016,436.478 122.5,460.5C 113.396,459.372 104.396,457.705 95.5,455.5C 86.087,434.914 72.087,418.081 53.5,405C 48.0315,402.873 42.3648,401.706 36.5,401.5C 30.1349,402.342 23.8015,403.342 17.5,404.5C 19.6629,395.181 21.8296,385.847 24,376.5C 26.98,370.709 30.8134,365.543 35.5,361C 44.5004,354.831 53.8338,349.164 63.5,344C 80.8158,337.176 98.1492,330.676 115.5,324.5 Z"/></g>
<g><path style="opacity:0.997" fill="#070707" d="M 312.5,336.5 C 317.371,336.192 322.037,337.025 326.5,339C 348.105,350.568 367.272,365.401 384,383.5C 390.845,391.212 393.845,400.212 393,410.5C 391.534,412.325 389.701,412.825 387.5,412C 357.964,398.44 332.464,379.607 311,355.5C 308.123,351.211 307.123,346.544 308,341.5C 309.025,339.313 310.525,337.646 312.5,336.5 Z"/></g>
<g><path style="opacity:0.998" fill="#323232" d="M 314.5,339.5 C 321.467,340.324 327.8,342.824 333.5,347C 352.191,359.356 368.691,374.189 383,391.5C 383.293,396.39 385.126,400.557 388.5,404C 377.39,399.778 366.724,394.445 356.5,388C 345.213,379.714 334.213,371.048 323.5,362C 317.938,357.289 314.272,351.456 312.5,344.5C 312.437,342.486 313.103,340.819 314.5,339.5 Z"/></g>
<g><path style="opacity:1" fill="#fdfdfd" d="M 191.5,377.5 C 196.511,377.334 201.511,377.501 206.5,378C 213.667,384.5 220.833,391 228,397.5C 234.027,407.549 241.027,416.882 249,425.5C 253,432.167 257,438.833 261,445.5C 263.354,449.203 264.854,453.203 265.5,457.5C 249.557,460.324 233.557,462.824 217.5,465C 188.369,466.361 159.369,465.194 130.5,461.5C 132.436,432.461 144.436,408.294 166.5,389C 174.521,384.281 182.854,380.447 191.5,377.5 Z"/></g>
<g><path style="opacity:1" fill="#fcfcfc" d="M 30.5,407.5 C 38.5785,407.603 46.2452,409.436 53.5,413C 65.7425,423.342 76.2425,435.175 85,448.5C 86.0086,450.025 86.5086,451.692 86.5,453.5C 71.4728,451.826 56.4728,449.992 41.5,448C 31.8109,447.307 22.1442,447.473 12.5,448.5C 13.3676,435.157 14.3676,421.824 15.5,408.5C 20.7266,409.936 25.7266,409.603 30.5,407.5 Z"/></g>
</svg>
