<svg xmlns="http://www.w3.org/2000/svg" width="300" height="600" viewBox="0 0 300 600" version="1.1"><path d="M 144.250 141.220 L 142 142.306 142 144.769 L 142 147.233 144.250 146.630 L 146.500 146.027 148.250 146.014 L 150 146 150 143 L 150 140 148.250 140.068 L 146.500 140.135 144.250 141.220 M 144 147.895 L 141.500 148.590 141.600 149.795 L 141.700 151 141.850 152.060 L 142 153.121 145.750 152.810 L 149.500 152.500 149.816 149.750 L 150.133 147 148.316 147.100 L 146.500 147.199 144 147.895 M 146.813 154.068 L 144.127 154.793 143.563 154.230 L 143 153.667 143 157.958 L 143 162.250 146.177 161.615 L 149.354 160.979 149.743 160.590 L 150.133 160.201 149.816 156.771 L 149.500 153.342 146.813 154.068 M 145.750 162.716 L 143 163.133 143 166.066 L 143 169 144.566 169 L 146.131 169 148.066 167.965 L 150 166.930 150 164.465 L 150 162 149.250 162.150 L 148.500 162.300 145.750 162.716 M 145.250 169.706 L 143 170.139 143 173.070 L 143 176 144.918 176 L 146.836 176 148.418 175.393 L 150 174.786 150 171.893 L 150 169 148.750 169.136 L 147.500 169.272 145.250 169.706 M 137.745 174.250 L 137.277 175.500 138.068 177.500 L 138.859 179.500 138.930 176.250 L 139 173 138.607 173 L 138.214 173 137.745 174.250 M 145.750 176.716 L 143 177.133 143 180.630 L 143 184.127 146.250 183.813 L 149.500 183.500 149.810 179.750 L 150.121 176 149.310 176.150 L 148.500 176.300 145.750 176.716 M 138.185 186.500 L 137.973 192.500 137.350 195 L 136.728 197.500 137.911 196.403 L 139.094 195.306 138.746 187.903 L 138.397 180.500 138.185 186.500 M 143 188 L 143 191 145.893 191 L 148.786 191 149.393 189.418 L 150 187.836 150 186.418 L 150 185 146.500 185 L 143 185 143 188 M 143 193.981 L 143 195.962 145.443 196.575 L 147.886 197.188 148.943 196.535 L 150 195.882 150 193.941 L 150 192 146.500 192 L 143 192 143 193.981 M 143 201.750 L 143 206 144.566 206 L 146.131 206 148.066 204.965 L 150 203.930 150 200.715 L 150 197.500 146.500 197.500 L 143 197.500 143 201.750 M 146.203 206.361 L 142.906 207.440 143.203 210.970 L 143.500 214.500 145.750 214.187 L 148 213.874 148 214.937 L 148 216 145.437 216 L 142.873 216 143.187 219.250 L 143.500 222.500 146.750 222.813 L 150 223.127 150 214.063 L 150 205 149.750 205.141 L 149.500 205.281 146.203 206.361 M 143 227.937 L 143 231.873 146.250 232.261 L 149.500 232.649 146.250 233.450 L 143 234.250 143 236.566 L 143 238.882 143.954 239.472 L 144.908 240.061 147.454 239.422 L 150 238.783 150 231.392 L 150 224 146.500 224 L 143 224 143 227.937 M 127.219 237.250 L 126.193 238.500 125.461 244.500 L 124.729 250.500 123.615 251.235 L 122.500 251.969 123.750 251.985 L 125 252 125 254.441 L 125 256.882 124.128 257.421 L 123.255 257.960 122.639 254.230 L 122.022 250.500 122.011 246.250 L 122 242 120 242 L 118 242 118 245.889 L 118 249.778 116.358 249.639 L 114.715 249.500 114.313 250.634 L 113.911 251.768 115.455 253.313 L 117 254.857 117 255.593 L 117 256.328 118.673 260.119 L 120.345 263.910 121.747 262.205 L 123.148 260.500 122.528 261.729 L 121.908 262.957 124.185 266.036 L 126.461 269.114 126.591 274.362 L 126.721 279.610 127.937 281.883 L 129.154 284.156 128.687 285.374 L 128.220 286.591 129.988 286.724 L 131.757 286.857 131.062 283.679 L 130.367 280.500 131.084 278 L 131.801 275.500 132.016 276.500 L 132.231 277.500 132.463 278.500 L 132.695 279.500 132.848 281.559 L 133 283.618 134.533 285.559 L 136.066 287.500 135.783 281.599 L 135.500 275.698 136.695 275.284 L 137.891 274.870 138.260 280.185 L 138.630 285.500 138.683 276 L 138.737 266.500 138.112 270 L 137.487 273.500 136.512 272 L 135.537 270.500 135.377 267.591 L 135.218 264.682 137.109 262.653 L 139 260.623 138.955 255.061 L 138.910 249.500 137.536 246.500 L 136.162 243.500 136.081 249.128 L 136 254.756 134.610 258.128 L 133.221 261.500 132.507 267.799 L 131.792 274.097 130.646 273.710 L 129.500 273.322 129.640 267.911 L 129.780 262.500 130.392 254.651 L 131.004 246.802 131.497 246.005 L 131.990 245.207 131.359 240.603 L 130.728 236 129.487 236 L 128.245 236 127.219 237.250 M 146.927 241.103 L 144.354 242.049 144.790 245.024 L 145.227 248 147.613 248 L 150 248 150 244 L 150 240 149.750 240.079 L 149.500 240.158 146.927 241.103 M 105.591 252.628 L 106.132 259.405 106.747 260.399 L 107.361 261.393 104.276 259.197 L 101.191 257 100.596 257 L 100 257 100 258.550 L 100 260.099 107.750 269.357 L 115.500 278.614 120.157 282.307 L 124.815 286 125.824 286 L 126.833 286 127.245 284.766 L 127.656 283.532 125.729 280.266 L 123.802 277 122.995 277 L 122.187 277 122.605 274.750 L 123.022 272.500 122.407 273.811 L 121.793 275.122 119.896 273.406 L 118 271.690 118 270.175 L 118 268.660 114.816 261.580 L 111.632 254.500 109.916 252.500 L 108.200 250.500 107.850 248.583 L 107.500 246.666 106.275 246.258 L 105.050 245.850 105.591 252.628 M 147.191 249.827 L 144.881 250.155 145.191 252.225 L 145.500 254.296 147.202 255.363 L 148.904 256.429 149.523 255.811 L 150.141 255.192 149.821 252.346 L 149.500 249.500 147.191 249.827 M 144 259.500 L 144 262 147 262 L 150 262 150 259.500 L 150 257 147 257 L 144 257 144 259.500 M 146.610 266.164 L 143.720 268.828 144.355 270.483 L 144.990 272.138 147.245 271.445 L 149.500 270.752 149.816 270.476 L 150.133 270.201 149.816 266.850 L 149.500 263.500 146.610 266.164 M 110 265.319 L 110 266.882 110.931 267.457 L 111.862 268.033 112.420 267.130 L 112.978 266.227 111.489 264.991 L 110 263.755 110 265.319 M 92.678 271.656 L 92 272.333 92 274.006 L 92 275.679 96.022 279.400 L 100.044 283.121 101.999 282.500 L 103.955 281.879 105.526 283.190 L 107.096 284.500 109.049 286.440 L 111.003 288.380 109.751 289.261 L 108.500 290.143 113.500 289.530 L 118.500 288.917 117 290.035 L 115.500 291.152 116.938 290.764 L 118.375 290.375 118.704 289.387 L 119.034 288.398 116.267 287.305 L 113.500 286.213 116.185 286.106 L 118.870 286 121.685 287.002 L 124.500 288.005 121.520 285.531 L 118.540 283.058 115.936 282.486 L 113.332 281.914 109.020 277.520 L 104.708 273.126 100.604 272.490 L 96.500 271.854 94.928 271.416 L 93.355 270.978 92.678 271.656 M 146.952 274.838 L 144.682 276.676 145.400 277.838 L 146.118 279 148.059 279 L 150 279 150 276 L 150 273 149.611 273 L 149.222 273 146.952 274.838 M 96 275.981 L 96 276.962 98.750 277.612 L 101.500 278.262 103.500 280 L 105.500 281.738 108.334 282.409 L 111.168 283.080 110.523 282.037 L 109.879 280.995 105.439 278.972 L 101 276.950 101 275.975 L 101 275 98.500 275 L 96 275 96 275.981 M 85.667 280.667 L 85 281.333 85 282.621 L 85 283.909 88.581 284.581 L 92.163 285.253 89.803 286.877 L 87.443 288.500 85.472 290.196 L 83.500 291.893 81.256 293.696 L 79.012 295.500 79.989 297 L 80.966 298.500 88.233 294.776 L 95.500 291.051 99 290.304 L 102.500 289.557 103.500 289.394 L 104.500 289.231 105.950 289.115 L 107.400 289 106.450 288.116 L 105.500 287.233 99.433 285.116 L 93.367 283 91.433 282.921 L 89.500 282.842 90.750 282.338 L 92 281.833 92 280.917 L 92 280 89.167 280 L 86.333 280 85.667 280.667 M 144 283.383 L 144 285.767 146.174 286.335 L 148.347 286.904 149.174 286.393 L 150 285.882 150 283.441 L 150 281 147 281 L 144 281 144 283.383 M 143.903 290.750 L 144.632 293.500 147.316 293.816 L 150 294.133 150 291.066 L 150 288 146.586 288 L 143.173 288 143.903 290.750 M 103.461 291.851 L 101.500 292.215 100.500 292.977 L 99.500 293.739 95.850 294.396 L 92.201 295.053 90.850 296.695 L 89.500 298.337 92.888 297.666 L 96.276 296.995 93.388 299.213 L 90.500 301.431 89.765 302.466 L 89.031 303.500 89.015 304.160 L 89 304.819 93.330 304.754 L 97.660 304.688 98.580 302.626 L 99.500 300.563 103.500 297.830 L 107.500 295.097 110.250 294.469 L 113 293.841 113 293.026 L 113 292.210 109.211 291.849 L 105.423 291.487 103.461 291.851 M 121 291.839 L 121 292.812 126.064 293.509 L 131.128 294.205 131.666 293.667 L 132.204 293.129 128.352 292.477 L 124.500 291.825 122.750 291.345 L 121 290.865 121 291.839 M 130.750 295.706 L 133 296.139 133 297.770 L 133 299.400 134.113 298.287 L 135.226 297.174 134.554 296.087 L 133.882 295 131.191 295.136 L 128.500 295.272 130.750 295.706 M 147.229 297.188 L 147.625 298.375 148.813 298.771 L 150 299.167 150 297.583 L 150 296 148.417 296 L 146.833 296 147.229 297.188 M 107.417 301.400 L 103.500 304.800 104.068 305.385 L 104.637 305.970 111.568 302.374 L 118.500 298.777 118.917 298.389 L 119.333 298 115.333 298 L 111.333 298 107.417 301.400 M 122.750 298.662 L 124 299.167 125.250 298.662 L 126.500 298.158 124 298.158 L 121.500 298.158 122.750 298.662 M 137.624 304.109 L 138 307.333 138.250 307.578 L 138.500 307.823 143.145 306.641 L 147.790 305.459 145.895 303.119 L 144 300.778 144 302.889 L 144 305 142.814 305 L 141.629 305 139.439 302.943 L 137.249 300.885 137.624 304.109 M 149.570 308.887 L 149.022 309.773 150.511 311.009 L 152 312.245 152 310.122 L 152 308 151.059 308 L 150.118 308 149.570 308.887 M 145.250 309.662 L 144 310.167 144 311.414 L 144 312.662 146.498 313.999 L 148.997 315.336 149.667 314.667 L 150.336 313.997 148.999 311.498 L 147.662 309 147.081 309.079 L 146.500 309.158 145.250 309.662 M 138.667 310.667 L 138 311.333 138 313.148 L 138 314.962 140.547 315.601 L 143.093 316.240 143.458 315.870 L 143.823 315.500 143.295 312.750 L 142.767 310 141.050 310 L 139.333 310 138.667 310.667 M 155 315.441 L 155 317.882 155.819 318.388 L 156.638 318.894 156.206 315.947 L 155.773 313 155.387 313 L 155 313 155 315.441 M 139 319.578 L 139 321.923 142.967 322.991 L 146.934 324.059 147.949 325.780 L 148.963 327.500 149.844 326.165 L 150.724 324.829 151.612 324.915 L 152.500 325 152.417 323.500 L 152.333 322 152.167 319.662 L 152 317.323 145.500 317.278 L 139 317.233 139 319.578 M 139 330.500 L 139 334 141.374 334 L 143.747 334 142.124 330.533 L 140.500 327.065 139.750 327.033 L 139 327 139 330.500 M 144.500 331 L 146.051 334 147.494 334 L 148.937 334 148.313 332.250 L 147.690 330.500 146.722 329.250 L 145.755 328 144.352 328 L 142.949 328 144.500 331 M 149.384 329.154 L 149.999 330.500 150.616 332.250 L 151.233 334 152.183 334 L 153.133 334 152.816 331.259 L 152.500 328.517 150.635 328.163 L 148.770 327.809 149.384 329.154 M 144.417 337.726 L 143 339.143 143 338.071 L 143 337 141.250 337.002 L 139.500 337.004 139.290 340.002 L 139.081 343 140.009 343 L 140.937 343 140.362 341.500 L 139.786 340 140.776 340 L 141.767 340 142.290 342 L 142.813 344 143.906 344 L 145 344 145 342.300 L 145 340.600 146.200 341.800 L 147.400 343 149.735 343 L 152.070 343 151 341 L 149.930 339 150.965 339 L 152 339 152 337.567 L 152 336.134 148.917 336.221 L 145.834 336.309 144.417 337.726 M 148.645 345.483 L 148.076 346.966 146.788 346.570 L 145.500 346.173 142.250 345.612 L 139 345.050 139.032 346.775 L 139.064 348.500 140.392 350.250 L 141.720 352 143.694 352 L 145.667 352 146.325 351.342 L 146.983 350.684 145.741 349.178 L 144.500 347.673 146.663 348.825 L 148.826 349.977 149.223 351.168 L 149.620 352.360 151.414 351.671 L 153.208 350.983 152.635 349.492 L 152.063 348 153.031 348 L 154 348 154 346 L 154 344 151.607 344 L 149.214 344 148.645 345.483 M 143.187 356.303 L 143.500 358.500 145.507 358.788 L 147.515 359.075 149.506 357.620 L 151.497 356.164 150.998 355.723 L 150.500 355.283 146.687 354.694 L 142.875 354.105 143.187 356.303 M 146.250 360.347 L 143 361.414 143 363.764 L 143 366.115 147.250 365.807 L 151.500 365.500 151.813 362.250 L 152.127 359 150.813 359.141 L 149.500 359.281 146.250 360.347 M 143.002 368.250 L 143.004 369.500 146.502 369.749 L 150 369.999 150 368.499 L 150 367 146.500 367 L 143 367 143.002 368.250 M 145.256 375.489 L 144.012 376.902 144.981 379.451 L 145.950 382 146.850 382 L 147.750 382 148.375 378.875 L 149 375.750 149 374.875 L 149 374 147.750 374.038 L 146.500 374.076 145.256 375.489 M 139.500 378.783 L 137.500 380.500 135.750 384.284 L 134 388.068 134 392.534 L 134 397 134.811 397 L 135.623 397 137.811 394.961 L 140 392.922 139.968 391.211 L 139.936 389.500 138.468 387.559 L 137 385.618 137.027 384.059 L 137.054 382.500 140.553 386.264 L 144.052 390.028 144.655 388.456 L 145.258 386.885 143.655 382.804 L 142.053 378.724 142.585 377.862 L 143.118 377 142.309 377.033 L 141.500 377.067 139.500 378.783 M 151 380.417 L 151 383.833 152.250 384.341 L 153.500 384.848 152.190 385.770 L 150.881 386.692 153.440 388.369 L 156 390.046 156 384.130 L 156 378.214 154.418 377.607 L 152.836 377 151.918 377 L 151 377 151 380.417 M 158.633 383.514 L 158 385.164 158 387.915 L 158 390.667 158.556 391.223 L 159.112 391.778 162.556 390.721 L 166 389.664 166 389.028 L 166 388.392 162.633 385.129 L 159.266 381.865 158.633 383.514 M 128.333 390.239 L 126.298 392.500 125.544 393.824 L 124.790 395.148 127.070 397.574 L 129.349 400 130.674 400 L 132 400 131.985 395.250 L 131.969 390.500 131.169 389.239 L 130.369 387.979 128.333 390.239 M 165.037 392.146 L 162.573 393.093 162.189 393.477 L 161.805 393.862 163.618 396.931 L 165.431 400 166 400 L 166.569 400 168.400 396.901 L 170.230 393.802 168.865 392.500 L 167.500 391.199 165.037 392.146 M 169.840 399.750 L 168.209 403.500 168.717 404.337 L 169.226 405.174 170.313 404.087 L 171.400 403 174.700 403 L 178 403 178 401.952 L 178 400.905 175.354 398.452 L 172.708 396 172.089 396 L 171.471 396 169.840 399.750 M 122.735 400.250 L 122.304 401.500 123.846 404.769 L 125.388 408.037 126.373 407.709 L 127.357 407.381 128.395 405.735 L 129.433 404.090 127.042 401.545 L 124.651 399 123.909 399 L 123.167 399 122.735 400.250 M 118.740 404.735 L 117 406.657 117 407.829 L 117 409 119 411 L 121 413 122 413 L 123 413 122.955 410.750 L 122.910 408.500 121.695 405.656 L 120.480 402.812 118.740 404.735 M 177.176 406.224 L 176 407.400 176 409.500 L 176 411.600 175.069 412.550 L 174.138 413.500 175.417 415.867 L 176.696 418.235 177.317 416.617 L 177.937 415 176.969 415 L 176 415 176 413.845 L 176 412.690 178.006 414.506 L 180.012 416.321 180.371 415.911 L 180.729 415.500 181.746 413.500 L 182.764 411.500 181.994 409.465 L 181.224 407.431 179.788 406.239 L 178.352 405.048 177.176 406.224 M 171 407 L 171 408 171.941 408 L 172.882 408 173.500 407 L 174.118 406 172.559 406 L 171 406 171 407 M 131.200 408.200 L 130 409.400 130 410.200 L 130 411 131.500 411 L 133 411 133 409 L 133 407 132.700 407 L 132.400 407 131.200 408.200 M 182.489 417.034 L 181.817 419.151 182.400 419.733 L 182.983 420.316 181.912 421.606 L 180.842 422.895 181.891 424.698 L 182.939 426.500 182.970 424.309 L 183 422.118 184.250 421.334 L 185.500 420.550 187.342 420.853 L 189.185 421.157 188.468 418.828 L 187.752 416.500 187.626 416.374 L 187.500 416.248 185.331 415.582 L 183.161 414.916 182.489 417.034 M 113.750 417.105 L 112 418.099 112 419.436 L 112 420.773 115.002 421.214 L 118.003 421.654 119.662 419.821 L 121.321 417.988 120.911 417.635 L 120.500 417.281 118 416.696 L 115.500 416.111 113.750 417.105 M 187.400 423.786 L 186.299 424.500 185.057 426.857 L 183.815 429.215 184.820 430.220 L 185.825 431.225 188.662 430.259 L 191.500 429.293 191.171 427.396 L 190.843 425.500 189.671 424.286 L 188.500 423.072 187.400 423.786 M 104.686 425.699 L 104.006 426.800 104.209 429.252 L 104.412 431.705 106.104 431.263 L 107.796 430.820 109.898 431.945 L 112 433.070 112 431.617 L 112 430.164 112.607 428.582 L 113.214 427 109.690 427 L 106.167 427 105.766 425.799 L 105.366 424.599 104.686 425.699 M 189 432.896 L 186.500 433.582 186.180 435.791 L 185.861 438 190.344 438 L 194.827 438 194.109 435.315 L 193.391 432.630 192.445 432.420 L 191.500 432.210 189 432.896 M 103.563 433.897 L 103.009 434.795 103.622 437.859 L 104.235 440.924 106.646 442.503 L 109.056 444.083 110.028 443.483 L 111 442.882 111 439.101 L 111 435.321 108.453 434.161 L 105.906 433 105.012 433 L 104.118 433 103.563 433.897 M 187 442.767 L 187 444.534 191 444.639 L 195 444.744 195 442.872 L 195 441 191 441 L 187 441 187 442.767 M 103.719 445.291 L 103.156 446.757 103.991 450.458 L 104.825 454.158 105.366 454.699 L 105.907 455.240 108.453 454.601 L 111 453.962 111 450.922 L 111 447.882 110.061 448.463 L 109.121 449.043 106.701 446.434 L 104.282 443.824 103.719 445.291 M 188.571 448.571 L 187 450.143 187 451.416 L 187 452.690 188.829 454.345 L 190.657 456 191.214 456 L 191.770 456 193.463 453.415 L 195.157 450.831 193.423 448.915 L 191.690 447 190.916 447 L 190.143 447 188.571 448.571 M 186 456.559 L 186 458.118 187.016 457.490 L 188.033 456.862 187.457 455.931 L 186.882 455 186.441 455 L 186 455 186 456.559 M 108.250 457.457 L 105 458.414 105.015 460.457 L 105.031 462.500 105.765 463.500 L 106.500 464.500 109.750 466.780 L 113 469.060 113.106 467.280 L 113.212 465.500 113.014 462.587 L 112.815 459.674 112.158 458.087 L 111.500 456.500 108.250 457.457 M 186.250 461.031 L 184 461.936 184 462.793 L 184 463.651 186.381 465.888 L 188.761 468.124 189.869 464.947 L 190.976 461.770 190.429 460.885 L 189.882 460 189.191 460.063 L 188.500 460.127 186.250 461.031 M 180.264 466.949 L 179.136 468.756 181.987 471.487 L 184.837 474.218 185.919 473.550 L 187 472.882 187 471.009 L 187 469.136 184.196 467.140 L 181.392 465.143 180.264 466.949 M 108 470.540 L 108 471.080 110.020 475.040 L 112.041 479 112.495 479 L 112.949 479 114.548 475.907 L 116.147 472.814 115.824 472.657 L 115.500 472.500 113.264 471.250 L 111.027 470 109.514 470 L 108 470 108 470.540 M 177 472.908 L 177 474.887 179.115 476.368 L 181.230 477.849 182.658 477.301 L 184.086 476.753 182.304 474.784 L 180.522 472.815 178.761 471.872 L 177 470.930 177 472.908 M 117.642 477.250 L 116.238 479.500 115.629 482.136 L 115.019 484.771 116.260 485.741 L 117.500 486.711 119.642 487.234 L 121.783 487.756 124.392 485.338 L 127 482.919 127 481.926 L 127 480.933 123.966 477.966 L 120.931 475 119.989 475 L 119.046 475 117.642 477.250 M 171.499 477.377 L 169.615 478.754 172.191 481.816 L 174.767 484.877 177.030 482.468 L 179.294 480.058 176.897 478.062 L 174.500 476.067 173.941 476.033 L 173.382 476 171.499 477.377 M 166.153 483.247 L 165 484.400 165 485.531 L 165 486.662 167.520 488.011 L 170.040 489.360 171.153 488.247 L 172.266 487.134 171.689 485.633 L 171.113 484.131 169.210 483.112 L 167.306 482.094 166.153 483.247 M 127.189 486.671 L 124.878 489.307 126.328 490.756 L 127.777 492.206 129.737 491.584 L 131.696 490.962 132.861 488.406 L 134.025 485.850 133.454 484.925 L 132.882 484 131.191 484.018 L 129.500 484.036 127.189 486.671 M 134.632 490.646 L 132.893 494.293 133.696 495.069 L 134.500 495.844 138.150 496.515 L 141.800 497.185 142.494 494.025 L 143.188 490.866 141.439 488.933 L 139.690 487 138.030 487 L 136.370 487 134.632 490.646 M 145.314 493.090 L 145.129 498.164 146.646 497.582 L 148.164 497 149.582 497 L 151 497 150.986 494.750 L 150.973 492.500 150.370 490.250 L 149.767 488 147.633 488.008 L 145.500 488.016 145.314 493.090 M 153 490.096 L 153 492.191 154.716 495.096 L 156.431 498 157.151 498 L 157.870 498 160.435 497.025 L 163 496.050 163 494.632 L 163 493.214 164.636 492.586 L 166.272 491.958 164.481 489.979 L 162.690 488 157.845 488 L 153 488 153 490.096" stroke="none" fill="#885e34" fill-rule="evenodd"/><path d="M 138.935 168.250 L 138.869 196.500 138.989 228.503 L 139.109 260.506 137.163 262.594 L 135.218 264.682 135.377 267.591 L 135.537 270.500 136.512 272 L 137.487 273.500 138.112 270 L 138.737 266.500 138.683 276 L 138.630 285.500 138.260 280.185 L 137.891 274.870 136.695 275.284 L 135.500 275.698 135.783 281.599 L 136.066 287.500 134.533 285.559 L 133 283.618 132.848 281.559 L 132.695 279.500 132.463 278.500 L 132.231 277.500 132.016 276.500 L 131.801 275.500 131.084 278 L 130.367 280.500 131.062 283.679 L 131.757 286.857 129.988 286.724 L 128.220 286.591 128.687 285.374 L 129.154 284.156 127.937 281.883 L 126.721 279.610 126.591 274.362 L 126.461 269.114 124.185 266.036 L 121.908 262.957 122.528 261.729 L 123.148 260.500 121.747 262.205 L 120.345 263.910 118.673 260.119 L 117 256.328 117 255.620 L 117 254.913 113.339 250.956 L 109.679 247 108.839 247 L 108 247 108 248.686 L 108 250.371 109.816 252.436 L 111.632 254.500 114.816 261.580 L 118 268.660 118 270.175 L 118 271.690 119.896 273.406 L 121.793 275.122 122.407 273.811 L 123.022 272.500 122.605 274.750 L 122.187 277 123.058 277 L 123.930 277 125.047 279.088 L 126.164 281.175 126.602 283.588 L 127.039 286 125.927 286 L 124.815 286 120.087 282.270 L 115.359 278.540 111.429 273.631 L 107.500 268.722 102.840 263.861 L 98.181 259 96.590 259 L 95 259 95 260.407 L 95 261.815 98.750 265.997 L 102.500 270.179 107.847 276.031 L 113.193 281.884 115.867 282.471 L 118.540 283.058 121.520 285.531 L 124.500 288.005 121.685 287.002 L 118.870 286 116.185 286.106 L 113.500 286.213 116.267 287.305 L 119.034 288.398 118.704 289.387 L 118.375 290.375 116.938 290.764 L 115.500 291.152 117 290.035 L 118.500 288.917 113.500 289.530 L 108.500 290.143 109.751 289.261 L 111.003 288.380 109.049 286.440 L 107.096 284.500 105.565 283.227 L 104.034 281.953 101.517 282.585 L 99 283.217 99 282.294 L 99 281.370 95.466 279.685 L 91.932 278 91.497 278 L 91.063 278 91.677 279.601 L 92.291 281.202 90.896 282.086 L 89.500 282.969 91.433 282.985 L 93.367 283 99.433 285.116 L 105.500 287.233 106.450 288.116 L 107.400 289 105.950 289.115 L 104.500 289.231 103.500 289.415 L 102.500 289.599 98.500 290.411 L 94.500 291.224 90.250 293.654 L 86 296.084 86 297.542 L 86 299 86.865 299 L 87.730 299 90.284 296.991 L 92.838 294.982 96.169 294.351 L 99.500 293.719 100.500 292.957 L 101.500 292.195 103.500 291.982 L 105.500 291.770 109.250 291.885 L 113 292 113 292.892 L 113 293.783 110.417 294.431 L 107.834 295.080 104.152 297.404 L 100.471 299.728 99.241 301.209 L 98.012 302.691 97.381 305.845 L 96.750 309 97.837 309 L 98.924 309 105.050 303.534 L 111.176 298.068 118.795 298.224 L 126.414 298.379 130.224 301.821 L 134.034 305.264 133.809 307.382 L 133.583 309.500 134.277 315 L 134.972 320.500 135.289 337.246 L 135.606 353.992 137.452 355.342 L 139.299 356.691 138.697 363.096 L 138.095 369.500 137.611 372.620 L 137.128 375.741 128.862 384.404 L 120.596 393.067 118.826 395.783 L 117.056 398.500 116.002 400 L 114.949 401.500 108.515 411.417 L 102.081 421.335 100.432 426.576 L 98.784 431.816 99.372 446.158 L 99.961 460.500 100.528 463.500 L 101.095 466.500 102.225 470.500 L 103.355 474.500 104.513 476 L 105.671 477.500 106.936 480.701 L 108.202 483.903 110.601 485.474 L 113 487.046 113 488.523 L 113 490 114.800 490 L 116.600 490 117.550 490.921 L 118.500 491.842 125.425 495.372 L 132.351 498.901 133.175 498.392 L 134 497.882 134 498.811 L 134 499.740 138.250 500.812 L 142.500 501.884 149 502.367 L 155.500 502.849 160.288 501.617 L 165.076 500.386 176.979 488.808 L 188.882 477.230 191.041 472.365 L 193.199 467.500 194.055 465.500 L 194.910 463.500 196.591 459.500 L 198.272 455.500 198.564 446.688 L 198.856 437.877 197.526 433.188 L 196.197 428.500 195.553 424.750 L 194.909 421 194.043 421 L 193.176 421 192.515 417.086 L 191.853 413.173 188.713 409.086 L 185.572 405 184.286 405 L 183 405 183 403.153 L 183 401.306 181 399 L 179 396.694 179 395.847 L 179 395 177.856 395 L 176.713 395 173.367 391.750 L 170.021 388.500 170.011 387.380 L 170 386.260 162.647 378.812 L 155.295 371.363 154.777 364.124 L 154.259 356.884 155.645 355.498 L 157.031 354.112 156.948 336.935 L 156.866 319.758 155.706 317.900 L 154.545 316.043 155.668 313.070 L 156.790 310.097 155.645 309.715 L 154.500 309.334 154.500 224.667 L 154.500 140 152.250 140 L 150 140 150 143 L 150 146 148.250 146.014 L 146.500 146.027 144.250 146.630 L 142 147.233 142 144.769 L 142 142.306 144.250 141.220 L 146.500 140.135 142.750 140.068 L 139 140 138.935 168.250 M 144 147.895 L 141.500 148.590 141.600 149.795 L 141.700 151 141.850 152.060 L 142 153.121 145.750 152.810 L 149.500 152.500 149.816 149.750 L 150.133 147 148.316 147.100 L 146.500 147.199 144 147.895 M 146.813 154.068 L 144.127 154.793 143.563 154.230 L 143 153.667 143 157.958 L 143 162.250 146.177 161.615 L 149.354 160.979 149.743 160.590 L 150.133 160.201 149.816 156.771 L 149.500 153.342 146.813 154.068 M 145.750 162.716 L 143 163.133 143 166.066 L 143 169 144.566 169 L 146.131 169 148.066 167.965 L 150 166.930 150 164.465 L 150 162 149.250 162.150 L 148.500 162.300 145.750 162.716 M 145.250 169.706 L 143 170.139 143 173.070 L 143 176 144.918 176 L 146.836 176 148.418 175.393 L 150 174.786 150 171.893 L 150 169 148.750 169.136 L 147.500 169.272 145.250 169.706 M 145.750 176.716 L 143 177.133 143 180.630 L 143 184.127 146.250 183.813 L 149.500 183.500 149.810 179.750 L 150.121 176 149.310 176.150 L 148.500 176.300 145.750 176.716 M 143 188 L 143 191 145.893 191 L 148.786 191 149.393 189.418 L 150 187.836 150 186.418 L 150 185 146.500 185 L 143 185 143 188 M 143 193.981 L 143 195.962 145.443 196.575 L 147.886 197.188 148.943 196.535 L 150 195.882 150 193.941 L 150 192 146.500 192 L 143 192 143 193.981 M 143 201.750 L 143 206 144.566 206 L 146.131 206 148.066 204.965 L 150 203.930 150 200.715 L 150 197.500 146.500 197.500 L 143 197.500 143 201.750 M 146.203 206.361 L 142.906 207.440 143.203 210.970 L 143.500 214.500 145.750 214.187 L 148 213.874 148 214.937 L 148 216 145.437 216 L 142.873 216 143.187 219.250 L 143.500 222.500 146.750 222.813 L 150 223.127 150 214.063 L 150 205 149.750 205.141 L 149.500 205.281 146.203 206.361 M 143 227.937 L 143 231.873 146.250 232.261 L 149.500 232.649 146.250 233.450 L 143 234.250 143 236.566 L 143 238.882 143.954 239.472 L 144.908 240.061 147.454 239.422 L 150 238.783 150 231.392 L 150 224 146.500 224 L 143 224 143 227.937 M 133.166 240.750 L 132.089 243.500 131.540 248 L 130.992 252.500 130.313 257.500 L 129.634 262.500 129.567 267.911 L 129.500 273.322 130.750 273.744 L 132 274.167 132.015 270.833 L 132.031 267.500 132.947 268.948 L 133.863 270.396 133.328 266.412 L 132.794 262.428 134.397 258.592 L 136 254.756 136 246.378 L 136 238 135.121 238 L 134.243 238 133.166 240.750 M 146.927 241.103 L 144.354 242.049 144.790 245.024 L 145.227 248 147.613 248 L 150 248 150 244 L 150 240 149.750 240.079 L 149.500 240.158 146.927 241.103 M 122.011 245.550 L 122.022 250.500 122.639 254.230 L 123.255 257.960 124.128 257.421 L 125 256.882 125 254.441 L 125 252 124.243 252 L 123.486 252 123.851 247.408 L 124.216 242.816 123.108 241.708 L 122 240.600 122.011 245.550 M 147.191 249.827 L 144.881 250.155 145.191 252.225 L 145.500 254.296 147.202 255.363 L 148.904 256.429 149.523 255.811 L 150.141 255.192 149.821 252.346 L 149.500 249.500 147.191 249.827 M 144 259.500 L 144 262 147 262 L 150 262 150 259.500 L 150 257 147 257 L 144 257 144 259.500 M 146.610 266.164 L 143.720 268.828 144.355 270.483 L 144.990 272.138 147.245 271.445 L 149.500 270.752 149.816 270.476 L 150.133 270.201 149.816 266.850 L 149.500 263.500 146.610 266.164 M 110 265.319 L 110 266.882 110.931 267.457 L 111.862 268.033 112.420 267.130 L 112.978 266.227 111.489 264.991 L 110 263.755 110 265.319 M 146.952 274.838 L 144.682 276.676 145.400 277.838 L 146.118 279 148.059 279 L 150 279 150 276 L 150 273 149.611 273 L 149.222 273 146.952 274.838 M 96 275.981 L 96 276.962 98.750 277.612 L 101.500 278.262 103.500 280 L 105.500 281.738 108.334 282.409 L 111.168 283.080 110.523 282.037 L 109.879 280.995 105.439 278.972 L 101 276.950 101 275.975 L 101 275 98.500 275 L 96 275 96 275.981 M 144 283.383 L 144 285.767 146.174 286.335 L 148.347 286.904 149.174 286.393 L 150 285.882 150 283.441 L 150 281 147 281 L 144 281 144 283.383 M 143.903 290.750 L 144.632 293.500 147.316 293.816 L 150 294.133 150 291.066 L 150 288 146.586 288 L 143.173 288 143.903 290.750 M 121 291.839 L 121 292.812 126.064 293.509 L 131.128 294.205 131.666 293.667 L 132.204 293.129 128.352 292.477 L 124.500 291.825 122.750 291.345 L 121 290.865 121 291.839 M 130.750 295.706 L 133 296.139 133 297.770 L 133 299.400 134.113 298.287 L 135.226 297.174 134.554 296.087 L 133.882 295 131.191 295.136 L 128.500 295.272 130.750 295.706 M 147.229 297.188 L 147.625 298.375 148.813 298.771 L 150 299.167 150 297.583 L 150 296 148.417 296 L 146.833 296 147.229 297.188 M 137.624 304.109 L 138 307.333 138.250 307.578 L 138.500 307.823 143.145 306.641 L 147.790 305.459 145.895 303.119 L 144 300.778 144 302.889 L 144 305 142.814 305 L 141.629 305 139.439 302.943 L 137.249 300.885 137.624 304.109 M 149.570 308.887 L 149.022 309.773 150.511 311.009 L 152 312.245 152 310.122 L 152 308 151.059 308 L 150.118 308 149.570 308.887 M 145.250 309.662 L 144 310.167 144 311.414 L 144 312.662 146.498 313.999 L 148.997 315.336 149.667 314.667 L 150.336 313.997 148.999 311.498 L 147.662 309 147.081 309.079 L 146.500 309.158 145.250 309.662 M 138.667 310.667 L 138 311.333 138 313.148 L 138 314.962 140.547 315.601 L 143.093 316.240 143.458 315.870 L 143.823 315.500 143.295 312.750 L 142.767 310 141.050 310 L 139.333 310 138.667 310.667 M 139 319.578 L 139 321.923 142.967 322.991 L 146.934 324.059 147.949 325.780 L 148.963 327.500 149.844 326.165 L 150.724 324.829 151.612 324.915 L 152.500 325 152.417 323.500 L 152.333 322 152.167 319.662 L 152 317.323 145.500 317.278 L 139 317.233 139 319.578 M 139 330.500 L 139 334 141.374 334 L 143.747 334 142.124 330.533 L 140.500 327.065 139.750 327.033 L 139 327 139 330.500 M 144.500 331 L 146.051 334 147.494 334 L 148.937 334 148.313 332.250 L 147.690 330.500 146.722 329.250 L 145.755 328 144.352 328 L 142.949 328 144.500 331 M 149.384 329.154 L 149.999 330.500 150.616 332.250 L 151.233 334 152.183 334 L 153.133 334 152.816 331.259 L 152.500 328.517 150.635 328.163 L 148.770 327.809 149.384 329.154 M 144.417 337.726 L 143 339.143 143 338.071 L 143 337 141.250 337.002 L 139.500 337.004 139.290 340.002 L 139.081 343 140.009 343 L 140.937 343 140.362 341.500 L 139.786 340 140.776 340 L 141.767 340 142.290 342 L 142.813 344 143.906 344 L 145 344 145 342.300 L 145 340.600 146.200 341.800 L 147.400 343 149.735 343 L 152.070 343 151 341 L 149.930 339 150.965 339 L 152 339 152 337.567 L 152 336.134 148.917 336.221 L 145.834 336.309 144.417 337.726 M 148.645 345.483 L 148.076 346.966 146.788 346.570 L 145.500 346.173 142.250 345.612 L 139 345.050 139.032 346.775 L 139.064 348.500 140.392 350.250 L 141.720 352 143.694 352 L 145.667 352 146.325 351.342 L 146.983 350.684 145.741 349.178 L 144.500 347.673 146.663 348.825 L 148.826 349.977 149.223 351.168 L 149.620 352.360 151.414 351.671 L 153.208 350.983 152.635 349.492 L 152.063 348 153.031 348 L 154 348 154 346 L 154 344 151.607 344 L 149.214 344 148.645 345.483 M 143.187 356.303 L 143.500 358.500 145.507 358.788 L 147.515 359.075 149.506 357.620 L 151.497 356.164 150.998 355.723 L 150.500 355.283 146.687 354.694 L 142.875 354.105 143.187 356.303 M 146.250 360.347 L 143 361.414 143 363.764 L 143 366.115 147.250 365.807 L 151.500 365.500 151.813 362.250 L 152.127 359 150.813 359.141 L 149.500 359.281 146.250 360.347 M 143.002 368.250 L 143.004 369.500 146.502 369.749 L 150 369.999 150 368.499 L 150 367 146.500 367 L 143 367 143.002 368.250 M 145.256 375.489 L 144.012 376.902 144.981 379.451 L 145.950 382 146.850 382 L 147.750 382 148.375 378.875 L 149 375.750 149 374.875 L 149 374 147.750 374.038 L 146.500 374.076 145.256 375.489 M 139.500 378.783 L 137.500 380.500 135.750 384.284 L 134 388.068 134 392.534 L 134 397 134.811 397 L 135.623 397 137.811 394.961 L 140 392.922 139.968 391.211 L 139.936 389.500 138.468 387.559 L 137 385.618 137.027 384.059 L 137.054 382.500 140.553 386.264 L 144.052 390.028 144.655 388.456 L 145.258 386.885 143.655 382.804 L 142.053 378.724 142.585 377.862 L 143.118 377 142.309 377.033 L 141.500 377.067 139.500 378.783 M 151 380.417 L 151 383.833 152.250 384.341 L 153.500 384.848 152.190 385.770 L 150.881 386.692 153.440 388.369 L 156 390.046 156 384.130 L 156 378.214 154.418 377.607 L 152.836 377 151.918 377 L 151 377 151 380.417 M 158.633 383.514 L 158 385.164 158 387.915 L 158 390.667 158.556 391.223 L 159.112 391.778 162.556 390.721 L 166 389.664 166 389.028 L 166 388.392 162.633 385.129 L 159.266 381.865 158.633 383.514 M 128.333 390.239 L 126.298 392.500 125.544 393.824 L 124.790 395.148 127.070 397.574 L 129.349 400 130.674 400 L 132 400 131.985 395.250 L 131.969 390.500 131.169 389.239 L 130.369 387.979 128.333 390.239 M 146.703 392.531 L 144.907 395 143.729 395 L 142.551 395 139.291 398.665 L 136.030 402.329 135.476 404.075 L 134.922 405.821 132.411 407.466 L 129.901 409.111 130.484 410.950 L 131.068 412.789 129.534 414.323 L 128 415.857 128 416.817 L 128 417.776 123.750 422.242 L 119.500 426.708 117.837 428.950 L 116.174 431.192 115.489 437.096 L 114.804 443 115.500 449.002 L 116.197 455.004 117.011 455.507 L 117.826 456.010 118.467 460.255 L 119.107 464.500 119.638 467.272 L 120.168 470.044 123.416 471.401 L 126.664 472.758 128.639 475.268 L 130.614 477.779 135.557 480.303 L 140.500 482.827 149 483.309 L 157.500 483.791 159.366 482.799 L 161.231 481.806 167.508 475.529 L 173.785 469.252 174.460 467.126 L 175.135 465 176.567 465 L 178 465 178 463.059 L 178 461.118 179 460.500 L 180 459.882 180 458.506 L 180 457.130 181.098 454.315 L 182.196 451.500 182.566 443.743 L 182.936 435.986 180.654 431.743 L 178.371 427.500 173.210 420.500 L 168.050 413.500 166.172 411.500 L 164.294 409.500 162.005 404.641 L 159.716 399.781 154.695 394.891 L 149.674 390 149.087 390.031 L 148.500 390.063 146.703 392.531 M 165.037 392.146 L 162.573 393.093 162.189 393.477 L 161.805 393.862 163.618 396.931 L 165.431 400 166 400 L 166.569 400 168.400 396.901 L 170.230 393.802 168.865 392.500 L 167.500 391.199 165.037 392.146 M 169.840 399.750 L 168.209 403.500 168.717 404.337 L 169.226 405.174 170.313 404.087 L 171.400 403 174.700 403 L 178 403 178 401.952 L 178 400.905 175.354 398.452 L 172.708 396 172.089 396 L 171.471 396 169.840 399.750 M 122.735 400.250 L 122.304 401.500 123.846 404.769 L 125.388 408.037 126.373 407.709 L 127.357 407.381 128.395 405.735 L 129.433 404.090 127.042 401.545 L 124.651 399 123.909 399 L 123.167 399 122.735 400.250 M 118.740 404.735 L 117 406.657 117 407.829 L 117 409 119 411 L 121 413 122 413 L 123 413 122.955 410.750 L 122.910 408.500 121.695 405.656 L 120.480 402.812 118.740 404.735 M 177.176 406.224 L 176 407.400 176 409.500 L 176 411.600 175.069 412.550 L 174.138 413.500 175.417 415.867 L 176.696 418.235 177.317 416.617 L 177.937 415 176.969 415 L 176 415 176 413.845 L 176 412.690 178.006 414.506 L 180.012 416.321 180.371 415.911 L 180.729 415.500 181.746 413.500 L 182.764 411.500 181.994 409.465 L 181.224 407.431 179.788 406.239 L 178.352 405.048 177.176 406.224 M 171 407 L 171 408 171.941 408 L 172.882 408 173.500 407 L 174.118 406 172.559 406 L 171 406 171 407 M 182.489 417.034 L 181.817 419.151 182.400 419.733 L 182.983 420.316 181.912 421.606 L 180.842 422.895 181.891 424.698 L 182.939 426.500 182.970 424.309 L 183 422.118 184.250 421.334 L 185.500 420.550 187.342 420.853 L 189.185 421.157 188.468 418.828 L 187.752 416.500 187.626 416.374 L 187.500 416.248 185.331 415.582 L 183.161 414.916 182.489 417.034 M 113.750 417.105 L 112 418.099 112 419.436 L 112 420.773 115.002 421.214 L 118.003 421.654 119.662 419.821 L 121.321 417.988 120.911 417.635 L 120.500 417.281 118 416.696 L 115.500 416.111 113.750 417.105 M 187.400 423.786 L 186.299 424.500 185.057 426.857 L 183.815 429.215 184.820 430.220 L 185.825 431.225 188.662 430.259 L 191.500 429.293 191.171 427.396 L 190.843 425.500 189.671 424.286 L 188.500 423.072 187.400 423.786 M 104.686 425.699 L 104.006 426.800 104.209 429.252 L 104.412 431.705 106.104 431.263 L 107.796 430.820 109.898 431.945 L 112 433.070 112 431.617 L 112 430.164 112.607 428.582 L 113.214 427 109.690 427 L 106.167 427 105.766 425.799 L 105.366 424.599 104.686 425.699 M 189 432.896 L 186.500 433.582 186.180 435.791 L 185.861 438 190.344 438 L 194.827 438 194.109 435.315 L 193.391 432.630 192.445 432.420 L 191.500 432.210 189 432.896 M 103.563 433.897 L 103.009 434.795 103.622 437.859 L 104.235 440.924 106.646 442.503 L 109.056 444.083 110.028 443.483 L 111 442.882 111 439.101 L 111 435.321 108.453 434.161 L 105.906 433 105.012 433 L 104.118 433 103.563 433.897 M 187 442.767 L 187 444.534 191 444.639 L 195 444.744 195 442.872 L 195 441 191 441 L 187 441 187 442.767 M 103.719 445.291 L 103.156 446.757 103.991 450.458 L 104.825 454.158 105.366 454.699 L 105.907 455.240 108.453 454.601 L 111 453.962 111 450.922 L 111 447.882 110.061 448.463 L 109.121 449.043 106.701 446.434 L 104.282 443.824 103.719 445.291 M 188.571 448.571 L 187 450.143 187 451.416 L 187 452.690 188.829 454.345 L 190.657 456 191.214 456 L 191.770 456 193.463 453.415 L 195.157 450.831 193.423 448.915 L 191.690 447 190.916 447 L 190.143 447 188.571 448.571 M 186 456.559 L 186 458.118 187.016 457.490 L 188.033 456.862 187.457 455.931 L 186.882 455 186.441 455 L 186 455 186 456.559 M 108.250 457.457 L 105 458.414 105.015 460.457 L 105.031 462.500 105.765 463.500 L 106.500 464.500 109.750 466.780 L 113 469.060 113.106 467.280 L 113.212 465.500 113.014 462.587 L 112.815 459.674 112.158 458.087 L 111.500 456.500 108.250 457.457 M 186.250 461.031 L 184 461.936 184 462.793 L 184 463.651 186.381 465.888 L 188.761 468.124 189.869 464.947 L 190.976 461.770 190.429 460.885 L 189.882 460 189.191 460.063 L 188.500 460.127 186.250 461.031 M 180.264 466.949 L 179.136 468.756 181.987 471.487 L 184.837 474.218 185.919 473.550 L 187 472.882 187 471.009 L 187 469.136 184.196 467.140 L 181.392 465.143 180.264 466.949 M 108 470.540 L 108 471.080 110.020 475.040 L 112.041 479 112.495 479 L 112.949 479 114.548 475.907 L 116.147 472.814 115.824 472.657 L 115.500 472.500 113.264 471.250 L 111.027 470 109.514 470 L 108 470 108 470.540 M 177 472.908 L 177 474.887 179.115 476.368 L 181.230 477.849 182.658 477.301 L 184.086 476.753 182.304 474.784 L 180.522 472.815 178.761 471.872 L 177 470.930 177 472.908 M 117.642 477.250 L 116.238 479.500 115.629 482.136 L 115.019 484.771 116.260 485.741 L 117.500 486.711 119.642 487.234 L 121.783 487.756 124.392 485.338 L 127 482.919 127 481.926 L 127 480.933 123.966 477.966 L 120.931 475 119.989 475 L 119.046 475 117.642 477.250 M 171.499 477.377 L 169.615 478.754 172.191 481.816 L 174.767 484.877 177.030 482.468 L 179.294 480.058 176.897 478.062 L 174.500 476.067 173.941 476.033 L 173.382 476 171.499 477.377 M 166.153 483.247 L 165 484.400 165 485.531 L 165 486.662 167.520 488.011 L 170.040 489.360 171.153 488.247 L 172.266 487.134 171.689 485.633 L 171.113 484.131 169.210 483.112 L 167.306 482.094 166.153 483.247 M 127.189 486.671 L 124.878 489.307 126.328 490.756 L 127.777 492.206 129.737 491.584 L 131.696 490.962 132.861 488.406 L 134.025 485.850 133.454 484.925 L 132.882 484 131.191 484.018 L 129.500 484.036 127.189 486.671 M 134.632 490.646 L 132.893 494.293 133.696 495.069 L 134.500 495.844 138.150 496.515 L 141.800 497.185 142.494 494.025 L 143.188 490.866 141.439 488.933 L 139.690 487 138.030 487 L 136.370 487 134.632 490.646 M 145.314 493.090 L 145.129 498.164 146.646 497.582 L 148.164 497 149.582 497 L 151 497 150.986 494.750 L 150.973 492.500 150.370 490.250 L 149.767 488 147.633 488.008 L 145.500 488.016 145.314 493.090 M 153 490.096 L 153 492.191 154.716 495.096 L 156.431 498 157.151 498 L 157.870 498 160.435 497.025 L 163 496.050 163 494.632 L 163 493.214 164.636 492.586 L 166.272 491.958 164.481 489.979 L 162.690 488 157.845 488 L 153 488 153 490.096" stroke="none" fill="#1b130b" fill-rule="evenodd"/></svg>