<?xml version="1.0" encoding="UTF-8"?>
<!DOCTYPE svg PUBLIC "-//W3C//DTD SVG 1.1//EN" "http://www.w3.org/Graphics/SVG/1.1/DTD/svg11.dtd">
<svg xmlns="http://www.w3.org/2000/svg" version="1.1" width="600px" height="600px" style="shape-rendering:geometricPrecision; text-rendering:geometricPrecision; image-rendering:optimizeQuality; fill-rule:evenodd; clip-rule:evenodd" xmlns:xlink="http://www.w3.org/1999/xlink">
<g><path style="opacity:0.976" fill="#020202" d="M 264.5,57.5 C 275.04,56.9705 285.374,58.1372 295.5,61C 297.624,62.1217 299.457,63.6217 301,65.5C 304.469,77.2454 306.469,89.2454 307,101.5C 307.667,115.5 307.667,129.5 307,143.5C 303.881,164.092 299.881,184.425 295,204.5C 334.271,183.098 372.104,185.265 408.5,211C 414.135,215.629 418.635,221.129 422,227.5C 425.955,236.707 430.288,245.707 435,254.5C 438.853,266.234 436.687,276.734 428.5,286C 426.043,287.562 423.376,288.562 420.5,289C 411.833,289.333 403.167,289.667 394.5,290C 402.799,293.659 411.132,297.325 419.5,301C 424.065,303.056 426.398,306.556 426.5,311.5C 436.103,315.966 445.77,320.466 455.5,325C 471.708,329.802 488.041,334.135 504.5,338C 528.179,346.254 548.679,359.42 566,377.5C 575.48,392.463 582.813,408.463 588,425.5C 590.349,447.48 592.349,469.48 594,491.5C 595.956,498.958 596.623,506.624 596,514.5C 594.307,516.604 592.14,518.104 589.5,519C 570.008,525.642 550.008,529.976 529.5,532C 503.342,533.736 477.175,534.236 451,533.5C 413.43,535.399 375.93,537.899 338.5,541C 278.691,535.105 220.358,522.438 163.5,503C 155.281,500.529 146.948,498.529 138.5,497C 110.869,493.708 83.2028,490.708 55.5,488C 43.482,484.994 31.8154,480.994 20.5,476C 18.0144,472.863 16.1811,469.363 15,465.5C 13.628,459.23 12.628,452.896 12,446.5C 11.4285,423.994 11.7618,401.661 13,379.5C 14.0164,367.416 15.6831,355.416 18,343.5C 21.9705,331.104 26.4705,318.937 31.5,307C 22.7874,297.092 15.954,285.926 11,273.5C 7.56143,258.974 4.89476,244.307 3,229.5C 0.587218,216.884 3.25388,205.55 11,195.5C 24.5456,181.621 40.0456,170.454 57.5,162C 80.9602,149.124 105.96,140.958 132.5,137.5C 132.906,131.542 134.406,125.875 137,120.5C 142.667,113.5 148.333,106.5 154,99.5C 160.207,93.6245 166.707,88.1245 173.5,83C 189.115,75.6842 205.115,69.3509 221.5,64C 235.897,61.3016 250.231,59.1349 264.5,57.5 Z M 335.5,225.5 C 345.341,224.862 354.674,226.695 363.5,231C 370,236.833 376.5,242.667 383,248.5C 384.885,250.914 385.552,253.581 385,256.5C 378.464,255.76 371.964,254.593 365.5,253C 357.991,248.745 350.324,244.745 342.5,241C 337.982,238.491 334.982,234.824 333.5,230C 334.267,228.53 334.933,227.03 335.5,225.5 Z"/></g>
<g><path style="opacity:1" fill="#fcfcfc" d="M 266.5,64.5 C 275.745,64.4559 284.745,65.7893 293.5,68.5C 295.16,71.6466 296.327,74.9799 297,78.5C 297.553,84.7054 298.386,90.8721 299.5,97C 299.167,97.8333 298.833,98.6667 298.5,99.5C 296.869,97.7026 294.869,96.5359 292.5,96C 275.076,91.7425 257.41,90.0758 239.5,91C 201.093,98.2852 167.926,115.452 140,142.5C 139.239,136.54 140.239,130.873 143,125.5C 151.434,112.831 161.601,101.665 173.5,92C 202.426,75.4094 233.426,66.2427 266.5,64.5 Z"/></g>
<g><path style="opacity:1" fill="#323232" d="M 235.5,96.5 C 254.374,95.5438 273.041,97.0438 291.5,101C 294.562,102.061 297.062,103.894 299,106.5C 300.796,138.935 297.796,170.935 290,202.5C 283.068,190.781 272.902,183.614 259.5,181C 227.611,177.028 202.444,188.195 184,214.5C 175.731,226.966 170.398,240.632 168,255.5C 164.349,248.198 160.682,240.864 157,233.5C 151.667,211.5 146.333,189.5 141,167.5C 140.001,160.85 139.667,154.183 140,147.5C 167.013,121.696 198.846,104.696 235.5,96.5 Z"/></g>
<g><path style="opacity:1" fill="#fcfcfc" d="M 125.5,143.5 C 127.833,143.5 130.167,143.5 132.5,143.5C 132.23,152.582 132.897,161.582 134.5,170.5C 127.001,170.566 119.668,171.733 112.5,174C 76.0598,185.294 44.2265,204.127 17,230.5C 15.3333,232.833 13.6667,235.167 12,237.5C 9.29676,227.915 8.96343,218.248 11,208.5C 21.3501,193.819 34.5168,182.319 50.5,174C 73.8523,159.609 98.8523,149.442 125.5,143.5 Z"/></g>
<g><path style="opacity:1" fill="#323232" d="M 122.5,177.5 C 127.099,177.2 131.599,177.533 136,178.5C 140.947,196.342 145.28,214.342 149,232.5C 149.92,236.263 151.42,239.763 153.5,243C 150.414,246.757 146.748,249.757 142.5,252C 106.78,269.902 69.78,284.235 31.5,295C 19.0824,278.473 13.249,259.973 14,239.5C 44.5658,209.131 80.7325,188.464 122.5,177.5 Z"/></g>
<g><path style="opacity:1" fill="#fdfdfd" d="M 236.5,184.5 C 254.629,181.897 270.129,186.897 283,199.5C 285.979,205.309 286.312,211.309 284,217.5C 281.798,225.576 277.798,232.576 272,238.5C 262.483,257.352 249.317,273.185 232.5,286C 226.221,289.946 220.221,294.279 214.5,299C 202.871,307.144 190.537,308.477 177.5,303C 169.965,294.554 167.465,284.721 170,273.5C 172.057,245.232 182.891,221.065 202.5,201C 212.728,193.098 224.061,187.598 236.5,184.5 Z"/></g>
<g><path style="opacity:1" fill="#fcfcfc" d="M 334.5,194.5 C 347.64,194.101 360.64,195.268 373.5,198C 384.103,202.3 394.103,207.634 403.5,214C 407.369,217.534 410.869,221.367 414,225.5C 419,235.5 424,245.5 429,255.5C 431.367,263.425 430.701,271.092 427,278.5C 424.269,281.712 420.769,283.212 416.5,283C 389.101,283.566 362.767,278.566 337.5,268C 325.796,255.633 315.629,242.133 307,227.5C 303.333,222.5 299,218.167 294,214.5C 291.145,209.461 292.645,206.628 298.5,206C 310.392,201.423 322.392,197.59 334.5,194.5 Z M 335.5,225.5 C 334.933,227.03 334.267,228.53 333.5,230C 334.982,234.824 337.982,238.491 342.5,241C 350.324,244.745 357.991,248.745 365.5,253C 371.964,254.593 378.464,255.76 385,256.5C 385.552,253.581 384.885,250.914 383,248.5C 376.5,242.667 370,236.833 363.5,231C 354.674,226.695 345.341,224.862 335.5,225.5 Z"/></g>
<g><path style="opacity:0.904" fill="#050505" d="M 333.5,220.5 C 350.419,218.164 364.419,223.331 375.5,236C 383.693,238.859 389.193,244.359 392,252.5C 393.608,259.62 390.774,262.954 383.5,262.5C 377.785,261.993 372.118,261.16 366.5,260C 356.214,255.191 346.214,249.857 336.5,244C 329.086,238.116 327.252,230.949 331,222.5C 331.995,221.934 332.828,221.267 333.5,220.5 Z M 335.5,225.5 C 334.933,227.03 334.267,228.53 333.5,230C 334.982,234.824 337.982,238.491 342.5,241C 350.324,244.745 357.991,248.745 365.5,253C 371.964,254.593 378.464,255.76 385,256.5C 385.552,253.581 384.885,250.914 383,248.5C 376.5,242.667 370,236.833 363.5,231C 354.674,226.695 345.341,224.862 335.5,225.5 Z"/></g>
<g><path style="opacity:1" fill="#323232" d="M 289.5,220.5 C 292.771,222.591 295.937,224.924 299,227.5C 303.198,233.57 306.531,239.903 309,246.5C 282.155,256.018 260.488,272.351 244,295.5C 243.035,299.782 243.702,303.782 246,307.5C 252.1,314.285 259.267,319.451 267.5,323C 264.756,323.803 262.089,324.803 259.5,326C 229.966,345.853 202.466,368.353 177,393.5C 169.043,405.083 163.543,417.75 160.5,431.5C 149.269,429.329 137.936,427.996 126.5,427.5C 127.786,415.025 130.952,403.025 136,391.5C 147.82,364.36 164.32,340.527 185.5,320C 189.336,317.916 193.003,315.583 196.5,313C 203.747,312.379 210.414,310.045 216.5,306C 235.448,294.06 252.281,279.56 267,262.5C 270.681,255.802 274.348,249.135 278,242.5C 284.204,236.426 288.037,229.093 289.5,220.5 Z"/></g>
<g><path style="opacity:0.998" fill="#070707" d="M 222.5,228.5 C 230.253,228.104 237.92,228.604 245.5,230C 247.478,232.497 247.978,235.331 247,238.5C 237.453,253.714 224.953,265.881 209.5,275C 201.125,278.485 196.458,275.818 195.5,267C 198.293,255.912 203.126,245.745 210,236.5C 213.977,233.435 218.144,230.768 222.5,228.5 Z"/></g>
<g><path style="opacity:0.997" fill="#323232" d="M 226.5,230.5 C 231.931,230.376 237.098,231.376 242,233.5C 241.554,236.739 240.221,239.739 238,242.5C 229.061,252.444 219.228,261.278 208.5,269C 206.305,270.373 203.971,270.706 201.5,270C 200.585,265.774 201.085,261.607 203,257.5C 206.255,251.992 209.255,246.325 212,240.5C 216.291,236.28 221.124,232.947 226.5,230.5 Z"/></g>
<g><path style="opacity:1" fill="#fdfdfd" d="M 311.5,248.5 C 317.93,256.103 324.597,263.603 331.5,271C 315.844,278.155 301.178,286.821 287.5,297C 282.333,303.5 277.167,310 272,316.5C 263.837,314.242 256.837,309.908 251,303.5C 250.219,302.271 249.719,300.938 249.5,299.5C 250.47,296.226 251.97,293.226 254,290.5C 269.988,271.944 289.155,257.944 311.5,248.5 Z"/></g>
<g><path style="opacity:1" fill="#fcfcfc" d="M 155.5,250.5 C 156.376,250.369 157.043,250.702 157.5,251.5C 159.016,254.531 160.516,257.531 162,260.5C 162.837,264.295 162.504,267.961 161,271.5C 147.286,292.453 128.119,305.619 103.5,311C 97.1667,311.667 90.8333,311.667 84.5,311C 67.6797,307.628 51.013,303.628 34.5,299C 73.3552,289.493 110.689,275.826 146.5,258C 150.275,256.389 153.275,253.889 155.5,250.5 Z"/></g>
<g><path style="opacity:1" fill="#fcfcfc" d="M 331.5,273.5 C 347.019,279.548 363.019,284.048 379.5,287C 375.5,290 371.5,293 367.5,296C 354.506,302.828 341.839,310.162 329.5,318C 322.514,324.478 317.847,332.312 315.5,341.5C 311.812,340.828 308.145,339.995 304.5,339C 297.843,335.249 290.843,332.249 283.5,330C 279.583,326.672 278.083,322.505 279,317.5C 283.713,311.243 288.546,305.076 293.5,299C 305.715,289.733 318.382,281.233 331.5,273.5 Z"/></g>
<g><path style="opacity:1" fill="#323232" d="M 162.5,280.5 C 162.52,291.049 166.187,300.215 173.5,308C 177.688,310.062 182.021,311.729 186.5,313C 179.431,317.067 173.264,322.234 168,328.5C 150.395,349.149 136.395,372.149 126,397.5C 122.882,407.298 121.048,417.298 120.5,427.5C 110.175,426.637 99.8418,425.804 89.5,425C 84.9366,407.042 77.7699,390.208 68,374.5C 60.9297,366.686 54.0964,358.686 47.5,350.5C 41.4541,345.119 35.1208,340.119 28.5,335.5C 31.9806,325.056 35.6472,314.722 39.5,304.5C 52.4397,308.757 65.4397,312.924 78.5,317C 111.207,320.899 138.373,310.399 160,285.5C 161.094,283.922 161.928,282.255 162.5,280.5 Z"/></g>
<g><path style="opacity:1" fill="#fdfdfd" d="M 380.5,288.5 C 388.172,296.506 397.506,301.673 408.5,304C 412.675,305.584 416.341,307.918 419.5,311C 412.871,319.963 405.205,327.963 396.5,335C 382.52,340.655 368.52,346.321 354.5,352C 344.089,356.771 333.756,356.605 323.5,351.5C 320.734,337.499 325.401,326.332 337.5,318C 347.666,311.416 358,305.082 368.5,299C 372.693,295.635 376.693,292.135 380.5,288.5 Z"/></g>
<g><path style="opacity:1" fill="#323232" d="M 424.5,315.5 C 431.941,319.39 439.274,323.556 446.5,328C 460.494,333.582 474.827,338.082 489.5,341.5C 446.326,353.915 407.659,374.415 373.5,403C 366.333,411.5 358.5,419.333 350,426.5C 345.459,434.048 339.792,440.714 333,446.5C 328.92,454.329 324.587,461.996 320,469.5C 318.722,473.165 317.556,476.832 316.5,480.5C 303.625,480.113 290.958,478.28 278.5,475C 258.756,467.863 239.089,460.53 219.5,453C 228.833,447.667 238.167,442.333 247.5,437C 268.833,422.333 290.167,407.667 311.5,393C 317.293,385.539 323.459,378.372 330,371.5C 330.297,368.086 330.964,364.753 332,361.5C 337.039,363.838 342.205,364.005 347.5,362C 363.51,355.994 379.51,349.994 395.5,344C 403.917,338.254 411.75,331.754 419,324.5C 421.358,321.778 423.191,318.778 424.5,315.5 Z"/></g>
<g><path style="opacity:0.999" fill="#fcfcfc" d="M 268.5,329.5 C 270.527,329.338 272.527,329.505 274.5,330C 278.829,336.971 285.163,340.638 293.5,341C 300.041,345.791 307.374,348.291 315.5,348.5C 316.011,354.188 319.011,358.021 324.5,360C 323.545,363.099 322.711,366.266 322,369.5C 314.139,380.027 304.973,389.194 294.5,397C 269.833,413.333 245.167,429.667 220.5,446C 217.572,447.38 214.738,448.88 212,450.5C 195.608,445.486 179.775,439.319 164.5,432C 171.962,406.204 187.295,386.537 210.5,373C 228.625,356.684 247.958,342.184 268.5,329.5 Z"/></g>
<g><path style="opacity:1" fill="#fdfdfd" d="M 26.5,340.5 C 41.9281,353.762 55.4281,368.762 67,385.5C 74.1343,398.097 79.301,411.43 82.5,425.5C 73.1881,427.062 63.8548,428.562 54.5,430C 45.8264,430.177 37.1597,430.177 28.5,430C 24.7047,430.814 21.2047,432.314 18,434.5C 17.3333,425.167 17.3333,415.833 18,406.5C 19.3318,392.879 20.3318,379.213 21,365.5C 22.5083,357.053 24.3416,348.72 26.5,340.5 Z"/></g>
<g><path style="opacity:1" fill="#323232" d="M 502.5,345.5 C 527.056,352.548 547.556,365.882 564,385.5C 570.23,396.287 575.063,407.62 578.5,419.5C 548.035,420.651 522.868,432.651 503,455.5C 496.759,465.96 492.259,477.127 489.5,489C 481.765,489.649 474.098,489.149 466.5,487.5C 467.278,463.281 461.778,440.614 450,419.5C 444.527,412.694 438.36,406.527 431.5,401C 421.219,396.728 410.552,393.728 399.5,392C 430.897,369.968 465.23,354.468 502.5,345.5 Z"/></g>
<g><path style="opacity:0.998" fill="#060606" d="M 266.5,360.5 C 275.439,359.626 281.439,363.292 284.5,371.5C 281.394,378.046 278.561,384.713 276,391.5C 270.004,398.4 263.17,404.233 255.5,409C 244.619,414.274 233.619,419.274 222.5,424C 213.959,427.617 205.626,427.283 197.5,423C 192.74,419.776 192.24,415.943 196,411.5C 204.482,401.384 213.315,391.55 222.5,382C 235.571,371.482 250.237,364.315 266.5,360.5 Z"/></g>
<g><path style="opacity:0.998" fill="#323232" d="M 264.5,367.5 C 269.603,366.664 273.937,367.998 277.5,371.5C 272.683,385.816 263.683,396.649 250.5,404C 241.167,408.333 231.833,412.667 222.5,417C 218.228,418.154 213.894,418.988 209.5,419.5C 206.794,419.519 204.294,418.852 202,417.5C 201.333,416.5 201.333,415.5 202,414.5C 209.088,407.416 215.422,399.749 221,391.5C 225.133,388.369 228.966,384.869 232.5,381C 243.274,376.581 253.941,372.081 264.5,367.5 Z"/></g>
<g><path style="opacity:1" fill="#fdfdfd" d="M 458.5,486.5 C 446.345,487.495 434.011,487.829 421.5,487.5C 408.978,487.304 396.478,486.637 384,485.5C 374.508,486.383 365.008,486.55 355.5,486C 344.172,484.39 332.839,482.89 321.5,481.5C 321.737,478.353 322.57,475.353 324,472.5C 329.166,465.505 333.833,458.172 338,450.5C 351.159,435.341 364.992,420.841 379.5,407C 384.308,403.692 388.975,400.192 393.5,396.5C 405.257,398.626 416.59,402.126 427.5,407C 430.63,409.128 433.463,411.628 436,414.5C 445.802,426.104 452.469,439.437 456,454.5C 457.11,465.15 457.944,475.817 458.5,486.5 Z"/></g>
<g><path style="opacity:1" fill="#fdfdfd" d="M 585.5,476.5 C 583.167,477.167 580.833,477.833 578.5,478.5C 566.452,480.345 554.452,482.511 542.5,485C 526.826,486.57 511.159,488.07 495.5,489.5C 498.691,471.947 507.357,457.78 521.5,447C 539.292,434.043 559.292,427.21 581.5,426.5C 583.719,443.088 585.053,459.755 585.5,476.5 Z"/></g>
<g><path style="opacity:0.757" fill="#676767" d="M 585.5,476.5 C 586.043,476.56 586.376,476.893 586.5,477.5C 583.914,478.48 581.247,478.813 578.5,478.5C 580.833,477.833 583.167,477.167 585.5,476.5 Z"/></g>
<g><path style="opacity:0.761" fill="#555555" d="M 458.5,486.5 C 459.043,486.56 459.376,486.893 459.5,487.5C 446.673,488.825 434.006,488.825 421.5,487.5C 434.011,487.829 446.345,487.495 458.5,486.5 Z"/></g>
</svg>
