<?xml version="1.0" encoding="UTF-8"?>
<!DOCTYPE svg PUBLIC "-//W3C//DTD SVG 1.1//EN" "http://www.w3.org/Graphics/SVG/1.1/DTD/svg11.dtd">
<svg xmlns="http://www.w3.org/2000/svg" version="1.1" width="300px" height="300px" style="shape-rendering:geometricPrecision; text-rendering:geometricPrecision; image-rendering:optimizeQuality; fill-rule:evenodd; clip-rule:evenodd" xmlns:xlink="http://www.w3.org/1999/xlink">
<g><path style="opacity:0.821" fill="#000000" d="M 111.5,127.5 C 113.5,127.5 115.5,127.5 117.5,127.5C 118.72,130.691 119.553,134.025 120,137.5C 120.388,138.428 121.055,139.095 122,139.5C 142.34,145.925 162.507,152.759 182.5,160C 188.521,162.779 194.187,166.113 199.5,170C 204.857,175.742 207.19,182.409 206.5,190C 203.592,190.993 200.592,191.493 197.5,191.5C 176.185,188.085 155.185,183.585 134.5,178C 128.165,173.497 121.498,169.497 114.5,166C 112.009,162.51 109.175,159.343 106,156.5C 105.373,152.217 105.873,148.051 107.5,144C 105.017,140.364 103.351,136.364 102.5,132C 105.208,129.825 108.208,128.325 111.5,127.5 Z M 119.5,152.5 C 120.552,152.351 121.552,152.517 122.5,153C 123.878,154.713 125.545,156.047 127.5,157C 132.99,157.706 138.323,159.039 143.5,161C 150.554,164.285 157.554,167.452 164.5,170.5C 151.012,169.249 138.346,165.416 126.5,159C 123.669,157.334 121.336,155.168 119.5,152.5 Z M 164.5,170.5 C 171.389,170.58 177.722,172.247 183.5,175.5C 176.594,175.591 170.261,173.924 164.5,170.5 Z"/></g>
</svg>
