<?xml version="1.0" encoding="UTF-8"?>
<!DOCTYPE svg PUBLIC "-//W3C//DTD SVG 1.1//EN" "http://www.w3.org/Graphics/SVG/1.1/DTD/svg11.dtd">
<svg xmlns="http://www.w3.org/2000/svg" version="1.1" width="600px" height="900px" style="shape-rendering:geometricPrecision; text-rendering:geometricPrecision; image-rendering:optimizeQuality; fill-rule:evenodd; clip-rule:evenodd" xmlns:xlink="http://www.w3.org/1999/xlink">
<g><path style="opacity:0.975" fill="#000000" d="M 167.5,148.5 C 169.129,149.625 170.629,150.959 172,152.5C 184.702,179.58 199.702,205.246 217,229.5C 224.29,244.41 231.29,259.41 238,274.5C 248.527,288.879 257.527,304.212 265,320.5C 285.89,351.125 304.556,383.125 321,416.5C 329.883,431.379 339.55,445.713 350,459.5C 358.094,474.693 366.427,489.693 375,504.5C 380.826,521.15 388.492,536.817 398,551.5C 408.806,574.445 420.139,597.112 432,619.5C 432.714,622.595 433.714,625.595 435,628.5C 440.812,638.926 446.812,649.26 453,659.5C 458.179,671.358 464.012,682.858 470.5,694C 465.667,697.5 460.833,701 456,704.5C 445.854,692.03 436.52,679.03 428,665.5C 418.391,645.706 409.725,625.373 402,604.5C 398.077,596.986 394.41,589.319 391,581.5C 386.667,574.167 382.333,566.833 378,559.5C 369.891,541.62 361.558,523.953 353,506.5C 341.115,487.6 328.781,468.933 316,450.5C 312.96,440.079 307.627,431.079 300,423.5C 288.696,402.23 277.363,380.896 266,359.5C 258,346.833 250,334.167 242,321.5C 233.797,302.872 224.463,284.872 214,267.5C 210.975,259.137 206.308,251.804 200,245.5C 191.422,229.337 182.089,213.671 172,198.5C 166.283,188.008 160.95,177.342 156,166.5C 152.707,163.747 150.874,160.247 150.5,156C 154.083,154.786 157.417,155.619 160.5,158.5C 161.881,154.371 164.214,151.038 167.5,148.5 Z"/></g>
</svg>
