<?xml version="1.0" encoding="UTF-8"?>
<!DOCTYPE svg PUBLIC "-//W3C//DTD SVG 1.1//EN" "http://www.w3.org/Graphics/SVG/1.1/DTD/svg11.dtd">
<svg xmlns="http://www.w3.org/2000/svg" version="1.1" width="300px" height="300px" style="shape-rendering:geometricPrecision; text-rendering:geometricPrecision; image-rendering:optimizeQuality; fill-rule:evenodd; clip-rule:evenodd" xmlns:xlink="http://www.w3.org/1999/xlink">
<g><path style="opacity:0.95" fill="#000000" d="M 131.5,96.5 C 132.675,96.281 133.675,96.6143 134.5,97.5C 135.214,99.8111 136.214,101.978 137.5,104C 147.485,109.108 157.819,113.441 168.5,117C 174.869,117.411 181.036,117.578 187,117.5C 200.356,108.243 207.689,111.576 209,127.5C 200.447,130.848 191.614,133.348 182.5,135C 190.082,142.586 198.248,149.419 207,155.5C 209.83,159.463 211.163,163.796 211,168.5C 210.097,169.701 208.931,170.535 207.5,171C 202.167,171.667 196.833,171.667 191.5,171C 181.549,166.78 172.715,160.947 165,153.5C 167.253,158.691 169.586,164.025 172,169.5C 175.663,173.834 178.496,178.667 180.5,184C 171.811,190.703 163.644,189.869 156,181.5C 154.657,179.161 153.324,176.828 152,174.5C 152.219,179.485 152.219,184.485 152,189.5C 146.571,191.953 141.071,192.453 135.5,191C 133.023,187.238 131.523,183.071 131,178.5C 129.492,161.865 128.492,145.199 128,128.5C 126.878,125.924 125.878,123.257 125,120.5C 122.346,115.195 119.179,110.195 115.5,105.5C 120.896,102.473 126.229,99.4725 131.5,96.5 Z"/></g>
</svg>
