<?xml version="1.0" encoding="UTF-8"?>
<!DOCTYPE svg PUBLIC "-//W3C//DTD SVG 1.1//EN" "http://www.w3.org/Graphics/SVG/1.1/DTD/svg11.dtd">
<svg xmlns="http://www.w3.org/2000/svg" version="1.1" width="300px" height="300px" style="shape-rendering:geometricPrecision; text-rendering:geometricPrecision; image-rendering:optimizeQuality; fill-rule:evenodd; clip-rule:evenodd" xmlns:xlink="http://www.w3.org/1999/xlink">
<g><path style="opacity:0.004" fill="#000000" d="M 121.5,80.5 C 126.148,81.6621 130.815,82.8288 135.5,84C 127.316,91.6851 118.983,99.1851 110.5,106.5C 108.902,107.485 107.235,107.651 105.5,107C 103.59,104.273 102.256,101.273 101.5,98C 108.426,92.3848 115.093,86.5515 121.5,80.5 Z"/></g>
<g><path style="opacity:0.889" fill="#000000" d="M 145.5,86.5 C 158.423,89.0895 171.423,92.0895 184.5,95.5C 184.807,104.887 184.473,114.22 183.5,123.5C 184.254,126.777 184.754,130.11 185,133.5C 192.46,147.295 201.126,160.295 211,172.5C 212.244,176.779 212.577,181.112 212,185.5C 211.3,187.032 210.134,188.032 208.5,188.5C 205.204,187.235 201.871,186.068 198.5,185C 193.692,181.692 189.025,178.192 184.5,174.5C 183.019,175.48 181.685,176.647 180.5,178C 179.5,178.667 178.5,178.667 177.5,178C 174.118,173.735 171.952,168.902 171,163.5C 172.682,174.236 175.015,184.903 178,195.5C 182.47,209.875 177.97,214.375 164.5,209C 162.333,207.5 160.5,205.667 159,203.5C 155.59,193.104 152.09,182.771 148.5,172.5C 144.763,184.876 140.93,197.209 137,209.5C 136.196,210.804 135.029,211.471 133.5,211.5C 129.523,210.677 125.857,209.177 122.5,207C 121.056,205.874 120.39,204.374 120.5,202.5C 123.362,190.248 127.028,178.248 131.5,166.5C 130.635,165.417 129.635,165.251 128.5,166C 120.223,172.811 111.556,179.145 102.5,185C 97.1746,185.117 92.1746,183.784 87.5,181C 86.5697,179.806 85.9031,178.473 85.5,177C 87.4171,170.998 90.2505,165.498 94,160.5C 107.371,149.975 120.371,138.975 133,127.5C 133.248,122.437 133.915,117.437 135,112.5C 138.23,103.709 141.73,95.0422 145.5,86.5 Z"/></g>
<g><path style="opacity:0.004" fill="#000000" d="M 199.5,89.5 C 200.708,90.2341 202.041,90.5674 203.5,90.5C 206.365,101.928 210.698,112.762 216.5,123C 211.853,136.125 206.353,136.625 200,124.5C 197.145,114.768 193.979,105.102 190.5,95.5C 193.836,93.8552 196.836,91.8552 199.5,89.5 Z"/></g>
</svg>
