<?xml version="1.0" encoding="UTF-8"?>
<!DOCTYPE svg PUBLIC "-//W3C//DTD SVG 1.1//EN" "http://www.w3.org/Graphics/SVG/1.1/DTD/svg11.dtd">
<svg xmlns="http://www.w3.org/2000/svg" version="1.1" width="300px" height="600px" style="shape-rendering:geometricPrecision; text-rendering:geometricPrecision; image-rendering:optimizeQuality; fill-rule:evenodd; clip-rule:evenodd" xmlns:xlink="http://www.w3.org/1999/xlink">
<g><path style="opacity:0.841" fill="#000000" d="M 208.5,39.5 C 210.167,39.5 211.833,39.5 213.5,39.5C 213.6,42.667 212.933,45.667 211.5,48.5C 214.119,48.9756 216.119,50.3089 217.5,52.5C 216.239,54.4534 215.073,56.4534 214,58.5C 210.727,69.6515 207.061,80.6515 203,91.5C 200.871,103.814 198.871,116.147 197,128.5C 193.421,140.371 189.587,152.204 185.5,164C 181.747,178.933 178.747,193.766 176.5,208.5C 169.647,234.192 162.814,259.859 156,285.5C 153.127,298.404 150.794,311.404 149,324.5C 141.448,349.924 134.781,375.59 129,401.5C 128.667,406.833 128.333,412.167 128,417.5C 124.53,428.504 120.197,439.171 115,449.5C 108.966,470.193 106.132,491.026 106.5,512C 100.509,512.499 94.5092,512.666 88.5,512.5C 90.1547,500.205 91.6547,487.871 93,475.5C 97.9467,460.378 101.947,445.045 105,429.5C 107.577,424.779 109.577,419.779 111,414.5C 119.012,381.453 127.178,348.453 135.5,315.5C 137.122,312.679 138.289,309.679 139,306.5C 141.316,294.566 143.316,282.566 145,270.5C 145.419,269.328 146.085,268.328 147,267.5C 149.576,252.863 153.243,238.529 158,224.5C 159,215.5 160,206.5 161,197.5C 167.284,180.364 172.95,163.031 178,145.5C 180.22,126.292 183.553,107.292 188,88.5C 194.689,72.0408 201.522,55.7075 208.5,39.5 Z"/></g>
</svg>
