<?xml version="1.0" encoding="UTF-8"?>
<!DOCTYPE svg PUBLIC "-//W3C//DTD SVG 1.1//EN" "http://www.w3.org/Graphics/SVG/1.1/DTD/svg11.dtd">
<svg xmlns="http://www.w3.org/2000/svg" version="1.1" width="600px" height="600px" style="shape-rendering:geometricPrecision; text-rendering:geometricPrecision; image-rendering:optimizeQuality; fill-rule:evenodd; clip-rule:evenodd" xmlns:xlink="http://www.w3.org/1999/xlink">
<g><path style="opacity:0.841" fill="#000000" d="M 474.5,30.5 C 475.552,30.3505 476.552,30.5172 477.5,31C 479.466,32.46 481.132,34.1266 482.5,36C 480.807,40.5549 478.474,44.7216 475.5,48.5C 475.709,49.086 476.043,49.586 476.5,50C 472.094,57.076 466.928,63.576 461,69.5C 456.333,76.8333 451.667,84.1667 447,91.5C 428.64,108.527 410.973,126.194 394,144.5C 385.376,155.46 376.376,166.126 367,176.5C 348.366,197.134 329.033,217.134 309,236.5C 296.709,252.06 283.709,267.06 270,281.5C 259.161,298.513 247.828,315.18 236,331.5C 218.839,362.671 198.506,391.671 175,418.5C 166.333,433.167 157.667,447.833 149,462.5C 147.488,463.257 146.154,464.257 145,465.5C 140.05,472.068 136.717,479.401 135,487.5C 130.884,493.898 127.717,500.731 125.5,508C 131.448,522.07 137.281,536.237 143,550.5C 144.463,554.423 145.63,558.423 146.5,562.5C 141.499,562.2 136.665,561.2 132,559.5C 129.864,552.758 127.531,546.091 125,539.5C 124.5,545.825 124.334,552.158 124.5,558.5C 110.42,557.35 96.4204,555.516 82.5,553C 87.3953,546.234 89.8953,538.734 90,530.5C 77.3083,543.025 64.1416,555.025 50.5,566.5C 48.9017,567.485 47.235,567.651 45.5,567C 43.5895,564.273 42.2562,561.273 41.5,558C 58.0923,544.745 74.0923,530.745 89.5,516C 93.088,513.623 96.588,511.123 100,508.5C 104.889,494.958 112.223,482.958 122,472.5C 125.932,460.37 131.932,449.37 140,439.5C 147.889,420.713 158.556,403.713 172,388.5C 177.307,380.201 182.974,372.201 189,364.5C 196.699,351.48 204.365,338.48 212,325.5C 233.651,297.179 255.317,268.846 277,240.5C 282.667,235.167 288.333,229.833 294,224.5C 297.65,219.187 301.65,214.187 306,209.5C 312.595,204.909 318.595,199.576 324,193.5C 330.473,184.894 337.64,176.894 345.5,169.5C 351.579,161.026 357.912,152.692 364.5,144.5C 375.841,134.659 386.674,124.325 397,113.5C 407.38,99.4115 419.213,86.7448 432.5,75.5C 444.106,60.1575 456.772,45.6575 470.5,32C 472.058,31.79 473.391,31.29 474.5,30.5 Z"/></g>
<g><path style="opacity:0.004" fill="#000000" d="M 105.5,562.5 C 106.833,563.167 106.833,563.167 105.5,562.5 Z"/></g>
<g><path style="opacity:0.004" fill="#000000" d="M 135.5,568.5 C 140.388,569.738 145.388,570.571 150.5,571C 152.5,575 154.5,579 156.5,583C 155.833,583.667 155.167,583.667 154.5,583C 153.833,581.667 152.833,580.667 151.5,580C 147.148,579.248 142.815,578.415 138.5,577.5C 137.295,574.55 136.295,571.55 135.5,568.5 Z"/></g>
<g><path style="opacity:0.004" fill="#000000" d="M 75.5,571.5 C 80.6625,573.729 80.3292,574.395 74.5,573.5C 74.8627,572.817 75.1961,572.15 75.5,571.5 Z"/></g>
<g><path style="opacity:0.066" fill="#000000" d="M 80.5,574.5 C 81.6009,573.402 82.9343,573.235 84.5,574C 83.2068,574.49 81.8734,574.657 80.5,574.5 Z"/></g>
</svg>
