<?xml version="1.0" encoding="UTF-8"?>
<!DOCTYPE svg PUBLIC "-//W3C//DTD SVG 1.1//EN" "http://www.w3.org/Graphics/SVG/1.1/DTD/svg11.dtd">
<svg xmlns="http://www.w3.org/2000/svg" version="1.1" width="300px" height="300px" style="shape-rendering:geometricPrecision; text-rendering:geometricPrecision; image-rendering:optimizeQuality; fill-rule:evenodd; clip-rule:evenodd" xmlns:xlink="http://www.w3.org/1999/xlink">
<g><path style="opacity:0.831" fill="#000000" d="M 183.5,98.5 C 184.5,98.5 185.5,98.5 186.5,98.5C 186.891,105.843 187.057,113.176 187,120.5C 181.34,133.469 173.007,144.469 162,153.5C 157.644,158.866 153.644,164.533 150,170.5C 147.04,172.408 145.04,175.075 144,178.5C 136.336,185.778 129.169,193.612 122.5,202C 116.182,204.689 110.682,203.523 106,198.5C 103.169,193.349 100.336,188.182 97.5,183C 96.6705,181.535 96.5038,180.035 97,178.5C 102.358,174.629 107.524,170.629 112.5,166.5C 117.64,162.192 122.307,157.358 126.5,152C 127.766,151.691 128.933,151.191 130,150.5C 132.045,147.577 134.212,144.743 136.5,142C 145.61,134.233 154.777,126.4 164,118.5C 167.177,112.85 169.677,107.017 171.5,101C 175.699,100.472 179.699,99.6389 183.5,98.5 Z M 151.5,148.5 C 152.305,145.183 154.139,142.517 157,140.5C 157.667,141.167 157.667,141.833 157,142.5C 155.383,144.763 153.55,146.763 151.5,148.5 Z M 150.5,149.5 C 148.889,151.641 147.389,153.974 146,156.5C 145.184,157.823 144.017,158.489 142.5,158.5C 143.768,154.233 146.435,151.233 150.5,149.5 Z M 142.5,158.5 C 137.062,168.164 130.062,176.664 121.5,184C 119.272,184.82 117.272,184.487 115.5,183C 120.935,176.809 126.602,170.809 132.5,165C 135.817,162.738 139.15,160.571 142.5,158.5 Z"/></g>
</svg>
