<?xml version="1.0" encoding="UTF-8"?>
<!DOCTYPE svg PUBLIC "-//W3C//DTD SVG 1.1//EN" "http://www.w3.org/Graphics/SVG/1.1/DTD/svg11.dtd">
<svg xmlns="http://www.w3.org/2000/svg" version="1.1" width="300px" height="600px" style="shape-rendering:geometricPrecision; text-rendering:geometricPrecision; image-rendering:optimizeQuality; fill-rule:evenodd; clip-rule:evenodd" xmlns:xlink="http://www.w3.org/1999/xlink">
<g><path style="opacity:0.861" fill="#000000" d="M 83.5,77.5 C 88.4444,79.9557 90.611,83.9557 90,89.5C 90.8452,92.6909 92.3452,95.5243 94.5,98C 101.206,117.589 107.206,137.423 112.5,157.5C 124.68,190.23 134.68,223.564 142.5,257.5C 147.155,269.95 150.488,282.783 152.5,296C 158.837,317.017 164.671,338.184 170,359.5C 175.118,375.063 180.784,390.396 187,405.5C 192.272,432.922 199.272,459.922 208,486.5C 212.348,505.548 216.515,525.048 220.5,545C 220.095,545.945 219.428,546.612 218.5,547C 215.628,547.315 212.795,547.815 210,548.5C 207.849,548.235 206.182,547.235 205,545.5C 198.378,523.013 192.378,500.347 187,477.5C 173.768,439.081 162.935,399.914 154.5,360C 150.406,347.784 146.24,335.618 142,323.5C 139.458,310.554 136.124,297.887 132,285.5C 129.392,273.521 126.892,261.521 124.5,249.5C 118.196,228.75 111.03,208.417 103,188.5C 100.667,174.84 98.3341,161.173 96,147.5C 93.3631,141.62 91.0297,135.62 89,129.5C 86.2609,117.622 82.9276,105.955 79,94.5C 78.1661,88.1225 79.6661,82.4558 83.5,77.5 Z"/></g>
</svg>
