<svg width="325" height="101" viewBox="0 0 325 101" fill="none" xmlns="http://www.w3.org/2000/svg">
<g filter="url(#filter0_d_183_246)">
<rect x="6" y="2" width="313" height="89" rx="18" fill="#C6EAF0" stroke="black" stroke-width="4"/>
<g filter="url(#filter1_b_183_246)">
<path d="M106.535 64.3683C106.262 67.1027 104.758 68.5838 102.023 68.8117C100.747 68.8117 99.6309 68.4016 98.6738 67.5812C97.7624 66.7154 97.3066 65.6444 97.3066 64.3683V32.1027C97.3522 30.8267 97.8307 29.7785 98.7422 28.9582C99.6536 28.0923 100.747 27.6594 102.023 27.6594H130.734C134.745 27.7961 137.775 28.6848 139.826 30.3254C141.877 31.9204 143.358 33.7433 144.27 35.7941C145.181 37.8449 145.637 39.9185 145.637 42.0148C145.637 44.2023 145.181 46.3215 144.27 48.3723C143.404 50.423 141.923 52.2687 139.826 53.9094C137.775 55.5044 135.155 56.2792 131.965 56.2336H114.738C113.462 56.2336 112.391 55.7779 111.525 54.8664C110.614 54.0005 110.158 52.9295 110.158 51.6535C110.158 50.3775 110.591 49.3065 111.457 48.4406C112.368 47.5292 113.462 47.0734 114.738 47.0734H132.375C133.241 47.0734 133.947 46.8 134.494 46.2531C135.087 45.6607 135.52 44.9999 135.793 44.2707C136.066 43.496 136.203 42.7212 136.203 41.9465C136.203 41.2173 136.066 40.4881 135.793 39.759C135.52 38.9842 135.087 38.3234 134.494 37.7766C133.947 37.1841 133.241 36.8651 132.375 36.8195H108.312C107.128 36.8651 106.535 37.4575 106.535 38.5969V64.3683ZM157.463 26.5656C158.739 26.5656 159.833 26.9986 160.744 27.8644C161.656 28.6848 162.134 29.7329 162.18 31.009V47.4836C162.134 49.3521 162.248 51.0838 162.521 52.6789C162.84 54.2284 163.57 55.6183 164.709 56.8488C165.848 58.0793 167.284 58.7401 169.016 58.8312H190.891C192.167 58.8768 193.215 59.3553 194.035 60.2668C194.901 61.1782 195.334 62.272 195.334 63.548C195.288 64.7785 194.833 65.8267 193.967 66.6926C193.146 67.5129 192.121 67.9458 190.891 67.9914H166.691C163.501 67.8091 160.858 66.7381 158.762 64.7785C156.711 62.7733 155.23 60.3351 154.318 57.4641C153.452 54.593 152.997 51.5396 152.951 48.3039V31.009C152.997 29.7785 153.452 28.7531 154.318 27.9328C155.184 27.0669 156.232 26.6112 157.463 26.5656ZM217.209 57.3957C217.209 56.1196 217.642 55.0487 218.508 54.1828C219.419 53.2713 220.513 52.8156 221.789 52.8156H232.248L230.471 47.757C229.742 45.8885 229.012 44.134 228.283 42.4933C227.6 40.8071 226.802 39.2805 225.891 37.9133C225.07 36.5461 224.136 35.8169 223.088 35.7258C221.994 35.8169 221.014 36.5461 220.148 37.9133C219.283 39.2805 218.485 40.8071 217.756 42.4933C217.072 44.134 216.366 45.8885 215.637 47.757L209.143 65.5305C208.687 66.4875 208.094 67.285 207.365 67.923C206.682 68.5155 205.633 68.8117 204.221 68.8117C202.899 68.8117 201.805 68.356 200.939 67.4445C200.119 66.5331 199.755 65.4393 199.846 64.1633C199.891 63.5708 200.028 63.0239 200.256 62.5226L207.775 43.1086C209.872 38.0044 211.968 33.8801 214.064 30.7355C216.115 27.6366 219.123 26.0643 223.088 26.0187C227.007 26.0643 229.992 27.6366 232.043 30.7355C234.139 33.7889 236.236 37.9133 238.332 43.1086L245.852 62.5226C246.079 63.0239 246.216 63.5708 246.262 64.1633C246.353 65.4393 245.965 66.5331 245.1 67.4445C244.279 68.356 243.208 68.8117 241.887 68.8117C240.383 68.8117 239.266 68.5155 238.537 67.923C237.854 67.285 237.284 66.4875 236.828 65.5305L235.529 61.9758H221.789C220.513 61.9758 219.442 61.52 218.576 60.6086C217.665 59.7427 217.209 58.6717 217.209 57.3957ZM257.678 26.5656C258.954 26.5656 260.048 26.9986 260.959 27.8644C261.87 28.6848 262.349 29.7329 262.395 31.009V32.3078C262.349 34.1763 262.463 35.9081 262.736 37.5031C263.055 39.0526 263.785 40.4426 264.924 41.673C266.063 42.9035 267.499 43.5643 269.23 43.6555H288.439V31.1457C288.439 29.8696 288.895 28.8215 289.807 28.0012C290.764 27.1353 291.88 26.7023 293.156 26.7023C295.891 26.9302 297.395 28.4113 297.668 31.1457V47.0051C297.668 50.6509 297.167 54.0917 296.164 57.3273C295.253 60.1984 293.749 62.6366 291.652 64.6418C289.602 66.6014 286.981 67.6724 283.791 67.8547H259.182C257.951 67.8091 256.903 67.3762 256.037 66.5558C255.217 65.69 254.784 64.6418 254.738 63.4113C254.738 62.1353 255.148 61.0415 255.969 60.1301C256.835 59.2186 257.906 58.7401 259.182 58.6945H281.467C283.199 58.6034 284.634 57.9426 285.773 56.7121C286.822 55.5728 287.528 54.2739 287.893 52.8156H266.906C263.716 52.6333 261.073 51.5624 258.977 49.6027C256.926 47.5975 255.445 45.1594 254.533 42.2883C253.667 39.4172 253.212 36.3638 253.166 33.1281V31.009C253.212 29.7785 253.667 28.7531 254.533 27.9328C255.399 27.0669 256.447 26.6112 257.678 26.5656Z" fill="#043535"/>
</g>
<path d="M50 19.3582C44.2891 19.3582 38.7064 21.0088 33.9579 24.1011C29.2095 27.1935 25.5085 31.5888 23.323 36.7312C21.1375 41.8736 20.5657 47.5322 21.6798 52.9914C22.794 58.4505 25.5441 63.4651 29.5823 67.4009C33.6205 71.3368 38.7656 74.0171 44.3668 75.103C49.968 76.1889 55.7738 75.6316 61.05 73.5015C66.3262 71.3714 70.8359 67.7643 74.0087 63.1363C77.1815 58.5082 78.875 53.0671 78.875 47.501C78.875 40.0371 75.8328 32.8788 70.4177 27.601C65.0026 22.3232 57.6581 19.3582 50 19.3582ZM65.3594 49.3001L40.6094 61.3613C40.2949 61.5145 39.9454 61.5867 39.5942 61.5712C39.243 61.5557 38.9016 61.453 38.6026 61.2727C38.3035 61.0924 38.0568 60.8407 37.8857 60.5413C37.7146 60.2419 37.6248 59.9049 37.625 59.5622V35.4398C37.6252 35.0973 37.7152 34.7605 37.8864 34.4614C38.0577 34.1623 38.3045 33.9108 38.6035 33.7307C38.9024 33.5507 39.2436 33.4481 39.5947 33.4327C39.9458 33.4173 40.2951 33.4896 40.6094 33.6427L65.3594 45.7039C65.7016 45.871 65.9893 46.1276 66.1903 46.445C66.3913 46.7624 66.4978 47.128 66.4978 47.501C66.4978 47.874 66.3913 48.2396 66.1903 48.557C65.9893 48.8744 65.7016 49.131 65.3594 49.2981" fill="#043535"/>
</g>
<defs>
<filter id="filter0_d_183_246" x="0" y="0" width="325" height="105" filterUnits="userSpaceOnUse" color-interpolation-filters="sRGB">
<feFlood flood-opacity="0" result="BackgroundImageFix"/>
<feColorMatrix in="SourceAlpha" type="matrix" values="0 0 0 0 0 0 0 0 0 0 0 0 0 0 0 0 0 0 127 0" result="hardAlpha"/>
<feOffset dy="4"/>
<feGaussianBlur stdDeviation="2"/>
<feComposite in2="hardAlpha" operator="out"/>
<feColorMatrix type="matrix" values="0 0 0 0 0 0 0 0 0 0 0 0 0 0 0 0 0 0 0.25 0"/>
<feBlend mode="normal" in2="BackgroundImageFix" result="effect1_dropShadow_183_246"/>
<feBlend mode="normal" in="SourceGraphic" in2="effect1_dropShadow_183_246" result="shape"/>
</filter>
<filter id="filter1_b_183_246" x="93.3066" y="22.0187" width="208.361" height="50.793" filterUnits="userSpaceOnUse" color-interpolation-filters="sRGB">
<feFlood flood-opacity="0" result="BackgroundImageFix"/>
<feGaussianBlur in="BackgroundImageFix" stdDeviation="2"/>
<feComposite in2="SourceAlpha" operator="in" result="effect1_backgroundBlur_183_246"/>
<feBlend mode="normal" in="SourceGraphic" in2="effect1_backgroundBlur_183_246" result="shape"/>
</filter>
</defs>
</svg>
